<mxfile modified="2023-02-17T17:31:03.190Z" host="app.diagrams.net" agent="5.0 (Windows NT 10.0; Win64; x64) AppleWebKit/537.36 (KHTML, like Gecko) Chrome/109.0.0.0 Safari/537.36" etag="NTOe7JekfcgvbDoghQEz" version="20.8.20" type="github">
  <diagram id="Ht1M8jgEwFfnCIfOTk4-" name="Page-1">
    <mxGraphModel dx="1434" dy="1583" grid="1" gridSize="10" guides="1" tooltips="1" connect="1" arrows="1" fold="1" page="1" pageScale="1" pageWidth="1169" pageHeight="827" math="0" shadow="0">
      <root>
        <mxCell id="0" />
        <mxCell id="1" parent="0" />
        <mxCell id="TyNaCP28_q_hWQBu7Goa-10" value="&lt;font style=&quot;font-size: 17px;&quot;&gt;Cluster K8S&lt;/font&gt;" style="points=[[0,0],[0.25,0],[0.5,0],[0.75,0],[1,0],[1,0.25],[1,0.5],[1,0.75],[1,1],[0.75,1],[0.5,1],[0.25,1],[0,1],[0,0.75],[0,0.5],[0,0.25]];outlineConnect=0;gradientColor=none;html=1;whiteSpace=wrap;fontSize=12;fontStyle=0;container=1;pointerEvents=0;collapsible=0;recursiveResize=0;shape=mxgraph.aws4.group;grIcon=mxgraph.aws4.group_on_premise;strokeColor=#CCE5FF;fillColor=#0000CC;verticalAlign=bottom;align=center;spacingLeft=-930;fontColor=#33FFFF;dashed=0;labelPosition=center;verticalLabelPosition=top;spacingBottom=-26;" vertex="1" parent="1">
          <mxGeometry x="50" y="-790" width="1144.25" height="880" as="geometry" />
        </mxCell>
        <mxCell id="TyNaCP28_q_hWQBu7Goa-12" value="" style="rounded=1;whiteSpace=wrap;html=1;strokeColor=#CCE5FF;fontSize=17;fontColor=#FFFFFF;fillColor=#000000;labelPosition=center;verticalLabelPosition=middle;align=center;verticalAlign=middle;spacingLeft=-936;spacingTop=-666;glass=0;shadow=0;perimeterSpacing=0;strokeWidth=2;" vertex="1" parent="TyNaCP28_q_hWQBu7Goa-10">
          <mxGeometry x="8" y="30" width="1110" height="720" as="geometry" />
        </mxCell>
        <mxCell id="TyNaCP28_q_hWQBu7Goa-16" value="" style="shape=image;verticalLabelPosition=bottom;labelBackgroundColor=default;verticalAlign=top;aspect=fixed;imageAspect=0;image=data:image/png,iVBORw0KGgoAAAANSUhEUgAAASwAAAEzCAYAAACL/T47AAAAAXNSR0IArs4c6QAAAARnQU1BAACxjwv8YQUAAAAJcEhZcwAAEnQAABJ0Ad5mH3gAAJHtSURBVHhe7X0FgBzHlfZbZhQzM9qyzCDLzBDHjh3bYc4F7y5wSc7J5XJ/LrngBS7oJHbsxEwxy2wZxMzM0q6WeVd/fdVdOz3dRQO72zOaT273Tlf1q+qCr19Vv3qVNeX6v58gyiItsgzhHE6c/LxsKszPoYbmTv5bIMsoA+EsK6a8CFjlyUFJUS719Jyg1vZu94qAWoY5v34Y4vvkVZbmUVNrF3V145kFTGnqw5HnEydOxJD36HiDKwvoWF2788NWhC6iMR/6cNxeVZZHtQ1OW8oyZcrquS1ksDJUycrPzaaC/GxqbOliv/SyYm9DMpjzW1yQzXtOa3uPc02LZORZE8e9v6Ikl5rbun3tWwZTetHh2c4JQjWCUYE4tNDLQEfyHkGIa6Z0XBjzYwPIEEc0zPn1Qy6nF5BhlGOQ0RsujyfyaZdfQBNPJCEOJTQRxDOLIwBc8x9qsJpw/1JAm5YAwryHD+JerQwBhQwXsbUfFUQairR68+uczNBHtMszwryHB7iP3ysJk8IULzrcJSwATGZIQDyE9mEAebiXve0KBNDE6y2cRGBieAd2jS6GMjRCFc+bX7Usc6MTsMyPNprFcwMJPztCnH9WUKYnytCQb9yfpDK0rw8Z7Oo8Kr/atBCmC7eBoQxFEtbPbIrnhHsIS9zAU3H+lMGYAa+caPgrzFyJprRcQIYxXyqI+3DWyxD5VefZUpYxv145fviv4bdalrmMAb0MM8S9FjLEsyvzZCeLPRX/p4T2me3S6IU2vwIIt5QXM/xyDWkZ8yqgl2Pf1g0Q5WfMF8J1cU54CcsPw81WmRBhujgQoQ+3lWPOjw1wvzjUMOcZMMgR+dXKEmG6OIA+XORXn2+EacJFsIgijaoNjIY2L4BZhhVxiXSU6eG6ODTg95vi6cNR/uJIHIa8iDSMaenlePOrzrdeRi+MeQHUsjSE5YciIQzztJkQYbo4EOGE6wvEe1ZADDutCsYWclneikwISSrDCNT59Z7N0MRDkGI0ELlokQ7yYsyPhRwGI3F5z0Yo4uEyPxKTIz6QJAciUxIk67kZkF9zvr1hingx5ykCRljiJtXNuK4RLEtcmRG9LLsCEb1EEQf3au+PBSIdlwQVEPlV51tcV4SL+7z3a2WZwpRMwiHKWJ9f9f298CaljG4rSxfH+zzyeIKsvKQlJTDxcjA+u6bOEcSzZCNHDn+b0deHLTT3i+fWwpw+8mjffjRl6L1XK8d7jvpKKKC6GUCYJhwJ82BNRjnUMkQhqAvEf00ty8kPDvd33DALUFeegAg3xBN5RgPTQidHn4Y/r/q8I0wTLoJM2TXkiUM8ewDimv8sB4gK/6RmENpn9QLxFHFlQUa56nBR/iCCPoPIH87iUAJh4gjCPr+6NFxo8wFEh/uGhAg0ZQLhukQQxo6YCkUdz9yZDPnlhcri6cRYAQKEELUwfX69MMQT5WdVhiqIcHUc5DfS8FTxRJ2r5fQGa6N5A5WRWJAmzAKCqEBaWliXsezsAe7Xdl7cYy5D1IU44odIIxEZgKlNROdXnWdvXjR5Mj6zEy6ZwxIJiMMPcU0WJoExIwLqeHYFIg4feu9jZ+u86OCRJ0uPwVuJ8nx7ZVjAmG8bOYgjj9ebT/ynzS8glxGANpoIxFkR0c1P798BiHuDYexp3L+cv72/lZCmISDC/GcPeH49RwDea7LwaMjrIVZAhkZOTPmVxYmGPs8iTCPLmx9FnhST7t63hUI4B8J04S6UGfBDH8euEg1xRF6sZMUPobXYqc0WeTHm2VKORRxzOdukw2CbJRW4UsIEWJWhHlbEZSxjA0Q+cU5CGaIeEicuXojOnzpYpYM4+ngiz8ayVoUbyjBbXiiy3+KQQRfmAdKRZCIaQpY8njy/fuhl9MIqPybI0xJ5FPn1HnIEZUiB+5UyACFHHDLowhwkLb+AMaqI4Isk0sbZe0iB6+JQgz0R/6eFMS0AYb5wEd971srBdVVYBOa60EHcY5GWyKsxHRtZ7kkrSyJHxPeexcHQq2ElVigC4l6DDKs09G8G+/xapJXQM3sh5CQiz/LeJJShEyYONfRlbCfDHkKORl4S6py1HP7PCsl4/n4tQx0s07JqX/o43nZjbkPesxrSIaGeCHBdl4A5UQ7IF4cU4rpZnj6/gL2sxIE0BFHI0+P51eZF3KuLwyCeOQll6MRRxxPlqy9nA0QSRhGI4A4NVJGRD21eECYONYykJdLoTUslU1/nHImUnQvR1hOqh15Y5FccWujD7fKKOIYyZHIUc1g2MGVCJCziGeJrH8orRw19wYgwhSzcK46EYSGjNzlTXIRr4njv18oyyOmFOo59XkU8TXxvNClEBEFcChjzBOgTc14fFnJ605LlySYfDJBhVU8iji4uRLFwfRQLWAhQ5ltcw1kvB3kVhxz6+wEtYZkTAERGTXE0DQ/yrScqxSGHN7/mfCtgzEcsgCxx+OFcSzi/AO6NqQx18MYJxhVlbM6vgWwMwQ5EXsQhAfIh8mLMkxrsidy/FBATwqZ4PFwcgCS+yLMxv+pCQvk7H3VMdWED3C9kaGQlmA7yi8OcX5Gf6HiMsIIXZbArEF0ckY44fBDyrQtEH0/kl5+VUREgAn2R+H2eIylQy/HmV13WuO49fBD3WeVXISMKCNezije/wXyLNMThgyYoLnifP5AXAZGgOKIB0hL/AvDK1KbhBeIYmNkrKyATv71HNHj5u38nB0KaPD2ORPPr3uP9W49IHJ+Gpb/ZTjigiuetOI0spGNMy3mzWEMZVciRNKreNyqD9bObYJajfwOJPBmeP8EyxKNns/9lsxaSgyMni3LdIy83mx9wZgeHjQX5Oex3Fj8X4Ld7ICw/L8c9I37kXiELcnOyWTpIC+k6yWuA/JqeiwEPYFWGalhTgbGcLfIs8otzAN5rajn2BGALpKuQZ8yvuG6XH3O+nfCsydfdJ4kpy0Q0VPZFQY+jOlkIQ/KG9BRpRUMdx/E4StTW4fc4KoNNWgxWeVKjsjRf4nE0CFU5RxB/frMZUeRx0nAIZGhVIdU3dXJCqa7Ip+GDCqm6LJ8q2VFRmsfzzM9leVRekhdNQuzvPCYHZxBQd88J6uzsoc5uduDcdYI6unqog/2NtlHX1MXS6qD6RvztHMcbO+hQTRvV1new+05wGaXFudwLajf7jWvwHBsNw/Mn2Ha8gAU9npl7HG2Gx1EJ+rC+IkBYpN8UF+Zw7vB71DW3HVtYyPGlpfY4qpYlXtS6fCsIywt9Zv3C5YQVKVw1DOFIR8noXgTD/S6SbQrGmB/AmBc1IoQFt7Z6OXb5BdThIJXCglwqKshh52x2zqXBlfk0ZlgxjRxcTMOrC/nfgyoKaGh1Aa/DgQJeLEdq2+lwLSOvhg7ac7iFDhxro72HW+lYfTu1so6AOKjPtg6QobkMeV3F2X68KGAao5awBKzahkUcCznFhbm8fchcJNu3HRtAhkVfZmnpXSSb86LKb1IIy1sgQcLywpRRhNsViBoiLCLHS1ixVaBNHAYrWdEIalgWz81gzrezkq6IvXUrWBrwHQ8NaSgjpLHDS2gsIyUQE864Di0rVYA6rGMa2Z4jLZy89h5q4WR2+Hg719DqmYZWz4gEhCZt1Cg7a9KS14fTvrNZ++5yS1qBBNIIwCBLR1he2LV5E+xkQBPX+3Q3P78sv1mTr/UQViBcCBVQCweQgJ6wBPRyHFjEsWoU6k0okF+HvPgvfk0Oi7wAxvxEEK1heaGWIfIr/hbAn2i0QyoLaUhVATsX0OihxTRhVClNHFVGE0aW8CFcugJtbeeBFnY00Q523neklY6yYSSGkkfrOqilrYvzFAcKS/ww1lcw3EtYAlriAuJIRwqFnOghoVmWjAhiA+7vLVD3HA2uYTECNU15OAjK8LZ1QOQ5mrAA47PoI/AJ1/xcamzRERZgTIjBJg6DsgJw/QQjrDwpYQnYVaBlXgALeWrCEtDLgGZUXV5A45jWNG5ECY0fWUoT2HnM8GJOVqXsma0eK82ANo5yBWntZdrXroOMyA420x6mje1mx3E2xGRNwaqOHETHA2HJhoSJaVsCFvEksoJzWHbpJYe45IgaEibh+dWE5YUxnWAEv4ZlLhRjIi4s40nSE5PuKsLyw74iDfE0csyEJRCRgdEbhnVTxpbT5DHQnEr57zGMoKrLU2t411/Ai6qWDSP3MfLC8BGa2LZ9TbR1bxMnNE5egGWdO4SVY5zDSpzALOK4clST7hGYZSVOXkBEhnYOy5gWwnFfMJ6csNTxJYiOFDthCZjiacKRhkd99BdIcEhozpNdvi3ypJBjS1jIx4jBRTR/ShWdMr2aJrEh3oghRXySHMPADGIDhoeHa9vpYE0bbd/XTCu31NHqrXXsdzurLnV9CegICyQFUwjjEFFAm5a9DD1hQY5dZ06ctCL3x09Y+vxmzX4vNlJNFsRnX1ahGBIKyW7adhVpiiN5IHEJiLrd+YGO3cNqtC1QoVGRI4gSrYgTBUkcXIrKZnQcPinJCUte/JgQnzu5kk6fNZimj6/gpIW5KZRtBslBe0cPn+uCKcWm3Y30zoZaWru9gU/gR9eKqLsTlJ/rfiXkG6lGI7rKo+s7CtERGTRxe6GO00tY7Hn0kMuIZIP9FZWv+FFRYjHpbkwnGCFr3i0PqCTGBRgKOm8gdw4LaUoKwUwENuE+wZJL+FHsalhBwgIUcnywJy6PrMAtkQvljLBafIQFWygM9y47cwSdOn0QDakq5JPl0FgTfvlloAQ6O8wkMJEOAlux+Tg9984RPmz0dzgdYQnIq0pyFZd6m4ttBQfjgbAwtO1t30YNJhq40psNLxJodOVMw2rhhOVe0IETJcuBMr3I9awpRrMGCTTPwe1U2NFgmHQ3q5+mcC90cbMiQ0Kp4SjulVZXFER+1eWqvz8KTIB3SAgbqYtPH0HXXTCa5k2u4hohiN9YRBkkHahfGLe2tHfRmm319NhrB+nFd49wo1UgMiT0tm9zRYkXnrqlsasIMDbFYGDUkBCNxihDQBeJ5RjBzmNbyosgqGGpMuVeE2lp02F5mnztX4VEF+JOQHO3IigyhyXeQMFcoPM75gSRsx6mcAF5vMikO8uTMi1cN5YYh11+9WUIwqpgw77rLhhDN188jqorCvjyFKPoDPoNIAFMJcDy/oEl++jhVw5yDUxuOGquc8CoqaMBIGHxtxQiLSdcOYcl7kegtmHpwhyY23w05HNYBhkWzy4hLAGLDEqi+CfdHehlJZe4gnGiJt2tCh5xUCzmuPo8R4fhKx7MPjDse//lE+iSM0awvKWvfVS6oYkNA19YdoQeffUA074aqJ1pYmhXQejbjZG0BKz6wwmukUsJS8C6zauRHMLyQiNPk5aGsPzQJcAOt3/LCQvQ3M+gJy2RAKCXE0EkXvAroQttJejTEfkVf+uAIR8m0WeMr6QbFo2l804ZSmVpbMiZ7sD81Wurj9FjTOPauLuRT9I7y4NkULcNEJfxq6KhbUFKcWG2S1i+POBet41yGGUBiON2ZgVsyEtNWOJefRpR8KSXNfmaex2J1g+jByesAhlh+aGWZVMgNnkRcZSEJZCE9GR5zs3JppFDimjulCq65rwxtHDmYJ6XDNID6JDvbqilJ988RGu31fP1jnKNwqZ9IZZFPEk7ix4SxicjGpb5ZXJUSoZZwxKwS0vkOUJYAsaHAdRx8tn4Xq5hAbgPyXnPctiRloA+rtbSHemgthN8bkDkGUO/scNKaM7kKrrynFF01tyhfNFxBukJtKu31tXS00sP0ZrtDbT3SGvMQ0WttuVto5K2GpzDUqcTBWObV4fryAqwJywBuzzHSVgCwbiBIaFWnGUmrfKkjhOZdFdoWF4kkBYmzWF5DpOEC08bQefOH5rRqE4iNLd10Rura+ilFce4QSos60EkQZjbWCzDROWku0U6HMY2b5Ffn4zYCUtAn1aQsLyIo/Oq57AYtOJs0kKWTPGC4fIhoUV6MaQ1bFARncM0qQtOHUZnzxvKPSVkcHICPsWWrquhV1ceozeZ5gXL+iAs2p8LLXkxwM7wBNq31nDUkJ5VXwfM8dBH4ycsAXk6OVXTbrxLWSDWDwE4cR3PlNn8C4oSWrH6NPWEhTAUUHQckCjeQMHC06fVC02aWGQMTeqOKyfRey8eT/OmVnNfUxmcvMALe+KoEpozqYJGDy3i2v2xug7uwDAIyzbIoOqneXnOdT05WKSDdo6OYuz3IjzY1wRgqwanjdKRsRXkcrMmXXNPr0gTk9sQGAwe1XNYDGYRDFaRDOQFINzsrcEqPV9aIOVp48rpukXjOGGNHVbKiTGDDLyAESrmtN5YU0OPv3aANu8JWs9HoG+Hqv4ZMBw1whAHMmIiriCgYbWw/FhZulvBSSuKsAAtafEg3UPY+sPyQCeOByJ76kg2pKX+SijkAyY5Llh6gysL6IYLx9EVZ4/hHhMy81QZmIDh0a6DzfTMW4fpkVcOUE19hxsCiLanb+teePtpYA7LinAM6RjvFf1GIDq+f0iIfmpna6kDe2o/YQmgQOKxEYloWKgQy8xZP4M5oqxAIoSlG+MLqNPA178FMwbTZ2+eQbMnVVFp8cnpcyqD+AAOwXKs9Tsa6JcP7aDlW+p4uwzCrlGJvqmedHdh1Ug1cawbeSSeag4rUeLKqZ52413u372wIisBX8LOhgaYwxKFh3Bk2iDLmJRajnh4VWFE5rBAWMaEXETHw5j8C7fOoq99cC5NGFXGbc3iLPMMTlKgvWClw8jBhXTpGcOorDiXVjDSwgYbQaBxWfQbBuxeBEiHmkgUjV/aWMU1y7SMDT4SDq+sqjmsREhLOukCshJn8bcSKAxxSGG4XwDRtFG9gdER8fDesx6IIw4dnDjQqhbOGkxP/vhi+viN07iFesZRXgaJAO0HuwF99Nrx9Nj/O4sWzqiUtCmbtuxA20+9fSLQP8Rvy7Rwv7aPIUwcatj1UzmYhnWDq2GhwCBI3hltta6ghiWDRYe3iOLAHBHDVJSRfLIT9wefG187h1UX0WdvmUn/9uH5NLiq0A3JIIPkAVumXXHmCKoszaWt+5q5mxt1f5a3dSz9ArClmtWoCLDSbjRxDPc7GlaP1VfCWDQtd0iIG0SnDXZeP3SFIjbcbIcrF21GNGEiyJwVF/pI8GGEglN/nRFw5GBuauHMIfR1RlSXnzWa8tlwMIMM+gq5uVk0e2IFzZ5Uzrc2O97QqTCBAIJtXRBWt6sj2CgWHEaiQLhFJ5TICQ4J9XJsSUsyhyUyCWgSUITlZPs0LGlGRBreswbaYCEDkEfE5p5qDUvA2YF45JBiumHRePqnW2bRjImV/FoGGfQ1MCTEutNTp1by1nzkOHb78Wtboq17z9EalhfJ07Y04bjXm0lXVoSwvA+gT0eQlm5+Szrp7kAvHJAViHJIqC0Uc1oc2mjqQGfS/QRXUVUFgbV+86cNog9fO5Xee8lEvo+fZa4yyCApQHuD6+y5TNMaWlXAvUDUMm1L/aJ1WqggLFU8I3Fp+6YXlvGYPPmkO+4XF9SydNqWhrD80CTA/gk1NGLpLpnDipe0vEE6EVGIRFRZuouCgRviy88eQx+7fhqdf+qIzELlDAYU+CI9ZTT2lCzhWtP+o62sP6mHiA5hnQi2b08fMJKWgBV5GeIoCQvw3mtOy09eOdVT3Un3ZGSUAWQF0oKFrxJJKRT3bIRjzCojLGD4oGK68+opdMeVU2jaeNnXmgwy6H+gHY4YVEjTxpZRMXuBYn9F2DXJkJfrtFkbs53kEZc+vJD1ObiV5nZmCcryklaEsAQSJBMQFg4tYQlYpQVo4lmIUBHW1HEV9IXb5tA154/jGz5kkEHYAO1/+rgyviYRlvLcQt7Xb9RDQnXn6Gvi4hqWl7DQAeOU5UWQsIAEEvDPYaFgjF8tjOkANnEYJNHEHJb3DXTxGaPoXz8wj86aO4wy+/tlEGbA2HTCiGKaPamC71yNnaxZl+rtN/o5LHO/sSKvGLnAGRIqzBq0shDGH47/8sN5Uj9AVt6zEep4gqxwVsIqHdu86AGTi49cP43+7cOn0Lypg3orO4MMwgy007mTK+ird06nD181nrfj2PqNOq62b3qhTQ9h4kgE4n65HNZbNQmACbXkhWua+114SUtZOJBvrABDuCBnQBIVmtSXb59Ln7hxBo0aVsKjZ5BBqgDtdRQbGn70uvH0xfdNcUYGvN844WoggrdzRMOrUGj7p/esBeJo4ln1dXln1qsXcWVSHlcUhFH9NKalSUdc8ga5f1dXFNI3Pnoq3XbFZKoqLzDlIoMMQgm026qyfLr10jH09Q9Mo+pyOIpkjdyq33jPEcjISklcANKy4gQDtDJEWHQcl7BwURwaGDMpaEAdDwXh/SeFt0CsHkoBFoyvLfBV9Y2PnkLXLxqfma/KIC0A05trzxtB3/zQdBo/go0WuEKSnH6DfqlVLMQclDYNAOHiUEDk2UqWatKdQ5NhAcnkWfSku4UMBqPWJRDjZB3yMWdKNX3+tjm0aMFI/juDvgG8arZ3wk3vCX7uYAfaID5JZyxF+gZYhQFbrfEjirnZw5Hj7XFMcgvo4xj7qC8NteGoBTT5zZp09Z8kj4gboju/Ej7h0f6wBMxyrArE6QHuBS9wLTq/+DJ46vTB9OmbZ9JZc4e7VzNIJlAdtY09dLypm47U9dCuI12072gXtTHSys/LolGDcmjCsFwaUplD1WXZNKgsh2m87s0ZJBVvrauhXz28k1ZtqYtehxhjv1EhVqVC79NdI0ubX3ZZTlh+WGTWTUBOWICFDIZYmVwG5OGM2UPpU++dRQtnDXGvZpAsQJs6UNtF2w920Rvr22nFtnbaedi/dXsEIxlxLZicT+fOKqTJI/No9OAc5ytXBknFuxuP028e3UHvrD8eXDxt0W+S2UftNqHQyEF+JcSVUz3l+hgs3QF9vF5vDVLDUdyLB9DLsGJzxQMh7fNOGUGfvWUWLZiRIatkAo1v95FuemNDGz38Rgvd/XwTrdnZQXXNsrqOoLH1BG3Z30WvrG2nAzXdfNgIDwVlRdmZxeVJxKghRTRueDEfGu7D3oharjCVuz7c1Ee1dlhRiKH+WZ5zqqe6hCVgRVzqONxbQ252Yu5lGFAgxsk/AU86l541hj77vtk0Z8og90oGiQJEtfNQF72wqo0efbOFHmJktXFvJ8mWi+oAzWw3GzYu39rBz8ebevjQsbwY854W9ZyBEcMHFdLEUaVU29BB2/c3u1cV4EWuK3d9nej6qENYrM6NhOWFuQ0ECUsgTuKKmnS3kgGY4xmJi6V15blj6fO3zaVp4yrdixkkAiyt2MGGfU++3UoPM6J6Znkrbd4HX00xtcIA0DT2Hu2m9bs7aNuBTjpc10MFjLgqSzLElQwMqSygqePK6HgjK9+9TeyKue/oYV8nop/2Trp7GSsJfCAnLAjWTHwFEYkXn3sZQB1uo2Vdfs5Y+tLt89jbpdy9kkG8wAomEMlDr7fQ319tZkO5NtrGiAtf/5KJDvYGPlDbTZv3dzLy6qR9x7qpuCCLBpdnZxahJwjYak0fV05Hj0PTsiAtAW0/RRjagDpONGGxIaF/tsAoX0AeT61heWFFXE4crXsZALKMZKgOk5HXxWeMpi/ePpcmjs6QVaKABvXnF5ro3pea6e1N7bTnaPKJyg8Q19H6Hk6SK7ZB6+qiMjZMHF6V2egjEVSW5tGUMaV85+mdBzA8tCxM60JXxytQEZYXcaSTUzX1OvXOz15YCs/JwRcgBWFBhrXmpo8j8gz/VV+6cz5NHlvBxNrlMYNogI427umgXz3VSHc/10Qrt3ewYVp3wkO/WIEmg3ktzJe9ubGd1u7qoOrSHBpRnSGueAGf8ZNHl9K+o62053ALu2JZkMYCRzjaRzAe+qZDWM68pRYxckHW7Pf4N1L1QmQK8IQE0ohcgP0THJA1SjdS9d0YkCOgDGCIhJ06YzD9CyOrGROrKDvTomMG3h3rGVHd/zLTpja3U0NL0AncQIK99/iXxLkT8um2C0u4aURmqBg74KZ4065G+p+/bqGVW+rdqwokQFQCCCkvzeUunrv4S08SV3q7WqZA1pyb/sIkRkfEr2AykqvREThgA1XAjsYW1c7PvpsCYgMXJMjiJPWVD8ynU6ZnTBdiBSZCN/KhXzM3UWhtR3mHG/m5WXQqI6wPX1pK8ybmZybn4wCMSn/ISGsjIy8lQFhWoyB9Py0vyaVWqR2WJH6UKLk8gayJV/1R2lqh1lmvKfIgXkt3DotCQpRxI8roy0yzuuzMMZk3riWgmje399D2A110/6uMqNa3UUsKEJUfeblEC6cW0PsvLKUZY/KolNtyuYEZaIEX1fPvHKYf37+VDw/BSxFo+pHol1oiw3UhMIsqmIbFDUcl0wpaTgGQhiKtnCrNpLuXtALkJYQKuMKVXwl778U9wYz0QlkgCMriLo0/esNMuua8cdzeKwM98MWvpqGbD/3+7x+N9Gt2bGHaleqbSNgB4oVJxLPL22jL/k5OWIX58CGelXl5GYD+M3ZYMd9FavOeJkYoYnUCyk30y/j7pxdQWhyzBveCBFriQjqCtDzklVM15bq7bDNhk4BDWCpLd8AiLUV+4CLmtsun0K3sKMp4XdACNlSwKl+1o4PufqGJkVUT//rWlaJE5QfaMIjruRWt3FYsj3+dZsRV4JwzkANf8SeMLKFO1j+37Wum1nZZg0D5GYgL0PCGDWEBWk7xIoqwvDCQl4m0uFlDNjQsXU4hAwUC6OUJlBTl0fWLJtCHr5tJleUF7tUM/IAJApbPvLmhne57pZn+8Gwj79DGrzUpDNhvLVnTRrsOOyYY0LRKCrPZ8FHflk9W4MMYvDw0NHdya3iYHwRh6Jc4PJqPHw5hwazBop+7MJIX+CVAWAKKjAAQrJrf6t1I1bg0xwtNPCYDb89Fp42iz9wyl0YMKXYDMvACHhK2Mg1qyepWbvD5wOvNfHEy2tTJgv1Mo1y2tYM9dyfVNzt7UJYVZfEJ+wyiAb9wE0aU8DWHew63eohFBUMZ+vp6hLDcCxx29aAjLjVhARaE4yev+C3dgWAc3DZrUjV9+c5TaGpmyU0AIKoNezrp6WWt9AiWz7AziCpdhn6xAnN2B2u7ad2uTkbgzrIfNKuq0pyMxuUDNm3Fbjzrd9TT0ePt7lUbaMrR7edywhIw14OKtPSEJWBFNk4i6kl3BsjRqJERRMIHVRbS1z9yGp0xZ7htNk4KYH5gzc5OvsYPC5KxfAZDIliNZ4AF28TJavPeTtq0r5Mvtsac/NDKjGsbL4ZWFdKQqgJ6a10tN0NQ8IQE+ohyB34y6OX4icuOsLwwsAbISklYgBVpOWFoWF/78AK6/JxxfG4sA6fo4H/qTy82cbLC8hnM4WSISg4Q17EGLPvponW7O2kDO+DaBj65MsbGTjeElgVt6/VVxyIakVXRIBIYKRi5d9I9QcIS6B3BxUxYAorKBsmAXIw7PwvS0pDXR66fSXdeM4M//MkOzDG8s6WDfvFEIz34egv/+nekrjtlzRP6Gxgq1jX10O7D3Xzp0btb2rmHiNGDc096n1yOq+VSpmT00Motde5VF8aiQYQgafUSFhjL0M8dGBPiiI+wNBnwDglV49AAJHLOO2UkfZUNBStKsSvIyQtYCoOofvxIPfecsHFvF3eYx/eEzSBmoP80tZ7gE/TvbO6gt5iGWlKQRSMH5fKX7ckK7Hs4Y3w5bdnTyCfho2BdLJGIUYQlYEVcgDo8fg3LC08G/HNYIC2jxTzgkTG0upi+/4WzaezwMvOzpSlAVPji9f2/19NfljRx04TmdhsVOwMboN/gg8XB493cEyqIq6I4i0ZUn7zEBZKBd4cly4/ydYABoFjQ/rTF4wQ6hBWPexl9IskhLMDNiHbSncFEXHl5OfRvTLM6c+7wk86SHWQE98EYsvwXI6rfPcPedkedYV+Gp/oO0FbhneK5FW1cm60oyaLBFTncnOZkemHiWctL82hQeR69tqomWjuSQVM2SsLyw1jA0eGMsK5lhJW8WtERlknbAkHddPFkuvmyqSfVUBDa1PFmEFU7G/o10G+ebuQT6dACMuhfYF7weUZc8MuF5T4VxY4B6skyzwXtcnBlAXdesHl3o1qjR3EgTFosWColPI66l3SwIi0nMYmGlVjFoGLx0DpLdxlxwchv/tTB9Kmb59GEUeUnxZsNVtmH2JAEQ79fPtHINKomh6jc8AwGDtC4lqxu4x838DWxqCCL+58/GWy5iouwNVsBbdnTRIdr29yrCiiKI6JhKVktCAviUgwJ46+UXg3L0tJdkBcs2D9+0xw6ex4bCrL70xnwkoA9/F5f30Z/fL6J/vxiMyeqDMIHeEJ9fV0brdnVwTeHhUlEISMufGFMV+DJKsvyqbAgh9Zur6emVsu26SmS4JAQgRbkZeAMzRyWZQI+SIeEhkxgmcB1F06iGy+aTOUl6TsUbGo7wQ0Zl6xqo/tebqZHl7byBbzpBGgh8KCAKk+nL5nHGHFBE8bGGY0tTr8oKXS8RKQjYJpUXZFP9U1d/MthTI4dWZFwwmKjLPmQ0lBmaDwqK4TYJt3NlaOcw1KQFh8KThtCH7xuJk0ek55Lb5oZUWH/PiybwTo/eBgAUaVTh0bHnT8xny5fUETnzi6kWePy2DAqm441dLM3rRspxYHOByPUtbs6aeOeTqZ9dRNTIvhuP/ns+c29I7VQwhSJsuJc2raviQ7WCFMHu6fs1bC0PGchy8cbOVWTMenOoCCUaJjjaL8SIg0fc8K/1W1XTKcLF45Ou6Eg5qhgoPjI0hZ6jB1YPgP7n3Rb54fh0XmzCujjV5bRJacUcZfG8Ao6bXQ+JyvsCi1rDqkKvGhqGnv43oyb2LH7KHu+rhM0rDIn7RZaV5ejDk/Qpt2N1Nzq9Z8FgI3kzxsYEmqLxaLMXM5wvxJKoCUwhMkzqyUsH+D7HUT1gWtnUEVp+riMgfr8+oZ2umdJMz3xdgst3dTBJ9fTcUEyWsDIwTn0z++poJlj83u/pmGiuqo0myaNyKOVOzroaF36fUxAZ8SmGXAkuHlfF1/2g2Y/elBu2kzOY2iIzVn3HGqhXQebGVnLajH4rME5LAbrIlFHlBOWRBMKQh4WC2FNHF1Jn7ttPk0dV+VeSW1gUvaVde1895mn3mnlZgoYQqSzVXpuDtGiuUV0/Vkl0uaCTSSwJAa2ZelaDugqcGcDTRKeM97Z3M476qhBTONKg8n5kqJcrmmt3FzHd5SWI/o5pRqWXMfxQR9RrWEBWsISiI5jS1hlJfl06+XT6KrzJ6S8jQsspmEt/dPHGvguyRgmYPmMfvyeHoAmceXCIprDhoEqwBj2hVWtaalheoHqFst+MGe5dFM7I7MT3Ho+1SfnYebQxIaEG3Y26NcJu3wg1bC8MBaHPIJ+0givDnEoIcJ0caKBifbxI8vp1ium8TVMqQp0xBdXt9I//aqGvvPX43yrrCP16TWZbgKaVXGhvg5Li9JvQloHdJfaxh5aw4bC//NQA332lzX08BvN/CWWqkA/vfniMTRuOBxoJoEPjHSBCOIAnHNvS4MtlBZJJK2ighz66A2zuI/2VAQ0qpdWt9Enf36MvvL749wqGm9W5dskjYEa7zZoTt2xfBJPI0DDhs0dhonf+1s9fewnx+jB15upsTU1GwqGhR+8egLXngSgQQYhrhnq3SoaXnWI4LzyskFURrISENqWkbz08hbOGkZXnjfB/ZUawEQ63pDPLm+lT/y8hv75d7Xcq6W2KE4C4Plrm/SMhS9qJ8PwWAeU045DXfRfjLg+8MOj3N9+TUNPv++unSiuOGs4nTajij0PYw12YLQkJy1AkA2giGN8fO/9J4JDQisCs5rbkssoLc6jL925IGW2ZMKwDy53MYn+T7+ooa/ffZwRlWri8eQDdhXee1RvaAWbs5NR+1QBm4T88MF6+tCPjvJdt/ew8mtuS40CQr/94q1T+UQ8IEhLDi/ZCGi4BUGaYCAw6Y7ZBrFcxnrmwZNh9aQ7k8ai3XnNTHrPxZPda+EFhn17WMN6cVUb/e/jDfTwGy10lL0RM4gG2ldhXjZdc2ax8j326NIW7l/9ZNey/GhsPcHnPbH0p73TmQuEsW3YbbmGVBVSfVMnrdrqc/bnAgSmnnTXPBuCcKCdKKJlc13VA6+GZdS0BJQqoRcnaOzwUvrIDbPd3+EFFr5iU4fv3l/Hv/zBJ7hlSZx0QNXXNnZTk2JeBuHQwE6mDxGxAl8V4Uro3/9SR4+80czLK+zk/qGrJ9CYYUXur2j0DhGlz4CL3sMD7yVfkIAzJNQQjiAwLXnh1dorQx4PquT7r5rB2Fn+kGEAHmHnoS76y4tN9MsnG2j1jg72ltA8dwYcUKaxTEUGWPtj7k/TxDJgAKFje7LfP9tIv2XktXFPR6jNQOCC5rZLx6mndpJR4RDhExOZw0IC4lBASVriHn4//yNyzcX08dV02TnjlcOGMAA7q/zphSZ6/K0W/lk6AzswzZ9PIMtQ25R6E8sDCQwTX1jZxl0NbWaafVjn/tCPLzljOE0bW8Z+qeqXMQbjAfWkPIAw7yGBJ0huQOMlIB8cXcv5p4QvCOb9t1w2lYaGWLuC/RQ+OWMjUixWzsAeMFvAEhUZjrPhosnsIYNoQCt9a3M73ftSExsuhnflOIxJ33vRaN6/TTATl4CII4nLLskJC4DwqKFeNMTEPKAkL9zLjlOmDaFz5o+kPKzjCCEwwb50Qzuft8qQVezAcKahRU5YWLIiX3+WgQ5Y5vXaujZ6fmWrcn5woJGXl01nzRlM86fAywrq2FvP8jq3Iy6EgwSD8dSEBWgEy8hKRlywkL1h8RQaMbQ0tMNBuMV9iGlXWPOWQewQBpIytLCXQYav4gPKFF+nMQlv7OMDAHTnEYML6brzR3lWrCCjOPSd3Y60gmCpiAQAhRAINyQAspKZQZw6cxidMmNolHVsmIA3GT4t40tgBvEBjU/l4A0Tx2HsbKkCePl4YVUbtwcMI9Cv50+tYqMorwMDr3akzre9thWBR8NCgCAchRAIFwlIEgJpef/hC8LFZ4ylsSMwMRdOQAOAn6rMZ/f4Absb1dZYJ9vOM8kGuhlWV7SE2LB0zLBiWnzaUM8XQ8EN/rMcXtKSExiuOYdvSCgCNC2Mtz4WR9IKccVr9TprUjXNnz6Eigocq9gworGlh2tYGcSPgjyicUPldTyiOvyGkGEHVlrsqwnvLkpYGzxvciXNnFDuXhHw17v6AYS2pbaaB7IoZ/ScG+/Kz4PfHu/BGhk//NfZwcaq+bniHB0HewoWMnIqKszlDtyuXzyFLjpzHHfUF0ZgbmXpxnZuzZ5BfHD8YRXS7ReVSt0EDS7P4SsE8Ik+o8XGj+qybDptagHrV+6FkKG0OJfqGjto864Grm2Xukt3sOoFL6xevpAdnD9wxpZquiOLsrENj/qAab04ZOHsYK0w6uweY0eU04KZw0K9qQTeWCu3ZdYFJgL4efqna8v50E8GvDA/c00Z07TC+dJKFcCraVg1LKCsOI9OnVZFY4cXOxzAMssPHXeIA9whDlm458hube+k1vYui0MTr80Nc89dXT1sODiIpk+odh8nnECBbtybIaxYwF6YVFKQxd/4IxkJTRiWS4PY3zqAzKaOzuPxcR/2+NNq/hkEgFUXYTfAnTaunGZMqKBORjzY5q+NHa0dPe6Bv2WHCHePdnbNc7S513DGkVM1+WrP4udYWpE8LoYFo4eV0jUXTKLTZg1zr4YT9S0n6KePNob6zTWQAKlgKyt4zMQc1bQxeXxnnDOmFdBZMwrp/DmFdMG8Qho92DxHObwyh6aPyaeZY/No4vA8fs+wqhxnZ2WmfOFrImvnGSiAzTwWsfIeysoxrMB2fQ3NnXwvQygtzs7P6FzgCnFWwcw9mN/KmnD5ryXd1XyzKg7mqy49azx98Y4FNH5UhXs1nHh1XRt98f9q3V8ZAJgjGc40oVGDchmp5NCYITm95IJdYapKc/i8VaLohHV8Yw//bH+gtpv2H+vim8nC5mjX4S6l5fzJjH+6tow+eEmZ+yuc2H2wmb77x/WMtOr4LjvRa3Hj5xUBn4blh00CAk7cytICuuLciXTBwjHqhZEhwSNvNtOanRn7KwBv7tOm5NMVpxWzo4guObWILp5fRKdPK6SJI/J4eElhNqtT94YEAU0c8kCEk0cyzW1SAdfesJ/hdDZ8HMNIEh+Xm9tP8KUqGTjbqV3O6ifMgL+7PYdbaOeBJk5Y8rWQtrwQjJdTNemqu8wTCjbhjso3gWlV7796Bo0aGu43AfC/TzTyHX1PVqADYPOI684qphvYAZI6b1YhTRmVR0MqcviEen/NNSGdIpYeiBHzXSCuWePyaS4jseFVuazxn2BD+JPb60Nd0wl6/4Ul0q+xYQGUFNTlhh31dKimTbHKIcIXZkTHcTQs61apj4e1gqfPHkG3XjGd/x1mYNnDTx5pOCnnTbApxJnTC+mOi0o5UZ09o4BrOVVlOVYLWfsDINPBjDQnDM+jGZg7m5TPJ/hRb3BXczLWGzTNi08pokHl4e5bVWX5tHFXPW3d28TnsvT8Ehv3yIeExgTk7Diooojex8hq3rSh7pXwYtnWDr7JaX+huCCLay5T2VGQm0VNbSf6vdNBg4EG9emry+m6s4tpDtNgoNFg7zzrd1Y/A/kSmhfK78zpBTSdEVhdY4/jK76fyxBaJzTABVMKaGQ1CBRft/pP7cPHD92WamEAbKaa27po2YbayG7RqEioxwmRV5aBsJQJ4FqQtLB11xfuWEAlRXnulfDi6WUttJyRVl8DZgDYuv0bt1bS7YtL6SL2hrxyYTGdwoY62OIcfrf6epiDEcScCXn0pRvL6dYLS/mcFDY4DYs2ZQM0QxgOVpRk0/jhufwL5ajqHL55KXxI9TVQhtMYUX3tlgo+8X3B7EJuMIsDnirwwaA/XkB4/ovmh9dNk8CgigJ6/u1DdKzOs4okCaSln3Q3ChakdYIK8nPpojPG0dUXTEJg6AGvjgdq+t5R03j2RvzOnZV8Pgb2Rxjq4DxmCCsv1vDgNBBHX6GsOJu+enM5femGSm5OgPRDPAViBczhFBdks6FiPl19ejHXELGDUV8RBorrrJkF9N8fqWIaMqtHpmUhTZRlNRtGn8a0rRXbO7jXj76mztpGzGOVhr4OYeKweXcDbd3TyOpFUSrW/BKB/psP2FD5+hfXnTPWCy46bQz/O+yA/yvsFdfXQIM+mzX0SUyj8dcNfleyt+X/+2AVXcq0LmhiyQJkY+iCHZkf+rchdO2ZJUw7MbSPFASeB4T8iSvK6P6vDqGFUws4kSQT+Cp67qwC+sFHqjk5ycoQWs/lpxbyF1FfA8aTpl2KwoLzTxnKl+lJYWyMQbIC7PYlFMSlJC+mAlYW0RlzR7q/wo2Ne/vH9SwMIqHV6IBhzr/fXknnsSGGyuNBLMC6rSkj8+jbTOa3bqsM/QRtsjCWabI//kQ1ffqqMho1KEe5VCgW4CWycGo+fY+9VExbzY8ZkpeU+jMBc9jLt6bGYv3TZw1iQ0PFfJsFp7BA9wCcc+973UtaWgITCXgSwqfM804dzW0wUgGrmPqOiu9rQBO22W8OmtjXbq6gM6blcwKLB7irsjSbFs8v5GS1eF5R3LJsAMJvbbf/cIDmgi98ffmiwFDt1kUl9J07KukcphVhni5egHxOnVxA37y1yrgVP1Df2qP4hJ9cwHJ8y/7U0LCwd+E5cwebbfe0pAWI8BOUUzn5qsAcVpZEFQvAo9LBe8M/f2AhjR4WftsrPPr9rzTTzkN9v5gULg0x13LOzEIjeWA/uplj8/m82sHjsU3gQhMYPSSX3nNOMd15USnXNpI5/EMxtTGyOVLvTC5vO9DFhtQd/EvrSKbNwADUBMxj3P9KEx1mz3aUyYHrZFhBgxhwJCu/eHkOr87ldlwgR6Sn8oaqAurqdPby+NIN5TSWlaspb1jj99BrLXyaoa8n3tFmkca1ZxXzubywo6Agh558fb9bLqgHQ54NhS0lLAFb4ho/soK+eOdCys2N/43WX4BWgD3g+mPpB964MF9Ap0bD1zUw1FN5STZNGpnLd6DBchWbbZ7Q2fH1CkR19RnFfOlMMoCOga9f2AAVGunr6x3/4vB7j12F/vFuK721qZ2uPbOYz+2YAHkf/3kNvbS6jd+3akcH1xT2HuviRIh6wbAL2mYyyKu8OJubH5QyLQv7TIIgbV5QSP+sGQX0yavKuW2aSTuAp9Wl7Hn+/lr/udjGcBdTCNCoww58LfzHGwe46xkHlpWraARawvJCR143XDyVFp8xzv0VbmzY20lPs84W61s3XmCCH87XMDELi22dMzvUUVWJ4wGhkQ0xDrL7OjTaP2SdOiWfPnRJGZ3PGjC0tESBDrhxbxcjqHZ6drlDTCCpN9jvrUyzwpcwr93Rhy4t46RgAjSfe5Y08efB/dCyth3sohXbOmg5OzaxeoHWi+sgenh1SHRpFybB8cEDy3+O1PWwF0G3dtgGW7kL5hTyZ4K9nOlDCNrQG4zI736hia9/1MlOJvCSmjoql9ulhR3wh7X3SDOt3iLfJdpIYD7iyqmcdKW1pbuKtP75g6fTmOF+b4PhBHYiwRu+v9an4a2ORb7onEhzaEUO/7KlKnJOWkxLmsA6GtRoDBFlhol4y0IT+PgVZXyuJdH5KuzMgnJ5+M0WevLtFnphVSsnk0NM00P6qtLCFzrbL3MPsmETNE4v8AukjqEbPoas293Bz9sPOevQ8NEgEY+lKBcMkbGAe39tDydcGbFUMW0F6yhvv7CEabl6skKd7mOaITRNTC9giNyfm56ijeDlByPaVAAMSR95eS/Lt6weLevWvZcRlkfDwkXUhlRwBF7iwtfBr37kTO5tNBXw0Ost/G3e13MNXqBI69lwAQ0bB+ZzhlXnUKGio6P4YfKAIQmGWxiadXQyjYrFx3wJws+dVcgd48FlSyKKSFNbD/da8ecXm9xhXgffOt3Gehvpwmre0Fx68TgjQtMGtUgXHhw27euijXs6aT07UH6Yl4qXlOH9FvdPGp5Le452cZfDyPPg8my+/Afa1I3nlND1Zxdz+zjdMBBDy+dWtNK9LzXTklVtXFZ/aVYCIHIMny9bUGwcsoYB1eX59OCLe7hfKzVQtyhIfR1HExZg2fpAWnjvLlo4lq5fPNW9Gm7gTX4feyNifmgggPSxMea63Z3cZTA6C5acyAgH1VBamM2Gh3ncvuii+YV06YIiOsEa63A2xPniDeV8nZ1dbQWBCW/4sv/t0430xNut3PASZBLLVzz4yvrwZfYfWp5hQ0uQkQ2QD8wzwqh2PcprfycfeqK84plsRnliQTcm4/cc6aZ5E/PpC9dX0OWsTBfPK+TeIjAMVTV/vODgRO+XTzbQU4zY4QG0v6YV/ECq+JgDDRtTDWEHNKw12+po295GVr66ujPUK7s3SFh+aBMg+vhNp9DMSYPdX+EGJnkxHzOQvpagLWCz1n1Hu7k/ecxVzR6nNmfAcAjDFXRUzMXABQu0K/isigdo7PuYlvGH55voniXNtGF3F9ca4tESBjHt77YLS91fZry0po2RRWyf5JEvLL3ZzUgG9kfH6rvZEC+PT6rHCjTlSjbchgPCs2cW8nV5eGmg0+uGnfxDzbON9OunGpl2jqVAA+81Atr2NKYZ4qWVCoB29eK7h9xfqAsDOXEE45hrXVMzcCB/7qmj3V/hByZ1w7KzMxzY4evVn19spg/96Cit3Wle14jqw5ehQWwoEw8wnHx5TSv96++P0wOvtvD5MeQjXthMtntRyjSyeAGNEPn92yst9NU/1PKt2eJxGYwcgKTwErDpM+t3d9CHfnyU1xPqK5HySibQjrEWNVVw9twhXNMCQFbq/Qi9lRKMY9fiIJwnEC1g7rShVFGWGhN/ACa+w7btNzoivr596n9r6C8vNvGvdH0B+JL6v3800r/dXceHM8noeHBTEwsSMeQUQL5h7/TVPx6n3z/TqNwiP1HAsPivLzXTJ35WQ1uZZh7tOXPgAS1v4x58mQxXvlSoKM2juZOxpT2oxMmzeg9CL/BbHLaEJeCTdcqM4SlhvAZgh+ddh7oGbN7BBEw2/5oRyg8erE+qPQ/mgjAP9I0/Hae72TAwmV9Hy2IkrFgJTgfU5++ebaK77qnjw8xY5t5MwF6VP364ns9X2Xx8GAigr4Osj9b1DWEnG/AMMm+qd3doB3ry8iOwkaoFegWfoPlMw8oxGauEBHuPOcaDYQYm5Z9b0UYPvt4cKeYEgCHTsm3t3G/9mxuSv/4s5iFhEjQsPzA0/Dx7vhXb2+MaIsoAcwXsthxWshKAXdm2A6nh4huKzdzJQcICYiGt+FoQE1xSlE9Tx1WnjIaF+avaAZxstwXe7mt3dSQ81MEaRnx2/zobOvWV+5pYNaxY49sCGta/3X2cXl7dZrV2UwdooGt2dYb+5QZgmA8TlFQAeGLq2DIqKcTHIjUxgbR0xBX3K2/q2CoqC/EmqX6kgoYFoKr2Hu2mNze2JzR8BUn939N9uwQJZhexoC80LIFjDT30q6caEyJnaFQw9djdj1briQBTB7CwV/qbChmw2erkMXZmMCrSyoa21HvEgFmTB/Nt6VMBeGvChxAmKlMByCs8oh6ojb/zwfAUNkbYpquvEIYhoQBcyly2oJDvcxgvYG3/6JsttINp46kA2IYdqe/ma09TAYUFOTRzgjPx7ryavUcQQtvyal3RtYuLboAJsyYPocL81CAsWCMfZRVr+WgDjtzcLBpclkPlCXTwkYNy6YOXlNLnryt3fW25AUlE7F8Jkz8kxBQqvGF8jj0nXBePstjUVQU8D6zfk+FLq79wtA57OqbGsBB7ls6cqNqr1Nw5QVryHmEgrkKW8IRRlZSfF3+H6k+AsFJpO69xTCuCtgDL7EQAzwMXziuiz15bxr05xGu/pUKsZgrJ1rBgmY6df7DBKHaTMTnZM2FweQ7f9w8+41MFR7lnj9Swx4Ld5viRJZw/5ADn6IlL34IUxDV8cCm3v7KzVh14YKEqFr2mAkAC2GBh3kSUr3sxQcBjwfsXl9KXb6ygeRPyTQsgrDGQGtac8XncX9Ud7LkmJ9FrAZbuYKlOKix5AbgroprupJp19BXQnitK8mnYoEL3igqCuILcY64VSa8ZM6KcigtTY0kADP5godxXBobJBIp6wvAcuu7M4oS1BS8gCXNaF7KO+C83VfBFvnClkihinsMq1DkpsgO8isIHF54Dm3jA8j95JeVopdecUUxTRukXQYcFMDTGCCJVtvYvLsyhMUNtd68WNRshLlYl4keQzTiEluXRtMYOB2GlhtoMP0jwkpkKH1KgXWH3Zcw/9QWwXm7amDz6zDXlbBhVzh0LJoJYNSb4cSpIgIhHVOdwDxXI+4yx+UnfcEIAQ/Er2dAwkTnE/sS+mi46VJcaw0JsVjN6WIn7ywR02uiO69aI96KmZ7vE5RBWamhYxxq6+defsANdb2hlNl21sChpQ0EZYDaHdXQ3nVtC372zik6dnM8nruNB7HNSWVQSh2aH/GHR93+w/N5yfqnj3K8Pywjlfyl7cYwaLN8lJ2yAtXttinwp5BqWNWH5EZh0B1npayibtZ5Rw8tSxqQBw8ED7A0UdkBbwFCnosRe68Fn7Xj9emG4AxcrP/xIFd18Xgn3fhBr34zVDgudvyQGkkN+4OwQvqp++LEqOmVSftzDtFjLCt5K38vKReWzLEzAHC0MSFNhFAHThlFsSBi7N1mHmyTVjwDvEY0hlUVUVVYYR4L9D4zvoV3BqDDsGFaZw+dObIFlPC+sbKUlq1v53/GiojSHvvyeCr5rz/hhudaf9NGRMcSLFbYeG2CGAU+hX7mpnP71veXcC2u8gB3e6+tbCS6fY1luAy0LeQg7QFR4MYdtYb8McKZYWZrHeCQepwlMwwLxBA/Hn7Zz4G0cCRs+pIRKU8TCHZbAsHBPBVx/VlFMPp7wVv3fxxvop4820BNvtyT0UYEPgRYU8X39sPU6howm2Lpn8cPm6xsm0uGjHvm5YiF7GycwLoOxMBwH/ujhBvrZYw18GY8tZWEC/n0XxDt86V/sONiVEi9moLQ4l38p9PKK9YGhHQ5MhkWOHPec5x7idy6NGFzK1PrUmL+CB00sswg7oHVcusBeu4Lm+MBrjudUfCH643NN9CD7zY1j3TjxAO6Bv31HJX340lLuNlhnbDp7fOzeTsE72OFHBaQ3ZWQuffDiUj5fBQd7iQCf/GG5/ttnGvmHF2xwcd/LzTG5isGmFIPK7F8kAwV4sk2FpWdASWEuDa8uoqL8bPdg/GJ5ZHd19RCOTs8hrnV1dbtH5O+K0gJOXKmA46wCoYmEHWfOKOBfwGwBv/DQGgQwHMBmCH9lnXE/e17PB92YAa3i5vNL2DCxnGlbRVKNCNdgqBmr4oP40JxGSp4V2iXI4Us3VvDNUBMx68Dzg8j//moT972OvwWwVRl8xdsCz4ovt2EHrN3xwkqFeSzwR0VJnssrvqNbf+SUjr/sru6eHoo+sKOv/Dh7/mg6ix1hJy3sYgIf3NhYIcx1iCE3Oil2dbEBnuUXbCgIv/BeYG5m5yFnvSQ0Jaypi3ckBdUbmzbMHJvH/bZ3Ms7HQmxoQPAxf/1ZxXydIsgtFiA2hpKYSIdXBWg6sAebPiaPrlxYRLctKuWbaiTiAYQ1Ue4CGs734Kvev+kF2gU23rgoBsKFK+in3mll7d+9EEIgb9CKYbaSyC5D/QGMENZtr6NlG2uiuIUfLAzPErjuHjmVk66IaSPVS8+eSAtnj2CNN9xqcgPruHA3gg07w4xJI3LpE1eWW+8Is+NgJ/3ssUap7ydMLu860sU/c2OyuLo0/s/yuI9vRjoqn29IiiHgWdML6RLW0WGAGu8yG0zUTxiey+XOHp/PfatDgzlvVhF3XRxvfgHWnmnXoU76PRsiQ5OCL3gZ8CEGW2TBT74NMKf2zpb2KE0tjMCWaKdMKkj6EqhkA++jLXsa6c01R90rCkgag+OtQQHsioN/Anl52VRZVkD5KbClF76YwPVG2HE2Gw7GMvx5fGmL1usENkx4eW0b/fTRelq/p8NTe/EBGtbcCfl01cJibnZx+jTWIWI0Z/ADmhmWwOArHA5swoF0EgGeE66ff/JoA724Cn6x1E8ObfHhN1rcX2ZA44NVfdiBiXf4Uws7wB+VZXnml7SEm5yWhwAL4iovYY2VHamwhrCh5QRvwGHHWTMKrSev8SVwCdMaTcBQa9nWDvqvv9XRu5uT72k0jFjDNOnv3V9nvUnuGxva+ZyPDdDcT5+Wn9TlUn0B+AKrax74HX1MQHmWFudRWQk+wCCzmgz7uCnyqoQUw5OWFuenxJIcDA2ON3VzX0FhBvYXhO2TLf+jM9p6TcU8ALY1u+veOr7xZzrj1XWt9I0/H+ebU9jOM4H8X19nJn8BbGiLOb0wA9MEO9mooj2Gr6ADheKCHCorElyCDmDIs8tNEcISZOVjNC+KGFkVpIAPLAyL0HjDvoJ9/sS8mBYhw1A0lk/yqEbM13z/7/X0t1eaVNWa0sAQ+Tv31nOPBbE8H8rxeTZ0tL0Hw1h4ugg7NuzuoLYEPNX2F+AbC3ziQOQXZ03eWWWpJyNQk77axPpBtS+b8ABDgu0Hwz8cPHUK5gPtCAs2RfFusY9hwi+ebKTfPN3Av9CkA/DF6E8vNNGPHmmIy1MBtHDY6Nm6VMaXt7kTw09Y+FJsMyQeaHDCYlqWHMi//BnsZ08ZeaWMhtXhdO4wA3tKTh2ZZ70UZvXO9oR2ccEkNGySYBmPFQC2mkXYgHxjOAf/7X98vikht9coT5i+2AAfxUcNyrVaBTCQ2MjafSq4UiqAwaiSsPyINFZW+uKHogV7NC1Hwwo3YSGrxxt7+EYOYQZc+ZaX2NtKrdnZwYe6iQCk9SgbQv3iyQZuGR2PtjaQgFZ0iA1xsSEsLP0T/SKG8kS52pI3fHHBJCPMQJ3uYFpW2Ou2IA8aVi4r+xP8kCN43X1deAPUtYcECqxZcWDQxVr1hpBrV8C4oTnWX50w37JlX3JUfXzShxEkNm3FnnapMkREvWKrNiyzeeytFmpS2FjFApQrOrftomHU1/gUWAy9cntHTHOdA4FCaw3L+xwxupfhhJUX7gqDJfNa9tYMOzC8sLUUP1Lfw+ehoGEkAyC+F1a08c6PIUTYSQvawrb9XfQ7lt+nl7UmrGkKQArIynaBPAgLPrLCjs37OkKvYcEWC65mBNRalgDCs2RzWAjwHhEgkTxMvoQY6HypoGENr86hAkvrdqwPTPYW+52snLBrMiau4UvJdlgkAzoHfOYjn/4DvsgSJUSslfzLkiZuEIot6pMJlKvtelPMhmDNp+0wfqCwmWnjiW4o29cAj/g3sRHDQ/UwERqWsaVGwrEtfXYcPpD6E/hiBBciYQfc8Noux8F8U2t78hsgzD5eX99OSzfaGVvKABlrdrbTzx9roJ893hg4fs4OpBHvGx+2Rau2t/NlVn2hNcRCWFhWVFnKNIMY11D2N1CXm/eF+6WN1QM5Bi6RkZZDcb0BqkaL6yd4AmHfmh4Wz2G3v8IncqzTy7EcXcAtSnsftT/Mdazf3RH3F0iQ6a+faqR/sKEa7MT8B4xWEb5xT3zDdHQ+GMC2JVmzEoDzw8N19g0Gw8JU2FEn7GtoscA+l3OJvl79Glek5HEB13rJKwiQFZz7hRlrd4V//grr5tDwbakffo5ki52TiXheQ9BOfv54A5/k1QGT+z9lGhj868cKDL/6ctoUQ+N6ppXbvuQwjM8QVuIAYUU0LE487qGHvOQ5eQVvhoeGsGtY724JP2EVM8LSOcfzAxPuffXVB+8fbPAAH+axAG+8Xz7RQK+tMw/3kHPYO/3gwfqYh55w8AYL80QXXKuAZg67vWbLITfIM9GF2v0B+PyKd5jfH4BdW5BL8Bt5lucbbU7fCnykxeewQkxYMCJMBYd9sOex9YeOSWZ8FUvWF0IvUJVXn17EXbzEumXWA6+10KNvtVhrfiC1V9e202+ebpS9C5VAw54zPp/ef2FJzKRqizb2jmtsscsUhjGov7ADZBWLo8L+BtewAlxirgPzawuty21hSCDMGtbbm+Kf3O1PYLLdthi72PMkm6ygJcwel0ffuq2SvnB9BV+EHUut7jrcya3MYzUvALk9trSF3o7RgwSGYHdeXEo//ng1d0cD54TJBJb52BIv5h37aj/EZCPWcu5P5DDVXs8lqA9xRMBqPnhRilheiwOEVJi/AvCWtiWsHtaZxIRjPICGIib5z5lZQF+9uYIe+PpQuvvLQ+gavq1Y7J5J+Q42CTQH7EIdKzDnt3BqAf3Xh6ro8buG0s8/VU03n1fM7aJgzwaNNV5zA7wQQFo2QBoo01TAulToD1ZtOxLHV/T6m7uZ+mJbsf0NPPfyralBWLEAxR0LX6EzwQMENhudODyXuzP+zw9W0iPfHEo/+9QgvtceXCgnYksEkhs3LDatTAC7RU8ckdgsOjxqYhj7lZud5/rtFwbRJ68sY4SWz72IgpxB0rb5Q/naTrpDaiK7+PQnlm1t7/OPNfFCuGLvhbGRIzxqDkvc4ATIgETwxg8jMH+VCg77AFSUbTFCE9M5TEQIhiiDyrP5OrezZhTQB9jw6fsfrqJ7/nUIff19lbR4XhF385tMwAtprP0W8Wck2ec4hhWzxubThy4tpV98ZjD97vOD6Es3lNMVpxXRTDbsxXb8pYwkTRqtbauGthvWl7YfmE7Yuj+cc7rgEfhv5xBkhbOBuDStGDdG3wyL5bBW1rpdndaNbqCB5UPGF4oLDIVkHqmxNRi2wVowJZ+uXlhEn766nJPUDz5aTR+9vIxOnVxgvfQnHsRFWOyY04c+pUBKWFSOoe43b6vk+xpiCHzrBSV03uxCvtkFDHb9Qzr8ti0rNP9UmCflYHmFlhVGoAyVXKLpHDG8dsGITMMKaW2t2m6/6n6g0dbRwxfz2gBzMwX8qyKs47N5h7/s1CK6fXEpfYFpEt++vYq+dkslH/pNGtF/O6bEoymB4PrLCR7Swm4357Ch4yevKqfv3llFX7+lgj5+RRndcE4xwZf+hGG5fPgMFz+21uto/mE2F/ACuYRDvzDC0bA0XKLozNlQccUhB647YWGdw0KO1qJiwpc1KWBw2RWDpn7alAK6/cJS3vEw3Pka63gfYx0Pe/xhTeJA2PJih5Ypo2Kbi4J2M2H4wLgZhu3brHH5dCMjq3+9qYL+hR2fvbacPnxZGS2aV2htW4VRRrIWX/c10KWxuL2vVgkkAhCW89LW5A0PIA4XUU3d9DUqrHNY8IsEX9bhy5kcTW32n9GBi+YX0sevLONaFIZi2NcvDMD2ZDecXWzcBBZO7y5bUESfu66sz2ypYgHmvbANGrblv/OiUrqODSGLLQ1TO9lwHvsapgrQ1rYfCN/cLhSf3jks3nMN/cHlpkAteTUuP4F1sNrqxARMyAD/7e0JeOPsb2BIgY8EtqNrfPXqy/moeIG9/TDE+sp7K+h9F5TwCW4v8CHg6jOK6Cs3V/A5tktPtd+Ov7+A+SvME5om5QVQd/XNqdPWsEICWlbYgB3mwSfRQLmKspWUMeMj6WtFfJXC2UtarW1djBjCR1hb93fyNWGpAnQOOKCLvGFSFzAjOGdWIX2EDa1giHrH4hKaMz6Pa174/Wk2jMVXytGDw++WxQqsynp8L/IwA5ywwbdLeBjQzjLWJuUSNBKUr7yxSAlLkJRfw2ppY+PhjvB9JsVCz2T7SeoLgKjOm11AP/xoNZ0/p9DavUzYgeeC3deCyQV8Tuh7H6ymz1xTzvdcHFYV/CqXysBW8D/++CC6+bwSrpmFHV1Mw9rKhoRh80AKxaeFKUBBiHziHMwza0regGAEQAwPW1ox9AoXYWECGw7oQvrxMgoLpuZzTQQaCeZ10kLj8ACT/xi+YmiI50snohLAOkLsT3g70yQvmlcY0yL2gQB6NLbsD9su6CCs1nbkSc89znVxRGlYphvhtB+EFa4hIfws2frkHgjgLXzKxHz6/HVl9M33VfKFvOnYkU8m4EUDey/Mzf33R6rpurOK+Ya4Ya1XeB8N2zxWe2cPn2JyAM7B21vNPQJZYxf/0BfLe2O0CjBj0hD61qcW0dmnjHGvDDwefK2Zb6gQz9508QCNFfZHOAryHI0Cu9+UFDh+kvDpfmgltIxcGjM4h0azhh2WoR+0UP51BudufFbGfofd3EMrJpIHV2TzRdFlxQM7jEP+sHM3PKFiI1iUMYxkxwyB1bqzaBb5w0Jk/I0haRjQ0t7DtX1s6nqotpuOsrKFry3sVtTAXqpwI40dnWBmgMn7/hoVwNbsJjaE/fx15e6Vgcdba4/Q9/6wijbtqnOvAGruEZAQlhfRN40fWUn//tkLafEZE9wrAwtMsX3vb3V8F5j+MOaDceGkkbnczGDhlAIaPzy2nZv7C+gImLNAmcB8AvN7GDofrO2iXUe6ezcQxcE3t/B0HBhT/ut7K+i0qQUDQgSo03e2tNN//LWO5TdamwfxD2MvA5AXNBqcx7Hz4HJnATR/kbCXCJzsIW4Yh9zH6rtp9c4OemZZK63Y1sHLvz+AL7o/+UR1aF6eLy8/SP/5u5W0+1CTe8ULdR4NhOVFFg2qLKb/+NxiuuqCqe61gQXeXF/8TU2/LHrGXMU1pxfTp64u40aTYQA6NwgJZIS3Owwa8Te0Tbgu3n+0m/aytz18hB1kZ1vbL5DWTz9VzXf26W8cZR36M7+ooe0H7edcsKAaQzRos6MHMa12SC53mVNenMVeKNhOCmfHj1VYOiwMUP/2ajP99ulGPsfU18C823fuqArNvopPv7GXvv3bFVRbb7N0KFJnMRAWFtnmMMK6iG65YjZ7ew18xa/f3Unfva+uXxY9nzIpn7+hMCQZKGA4B60DDRzGstjhFx0c1/jBhk8447qt9wEZYPX9OTZ8uOncEvdK/+G55a1Ma67ndmqJAD6/sDQHRq04sCJgBCOxanYNhrfljORwfSDrEx+yfvBgAyeuvsYoRuSo04tPKXKvDBzw3A+8sJO+/ZvlMXy9dPgmG9vt2B05/I3e0NQuMfgaGGBjzfoEd/+1BdyyDGTjBrpZsd+zpJl++FA9/Qcj6m/9pY793cC3oF+yuo17mMQ29ImQFYD74Ud+IABN0W9OEw86mYKGXaLhb/4f77bSH55tov+8v56V2XH63v119L+PN3CCH0jgpQ+D2/4YejewlxymAMKAjs4eamx21v5iraw48nIYzygPZ81nNrSmWI76xjaF/UT/Ak0ay3ES3a7cFvH6cEKloPPDueDzK1rp0Tdb6I31bZxYMESLRZPAcAZfRLHQGxO7fTVvh80BRhqW2/QVJozI48/ZV8A0Aj7xY/NUaGC2QD3VNHbzY8nqVvrLi0304OvN9Nq6Nk4E8do54eNMf6wFbWb5333EflqgLwFzhvqmDspnihD2JhRHHuYhPWfZkVM+/tK7nC9HpgNLSXpo7IhKWjBrJJWXFrjJDwwwX/PkO6395gML7kmw/swWIJYVjFiwzdUTb2PLqza+cenSTe20ZmcH3zcOX8GwOcOZ0wut3rIYhcOvFT4y9GWzw9fCj11RTmUDoFHC/TFcXUM76kvceHYxXTC30P2lB146D7/ZTA+9zl42G9rpmWVt9CojKmhveBFhazksD6tlLyFM/sfixXXv0S4+JOxrGoF82MZhw5F4PL4mE7UNHbRk2QFav+M4HzX4uQaLop2/g2E5ZeMuvoud+aJmm2NodQmdNX8Mn4AfSOAtiX3v/F+S+grNTKVePL+Qf0ZXAQWKYdkTb7fQfS83c41q6UanMePzfEOLs9K/trGHdhzsok2MtLax86I5hVRtOZGPCf9lW9Ch+0azxONhnuPy04qtO10yAe0Ky6xADEkYGUqBCXi45LHtuNBKvnNvHSOoTtpxCCYgPdynGfY0xAcOaGtb9nXxesaXv3W7O7iFOepKtwYU7eWXTzb2207lWOA9e1w+/zgxkDhc20rPvbWPdu5v4P7FZDyDuoeChDOWQonDqTFcxWGBmvpWvkRnoHGsgY2DLXc6SQbwqR178GFC2w804JdWt9Fd99TRXaxhY57pjfXt/EuXasjH6oQDjf7pZa3ODwvg0/2HLi3rMzLB8AReIQbCpEEAZiOxDNdixVWnF3M30bYACe1jpKQDSBZaIZaJPck06h890kBf+X0t32IfUxd+myu0GZDVs+yl1l/AsBAvy4EGDEZr69vcX3KIeUycvXOaORUTLr3L/duBRU9YfMZENjSscH8NDLYd6OLDq/6aHEaDQ5rYdh3zR1Dl393azocJd7/QRM8ub2UaUxfVMCKNdW5pX00X3XJeiWdjST2w4Hg9e5ubOlE8OG1qPt1xUSnfhilWYBi8fFs7047a6Eh9N9+sIp71doX52Vxz6YvNQPHh5D/uqOLGqLb45ZMNvO5tgbaCxe2Y1MeQ8cVVGEK2cw0MX7afX9FGv3umkbdfmKH0FzCxDZ9gs8f3jxNFFXYwzerRl3YxAvWXqb6t4CNFsNa82paH2QSOHm+musY2rrYNJLrBvP38ssB27pv3d9I9LzXR/zzcQL96yiGq7awxo4PFO/FaU9/DiFD/xvECw4wPcFJxLyQRN59fyht2rACBf+vPdfTPvz1OP320kb7xpzr68u9q2VCpU9aMjMDiYti+JRvwIoEF2baobeqml9fY140X+NrKiau2m2lp7fTwG830x+ea6JE3mzkB9rcjQNh+DfQiaPBGXWM7Ha2TlSnyJvIXzCc0LXmTh5aFVibRtpDgvkP1rLAHdliYxzSAnD7osCagWDB/gXkNVD7epsGijQ24/++vNvcOE01AtcwYm0dXnlZkeCfFBixavmB27B9ToOX+mWmZr6xr48tOUDbQMvE1E0Mj2IrFCpDKornJtRmCIewtFzBNNoZ28+Br2CzW/ZEARLvB0DEZbSYeYLOSgXagCJcy+460UA8rBzmQP4QF8ynXsADxSsRZ/O3BnoP1Az6PhYJPlQ0tbYAh3tKN9m9ybN3+vkWlNMLnNC8R3HRuccxDQWgR63d38C+2Mry7pZ1rofG82ZGfZGlZmPv76OUlNKjMnq1qGrrp0aV9b9TZX0CbgRuggQRMovZKl+MIiHaCc3SbcTUsb0B0hF4I4nLJa8+BOmptHVjCgonB4PKBLfxkAhrJg6+38El4G0DLwlo6GB4mY+t0mEvAjXGswEcITCzr7Hv++nJzXEaa+KKFzS4SBYbO588p4OYjIC4boKk/9lYLHW+0q49UQFlxFl93OZDghHXYJSwUrSheZTFHR/D0eFxAZSrvdMBqcg8bEg60hjW0Iod/6UkXLQvDBGgq78SwvTg+z2MjinNnFSSsicC3E9/ROUbAHundLfrJcXgpuO+lJvaMhrblA5bXXH06tD73QpzA2sj3nsu0qxg662GW5+dWtKWUJ1sdMAwey/rLpAQ3sU0U+EIY0LAE9Sgh6iAwhyXuxFldUYeONvKJd+/nxv4GGvHp0wpoWOXAvjGSCdhp/ePdlpi+fGJeBq5Dpo3Ok005WgFrBy85tShmC3PMTWHuyqYZPPVua8yuejH5v5DV8egEFmFDC8eyqplMW7Odu8LkNOoB3i0GsIknFdCg4YutxHKzjb4A+AIW7odrJNMH3nLWlLkk9yK2uvG2tXfRzn3HB3xNIax2sQo9LCvwEwXmeVbv7OQW8bbKCIgbQydsX2XavUYFLOyeODwvJtsrdGR8KICNkQ2wJOa3zzTG/Bkfc06LmfYXD+CjDEawcEcdixsgGPTCFAF5TgeAqCePzOPb+w8kOrp6aOeBRrWbdRQ3Dk1VaehW3C2OaKzbepgT10ACSyCuPbOYhldl6zXKFAImejFJjYXdtoCt0/mzi+iaM4pjnlTNYxy3eH4Rn9+IBVhahDmeWICh46trYzOUhHuYM2YU8B14YgHmqs5k98EIFtMHtoCh71Nvt/D1gemkXV11ehGNGjywo5H29m7asL3W/aUpXC/t+KJl81qxqpnoOOu3HlEzZT/i1Mn5XOUPw353yQCfy9rTydcexmKnA6LC/nqXMI2itMi+LCaPyotZS4UmeO9LTTFbTeO++19ppmOMlG0BDRJzL3CYaAtoFHMn5NH7LyyliSNiGypjHePSTR39biPVV4DN3hWnFdMFswsH/KUOk4b1O467vwCUcWzlHHltWRFXJIEtu49RY9PA79uPNyk0iysXDszat75AU0sPN1bE4tpYANul2y4sofNmFWrXsHmBuHB2F0vRYdE2OnasGgiiY+3kEzFqZhgWnsW0JZuvoRjWTmUkjOVLs8blxWRztedoFz3PXhT9tT61r4H+sHBqPr1/8cC7RgIamjto295695cXEV6RQgSzI/gUohVqW+MJam7poM07j8X85acvgGUW2NATmz2kA1CiWGT71LstvBPFAkzCY4stLKiG/yAdYCg6j5UZ7HNsgeU3D7zWHLdrX5htgBRi2Y0Y2t8UaIKMgHRAB4VHzc9fX04LmOYdi8U+5queZ0NxEDEm3dMBMHvBlvyxDIn7CuCJrXvqJctxvBDlri5/eUu1Ii2i1ZsOUjfGMCEA5ji++8EqvmFnOgCdBloWPD7EsisQOi28a/7LeyvownkF/LcK6NTwjR6LZgp3OZi/irfa0aSw6cUjS1v46ntbwITl9Kn658HXxG/eWkmnTi6IaYiLbMCc5PG3W5SL1VMN+Br43TsruevoMACbnqzeUmPkFBbBd45G9gkNm/HWIRKQJLR8w4HQEBYAEwcsbE2FDS5tAG3kb68007Kt7TERBJ4evo++zcoCfp9kgCkDOnYsZiGwp4JniURX/GNNJggCXhBsga98WLgLgpVh/LAc+uknq2n2hNi3Udt+sJNrjX2xmHyg8O/vr6DpY/ND8zEKrmJWbTrm/ACXGIkLORdxInH1VesnK18iazYf5B5IwwQMG77KtAtbi+awo4aRw93PN9MO1qmMdewDyuDr76vkwwIQlFc7wYr9WGy3MPJ/6p0W7jInxmxIsecII793W6m13Z78pozKpbmMkLx5hiZ13qwCuvvLQ/gOOrHWOsj3SfZcsRjshhkwIP7kVWXc4WSYegDsr9ZsZRqWF9oGLcKi43DCgpYl/sUC+GZ+bcVu91c4gHmLRfMK+eSz7cRz2AEXJX96oYkvb4mHLPAVFZonrJyxMiCfKSn4iqbSVmTYsq+Du9ZJljsfWJDjo8KbG9utbc6wrASEhS+i+HqI860XlNB/fbgqLu+o2GD0uRUt9PfXWuIq17ABbf+i+UX0nnNKQvfCfnPVIerERph+gLTEoYUTnlMx/uJof1gu2PuYRTnBz0qwVx02p7hq0TT3QjgAooJXxcPHHd/dWKCb6oBmA3eyM5maH6sJB76cYe3lqZMK+HxYZUkOXXpqESMsu3V6+MT/yJst3KA1mbbC8MePDwPQ9mwtsLHvIIZu5YygPnl1Ge+c8J8VK2BigY07fv5YY1oYiGIYDANg7IwDP/Fhw68eWEfb9ja4vwzQqP1SwrIiKxfH61vpjmtPoTxYIIYIeOPiK9iuQ118XVisw6kwYtPeTm7oiQXBsa6hRBuARjJvYgFNZ0NBWD7bzPWh3OBID44KDyT5cz+qBLu5wEIfm3zo3E8LoF6x5hELtUHA8axywDNBs/vxIw18yJ0OmDwijw0Fy/kLLdG1l8kGFjz/5+9XUItraG5SgngFKUhL+mhiaOgMEp2/VTh2vJlWbTro/goP8Lywx7l1UQlf/JoOwMT7X15spgdeb457tyCQFjQarBKwARwTvra+LSaPm7EAvu6hue23nPDGsAdrSCexDhpPx0RfeHtzO/3ssYY+3+iiv4AdjuC1A0vVEl0E3xdYs+UY1XhcImt5xatZeP92EbF0lwQKiARUibz45jb3r3ABb9/TpxXSe84t4caR6YB2NpSB10q4bOlr/9wgSGyo8Nq6dq37mESBnbvhNwtfD/sSmBp4eU0r/fTRBm7nlg7Aspurz3B2AArrao8X393v/hUNFZ9wCD7y8VP0O8pLWt6/PZAR10tv76C2AfZAqgL3RHBKEZ+zicWPd5iBORcscfnzC43c1KCvcKy+m15e3ca3uu9LwKcW7Lv2xWgkGwsw/4cNH379j0ba2k9bw/U1YPkP90JXn17EzVjCCKw3fmU5CEvPJ15O8f4dBcZJwacUbKaZ+AK8QvcdrqdVG8M3LBTAMAjeK7G8I12+HKKTP/pWK/2BaVv7a5JPWjBcxfZT8HfVHx8tsDkDlvz0xQQ4JthhuvCHZxv59mrJT6H/4ayXzOdDwZEhMQ6VYfXWGsYPXq+t6tIXxKWb41J+JeQQE2DibxVYlJLiAlp0xkT3QvhQxrSrsaxiN+zpYJpDD7Kc8ujodLYfxzwQluQMTuISDPjPxqQ8VhAUMpKHCQCGbMksNzQpaAZYwH7FwiLu/mRIBUwWkvdSwVzfA687+0TuZZpiCFaSJQVYEP7Za8v5fGQSiyvp+ONjm2jV5mOeAZs6s16iUpFW1pgL/suuCjWEhZBJYwfR47+6g0oZcYUV0BRgNf6tvxyno4y00gX4YjhzDBb8ltKZ0+F9VF1XsQCNDK6b4cMK5hD7a5zNQjGkwrbnWOdo69IZwBdOLNDGhDlswqaOzqOJw3P5BwC4kQExJvMLFxYx37PE2dkIax8jnSa1gXmrf35POff1ZVovOpBoau2k9/zz07Rdac5gl/coIhtzwfdYNVrcqNOwGKrKi+h/vnIlXXz2ZPdKOAHSemZ5C333vvqY9w8MM/CWxX6FH728lC5fUNwnE7DQTrAmDJPxzoFdrLv5Xoz4AACPqTAIxXASGhrmWIoLs6i8OIsvAYIGmMsyClLCkAZmDPg72TkFMW090Em/eqqRlm5oTxs3xwAI6s6LS/hi/2S9mPoKL76zl77606V0vFG3BMv8DCAsMVR0CcsLi0KQkFdBfi7dfPkc+s8vXupeCTf+5+F6PkxIl7euACycrz+7mD5yaRkfzhneM2kHvISw+9D/PtFIO9PkS6AX8Gv1w49Xh3oYKPCtX71ND72wndWJ7WhG/1AgLIkCLnqwpiejl/t6entHFy3fsJ+O1qbGtkhfuL6czplZmBIVHwtgfgDXxZ/+xTF6fUP6uPk1AXv+4ePDTx6tp6/dXZd2ZIVmOp0N+//jA5Up0WZhd7Vy0zHGC6xiBF8YtQN9OLQsxYwBbkSpmBKIBshqyVvb3V/hBoYjd91eyS2D04yzOLCU519+d5x+8UQDnzBPZ6AfwLj1i/9Xw8i6hX+MSDfATcx37qi0XsI00Fi6+iDVeoxFe2FFWuIIgj29SgCuC9KSCMBYw8ecdQ2t9NryXdQ6wFuA2aKyJJu+/J5yvso/HYHP+Y+/1ZI2Ft0qwK/WT5lmBZJORwypyKEv3lDONwpJBWALwLfXHaaGJsXclYcz1PAqTJG4BrrWCJUk2NnZTdt219DG7UfcK+EGOBfr8jCBia9X6Qh44EyVhh4voC3DuV86AsbO77+whH/9TZX5yLVba2n73no2TDe8KLWkFSQrwCUsXPQeKmjCkDgr0cPHGundtftYZlNjGILlO2fPLKCbzimhijSxhPcCcztpOeb1oS+XDg0U8JX1yoVFdNXpxSnjlBL9fumag3TwqJjLNnCK0LbEoYQTpumhqptx3Xt4wBKEr/e1Ww7R3oMyZ/PhBDwAYBukSxcUpY23UoFdhzupx2AtCat5+LnStpcBAkwkbNwWw+1yOgFmH+fMKuS+zMK67EaGfYebmIZ1jBpb/NNCEr6QQUtcJyhn6NTL7splpSM/ctiR5Z5l4Tii4+Tn5XBL5ZFDy2j6xKFuQuEHJjPhCx3zPWj8Iey7cQFflm44u0Q5nEDbePiNZna08B1tuli/r2AdZCCXMCFPMEp9dW0bPfpWC23a18U3i9W5ktl6oIvW7UqPNYIAfFt98JIyvvkG61Ypg1dX7Kfnlu7h84p4UcLOzuEHwRf42394+cQ9WF3DZo+fPfEYYV16VzaTCpJRH6ZwcWRzh37w815YkEdzpw6n4qLU2MkGHRpDQni1hBU3fGilA7CDDNzsyADr9bc2tvM9BuExYfPeTlq9s4PeZte2HOjkhqCw68ICctRvXwJ52cjSf2l1G/399WZ67K1W7nZm1bZOvvgawyP4zYJFvAyYg3zq7dakOhgcKMD6/46LSmnh1ILQeQ7V4VhdKz3+8k5avfkYG6kwHnA1e8ENIC9rrmEdMursHlnjFv0nzJKhbVnOdegiZbE3cy4VFOTQ0OoS+vonF9PiMye5YakBzIVgpxpsq773aGq3fiyO/fmnq6XbeEGL/MuLTdyR3bGGHj70EkBzAEHgvlLXSh2dCJP349l5/FBnOQ3ixQOUMZbNwFaKH2zYCh/vx5u6qakNy4Aca3kB9mLl6c0Zn887MrQPPzBX998P1NFDTFNMZWCh/u2LS/lQMJbt9cOAl5fto+//YTlt31dPlaX51NzWZbHKAM9oTT6UNeb870ZLtG6F8niweMfR3NpBn7jlDPr0bWdSeenA7ukfK2AtfffzTdyFC+Z3UhHo5P/zsWo6d1ZhoEqx/g9r7OAnHusETcCbEUtCMCTDekD8jSU32O9uaCXTStkZnQvzfxhKQivAEiiUoziwhOdIfQ8dre/my3hAWiAZmF50smFoF3sbK6cuXMA53dWnF9PHryyT7vaDjTo++b81fKlQKgIviWvOLKZPX10Wl4/6gQQ2Sf2/B9fR7x5ex5dvVZYxwmrtZnXLKpkrRKxyjdxi5p6cinGL5d4atMIRJmdFZwyaxf3gwMp1zrThNHJouRuaGkD+MWcCDWvX4S6+bi7VgK9LcFwom4uCy+P7GBnb7nCMtoYyAMmA7JoZyWExMVwmwxPpGjaMxJASm5C+saGdG3G+zg5ob+9scbbzgqsalOXRuh5qZBoU/MSDyDCEM3wT6AXi1TDigztgbEHvRzHTCEGmb7F8pBrwUlgwuYDbW8EFdKph/fYauufJTXS4xtFwC9koC5tORH3wSQJxBWkcwoRgJUQYzup467YeopUbDqSMIakX0BY+c00ZzRybl3LLd6B93LaoVDoUBEnA91QynNihiaA9gsy8B16qOLzXoHEhvrq12AFeNkCOMi0K5Lx4fhGdNiW1dgBH88IwG/ONMBJNNbQy5WTV5qO0fge28dLUsJGsEIZDLSM7EMRblXtV/C1+KyEPB7u+8OZW2n2gLuGGOhCA94N/uamc78CTKkCnxRZn2CVH1jaw3m75ttg2Zg0b3t3azv2AydoUJ+sLS6k6hUwBQFKfuUb9cSTs2HOwkV54ey/v76gT/F+cA/BySoBX8Ftc8/4dAa/V4GUJrEgrmMiydftpxfr91O7umJFqmD4mnztKSwVbGMxbnTOzgC6YUyidsIU2BDfEG/ek9uf/3WxouYVpiO0SX1woA3xsuO6s1DC2RD3dsqiEFs1NrXlegbaOblq56Qit2Bjn6pYYeaW3F0YuaWAUHgQm3R56bi0dONIQz+2hwOL5hfzLDT7vhxlwjHfTuSXc+6gMza09tJ6RVV9vXtHXAPFi0wrMZ8mAl8vlpxXRwqmxb1vfn8B8GzaQuGNxiXsltYD+fOBIEz2yZDufr4qG09mlWpYfEGRJDoHqNN4mhGsTQFgkfMWGA/T68p3OF4MUBGjq9otK6BrWuNDIwgh4oYS1/hymXWACVwaYL7ybJluyr93ZwV1Dg7xkmDA8j9dXmIfz588poE9dVcZINfyaoAzoz2+uOsA0rKNaPnCGiM4/LYykpXAvI24z3W4GJJyg7u5uuu/J1XSkpsm5nIKA1e0HLinl2+CHDZirwp50MGFQ2e5gzgoGmBhKpQOwASqGtviIIAM0K3x1wzrRgbTaV2HB5Hz6JCOrVN7J6cjxVvrbs1u4oThHryKDs3PJD2vSUpCXsrREdJzFEYDIoEK4Fxt3HKanX93EoprjhhWwgv/gxaW8sYUJMDbE5qJjhqi/MMEcYf3ujj7f+68/sXJ7h9aODFonvByMHhyuL2/woPGRy8po/NDU9aKBbvzsG7to067j7hUPDE3MqG0JjpBwS2QjVcAXGBMM9+Kz9p8fXZEyHkllgOY+aaSzbGJ8iHxoYc5q1jisOVNrEi3tPdweKp2wZlcHNTTr5+NgljJmSHjqCm6r72TtZ/6k8G0pHwuOMu3q3qc2RdtZ+SG4RcEN0cRlkOMiUmTiojYB5wCkMcS98kDac7COfvP3t93fqQnMYZ02tYD7KIJmEwZg2QqszlVAlcBIFGv10gn4eLBqR3vUMh4/KktzePmEYZoIluw3n+d8EQzjMDUW/P6RdbTnUKP7SwZfnSg4BRC0FU1gPrjcIu9xBsNRhKC4tTEk92M4+NcnVtLaLeHddNUGaHgwULzh7OJQNDwsMsXSFhXE+kibZTipBDSxJ95uJd2m41gmguU/A/3k6FKXneb4tkq1ZTd+rNtWQ/c/s1lHEXJY3CB2yFFBXnJewYpErPKKe8Xhoqmlg37wu1eYKqlX5cMOvLWvP7uELppXyMl7IIGNYfceUX+BPVDTzTt2OmIdGxa+tk7iO9wFDEyP1A28r6+zZxTQLeeX0PCqHKlBb6oAQ8Af/Xk568dxaus+PvDD9GphhKWJIARrE4g+K+GR8c6avfTky5vcX6kJtLmR1Tn0/sWltGDKwLrn3XGok15e28Z3OfYDk+3fvrfOygleKgIfqP77wXruqNDfBvEF8cVVbXy374EENo29mZEVLNlTmayAf7y2k95df8j9lQAsiEv8E7+BnPJxF94VGeBZlKahxIUDLr69jwzs/q6uHtp3qI4uP28aFRWmtr9x7qmADRHhQK5+gDw7YDQINy11zSf4GxyT7yAqLEr+2t3H+W7N6QwQ07PL2rhhL77kYkH1wZou7pECjgnhsmYggJ6CZTfvv7CULj+tOOXJCrvg/PuvltIB7v5Y8IWcN6SLn2VAoYC4FIUjhog489+jz/uOR6L8JikUCcC1DJx3NTRpDBTZvWXF+fSJW8+kT73vLMqDz5IUBsobTvD+8mIz1TR08yocKGB+BC5fYL4A76kpPvKOCWiR2PEatk14ecAjxECilNXFe84tpk9cUZbyk+wgn988uIZ++/A6amz2aqx4LpRz9PM57mW6+H1WsGRzyRwWEjdUtEG2UQLr4Y3N7fT4ixto5cYDptRCD5Q1lsRctqCoT7aIjwUY+mG7K8xbnUxkBaAd4cMCiHqgyQo+wc6dWcC9ZqQ6WQGrNh+hJ17Z4SMrIEnlLIaIODTwERYio3BxaG5EkEUCPJp7yLB7/3H66xMrUtoCXgALbe+4qIRProZ5/VoGfQ+YUGABNoxDB5enfmM4UttC9z+9mXtlUMPU2y2ANz8ODac4hqNR8CZqmbgmAQGvVAFsb//myt30zKub+N+pDsxXfOLKcpo1LrX8MWWQXMBQ9SOXldLEEanjlkiF9s5uevbNXfTWmgNOHxV9XdvnRZgujgSQaZDv0L+IKI2Ea+LQQCsjAn/o4WNN9MSSDdzZXzoAjRQubkcqPCZkkN6AucvHrijlS6XSAeu3HaOnXt3R60mUw9DHHYg4NnEVkHBKUF/VZsYycUTTyOHBzp8s2gm+j+GTL22ko7WpPzQEYAn/2WvK0nJj1gzUgGvtD11SSpecUuReSW0cPd5CT722kxuKSrszLopDi97e7p7jgJuGvEeJDEgzgmviUEEXFoGQAhfKT7+yiV59dyd1pMHQEDOAF84rpA9dWpqyrkMyiB23nF9M159dzIkr1dHBhoKvr9xPz7yxk/XPZPRJwQl23CAF4yO1CgCy0k6AoVIMmcC9yvsjQIyDRxvpnseW08YdR2xuCT3wlQjLMG5mjTiD9AfWB77vgtKUX3YDoP9t2llL9z61kQ4fa2H9M/JPCX9f1/ZhbaAW+tKNyoA/EfHbe12TEf8D+YCdYldvOkj3PbkqbYaG8HyJ/eXOm5Ue8xkZyDFllOMuBjuHpwMwFPzbM5tpzZZjvF/6ERNxKWETJwhGWLhR3KwQYp0BhSqM+y0+WXZ299ADz6yhl97enhZfDfG4Y4fksqFhGV+ekUH6AWYLn72mnKaNTr3dlWTACpVXlu2lB1/cQl2SnUpAVsLqXEtcAloCw3ULGR54NCzciIxohHgTl2ZC3CsOD4z3OsDYGYujt+5WTPSlGEBa2LH441eUpeQWThmoASPhD11SRqdNSQ/bO/S37Xvr6H/+tIw6sbRO0QGdwaETpiUt6w4s4uGsv8dXzCKy5lUhtCScjdAkDhnigXwPdrimkf7f/y2h2vrUdfbnBRy1nT2jkK/WLy2yKbcMwo78vCzuXuiSBYUpsTuPDWrrW+n7f3yHG4pyiL7u659+WGlagFaOCNOXpeK9gJsVwr0kY3gQBxpZgELGK+/uoF/f9xa1tKbHwl1s7X71GUV8N5d0aeAnK7BlP+YlbzirhAaVpYfW3NLWydcKvrZ8n3uFwd83Nf1daF2CvAIxxb04a+Q4d6rDDYqsuFmTgDcjWhjCxYN45Pz+gXfokefX8d050gEYEr7nnBI6fWoBb/QZpB4w9JsxxtlOLR0s2QEsUH78pW30x0fXulckfdW6n+NuxBHUpYCvrwfhyHCOCHp3ftbd6kATw/swxkx4z3pgEv6Hf3iFXnlnBxNrd0/YAZ9It1xQQlNH5mbWHKYYMEIaNdjxbQXj4HQA+hW0qh/9eZk7yW7RR637YrL6bEQO6zIRNc4MxBOHBtpgEeg/eyCIjx01dS30k7tf4yYP6QJoWO9bVMK3wreaCswgFMCymxvPLuY2V+liD7x261H62V+XU029zCMt+qakfwKijxoQ0bYSkwMZgOcdHy3ULAIxxOEHu2aVEVM4i9HTQxu2H6Ff3beUdh+QbCmUgsAk/IXzivibGv7hMwg/4CLmitOK+Oas6VJnew420K8fWE0bd5i+yCNQEcGin+tDXXhlKOWdoJzysYvucn/54FSKfdU4MaUeR8XXBvG3EvIw+H8/eKSR22bNnjqCSopS3xsCdt/BVmGNrSfS3iNoqgNN9qwZhfTpq8q5h9l0AIxDf/vganrm9Z3UFmXzqOufgCncQWFBrtHjqLDnUkLCFRL3MgK4rlHlogDBmnhWZAWoZTS1dtDjL66nex5fzp3/pQMwxMB6QwwRMwgv8GL53HXpY8mOjWDu+8dGeuKVbdTM+lUQuj6PMF24CyWvRCjPyC0SGVmTL/qu8q4IAyKKiWwcwEUyjl4XydLbbGT54rCfuDJiaDl94n1n0nsum0v5Ke5aWWB/TRf90y9r+Q4vGYQLcLf8009W05wJ+VatNuyAYfYjL26h3z60mg5hnaCSWGyfVh6voqyAmtu6qIt/4VfLcny2a2L4AnIGT1p8V1Y2u41pP8GDxWdHdtQ1/ZGbk0N5udnUwdTBQHhvOo5c5xC/RZg3TjCsua2Tdu6rpeGDS2nimEH8WqoDnWLG2Dx6aXUb31Ahg3AAE+t33V5JZ7LhYDpMsmN49uI7u+k3D6yig9hIwte3og95/wseCA/GKWJDQnx1BB/ycPR9locg14j7LXgG944651vyHsIi9KYWhchvfwjgaFjYhEKomhr+VKYhQ3Sc2VOH07c/dymdPneseyW1gS/KL61upW/8uY6N/eVVkkH/4ks3lvOdmtPFZu7ddQfpO796g9ZvP+ZeYbDqg7b9M9LXK6FhtXZGb0JhkRajJH7GcFH87UVO+dgLFJPuDJoEIEwIjWTTO+mO4Y24GrxfCW3BAU44/MDv2X+cZkwaSkOqS9ltMaQRQuANDhufEVXZtHpnJ1Pd7WYPM0gu0IyKC7LoY1eU0U3nlqbFqgRoVvAc+v0/vEWrNh1xr3rg7edKQsE1b09XwQm3mXSXp+PAyy9e6AlLQCk4cl38Jf1KyENFxlWyXGgeIgInzr7D9bT/cAPNnDyUBlWWsFtt7g0v4PhtwvA8Psl7oKaHGtt6qDs9jPxTAjBdGDc0ly9Uv+6sEr7PYaoDhLFlVy399x/fpjdX7XevGqDtRwgzE5cVYQEG0vKDEdb5LmHpM9ALaQLONfw/h3W6IGEBCMVhw9IuLAhoF9OyDjNta9bk4Yy0Ut9ZHkhr/LA8mj8pn3LY87cxTQuk1dHN3jeGus8gdkCzLS3OpjGDc+i82YX0qavK6JyZRWmxNRewjXtfeIeWvLPbvRKBjBB6YSQtHbLsN1IVsOjryG/WqHO+6ZEobjKQCoQHVEf8fSLqK6FGAoM+tBcWDwJctWgmffXjF9L40dXuldRHFyMp7DH49uZ22rKvk2oae6iuqYdfzyABsCaVy5gKZiVwsog1gWdMK6DpY/K4p9h0wa799fSDP75F/3h9h3slCC1pATzYVCbB8OAclkW52pBWNGEJWAgHJAnYE5YfkthSYlQhi65dPJO++KHzafK4we619AEm4o/Wd9O+Y93UgUn5MHNWbBU/IAAxjRiUQ0MrctJGm/Ji+97j9JN73qUnX9nuXlHDTFp2/c8LOWGh0SaWloKw/LBPJEJYbe6VSJghK+7ZAM0DIeQKpml97o5zaNaU4c7FDDI4yYCvgL+4bzk9/TojK9G7LUgnOcQFZMm/EnIIGfGRl92ku0mwAEsg+iuhAO53Mhj5SwdDepqC27m3hg4caaSxI6q4kWkGGZxMWLnxMP3s3mW05O3dwfkjS8IxEhdgkGU96R5jX88pH3P+XfyiBeFZRHAJK4faO1VW27GQliGWpNDgNH/foTp21NOoYeU0enilG5JBBumNd9YeoJ8zssLXwKBm44EFcaGXqmyhoqCQFZl0Rz4QR9WXzXnhcNNxCEuAExcTbHwgdXivhtVp+h5vxeMMiKV4WJFf8beLbsbqB4800O79dTSSaVljR1a5IRlkkJ54c+U+rlnBOBTLb7QQfcWir8erbTkaVrdPw9LJQpiin3sQTViA4QGCiI4fGBJCnrRg8NuCwTk0cSBXkgYnrWMNtHX3MRo2uJTGjaxmwTZpZZBB6gCEAI3qZ/e8S8s3HtJrVl4o+o0OsWhb6iGhToZZfpCw/LB8GJFYgLAAISOqcLxynb/xfzyeN0QOTQxPflFYsIjfvOMoDR9cxue1cljeMsggHQBCePb1HfSTv7zDjUODto8xwLKf246LCvNNc1g2coJxGGGdxwjLcLPxYRDuUI2UsAS0cpwwdQx/iE4WA9JiBIlcYSv8t1btpvLSQr5gOi9NvDxkcPICm0Y8tmQr/edv3qRjx1sIvCDbRzBmuP1G1ldBVrbzWoX5OsNR3C+uG2T5wl0Ny3STB1rS8Uy6ywhLQCkjct0uRxaxWFpwQ4NPrPANX1SYTxPHDqLCwrxYnjqDDEIBdPPj9a10/9Mb6Ad/WEr1Te28fYNIujAcNPRPa1jI0REXHxJ2MsIC+WkRS36lQ0ILAZqHidaw4pEV+Y2/8LhmKfoYvEJZweGttHTVLupmb6IJowdxjStZ9ZtBBn0N9IV9hxroD4+spl/ct6y3jzmExTQsEBaARq3QkuKChRw/eQUm3bV5wjXEM6ejmMMy38ghSTwmwtI+hIATZpDEgBjyh3YIy1GZUYDL1+3jZg9jR1bS4KoSyoGT9QwyCDEwvFqz5TD96O636YFnN7lE4LT1AGF5oe1bljDIEENF8TcgnXS3yos+jmHS3SIBH+lEE5aATUZd9D6U957I33pJCI1UpEAvYXn2N9y+t4ZWbthPVeXF3PQB1vkZZBBGYJnbi0t30n/99k1ua+VHfl62mrAErMjCAgY5grAKlF8JXRjzIw83EBZg+aBawhKwkGXxIGYp0TEihOWpUBYFk5Ur1u+jE6xQRw6roIqyQjcwgwzCgb1sCPj3pzfQL+9bTrsP1rtXo6HVsLxIFmkBBlnQsOB1OH7CAoJxcso8hGX/OOqYnLByDZPuHJapBR4s8ts2v/l5uUHCcoHNLdZvPUg1dc3cp9bQQaWUDZ8jGWQwgMA868pNh+gPD6+mvz+7gWrq2/iwS/a6jhCW16xB04b7gbgcS3fMYbkXTLDMUxRhCdjdKo/lEBY0LBubEENKeAjPcDMakWsGKS5huV9R/GCy29u7aAcbIm7bfYzlP4dGD6/IDBEzGDBgCPj0a9vpNw+upNeW72Ev1eht4PykFdSwEI4rhp5hSRJSeO+VyBFzWDDgBpBno0mERX6khCWgv10e2ktYjATsC8QynlKec10VGj2HJY+Fyj54tJHWbTnIPxuPG1nFhohF9o+QQQYJAm10Lxv2/e7hlfTnx9fSlt212mU2ovObh4SGRpzMRu7Kkk66M2gJS0CTHy1hCZiTQAxkLHHDUSsE5ETSF/DGiBCW/g0ELQxucTbtPEIbtx+iUcMqaPjg8swQMYM+B9rmsvUH6Pu/e4Oee3MHn1/F3KqJTEAAjiG0YgQRBYt2jPTQWQzpasHuVREWYEVaAr58WBNWsHv74cTCkMpIWMoCsUvJVJgoEK/6GSQsL4Ky8Fbbf6ieXn13B3f5PGPSMMrLzVjHZ9A3aG3vpHufXEvf+83r7GVZE+w7hn6D9g0kTFiQnShZueBLc1g/Us25A0bikjx3Ttno81z3MuaMGsQzQMNS+XT3QJsOwvCU3rMCSjniulMkeAOpCUsgWhYsdJua2+m1ZTvonbV7aOGcMdwEIoMMkgnsSfDZ7z5D9z+9ju9ojnaqhKK9w6wBwCS3/2UdhOq6D72cwH/wS7GAT7p3n6AeLBdS5Fvk0Ti3BbgynCf1lpKmxBCiK89IqCFxba2IMH1KvZDKilxDYdhBHg8q7Vsrd9MlH/gN/fLeN/iEqPJTbQYZWADtp4GR06//towu+/hf6e01+9w2FX+/ESHm9o5wcWjQm5YhTzp48yvJO/Lqza8x70wGGxJi8bMHSq3FAUIhVhUrOIdleOBeJtfF04SJ+zQy8JUQ7QFjal0q0YiOic/MS1fsomXr9vKviJXlRVwVz7isycAWmCNtbO6g5RsO0jd+soQefG4Db5NqaNqWp9+oJt31WosIw52WbTiGtq6cw9LIsNGygoTlh0UmvTGChAVYPqh1gWjiSWTIzBrMKSFGdGWifWBJz8vv7KCW1g5OWqXFBbzBZJCBDs0tHfyr371PraUf3b2Utu6uMekTLoLt0I/8XNNXQgd2BGaAZR/VTbpzWPFKMI6csPzCDMIRKopUTlgCejkcyrT81w2yPHIihOXMq6EgoH4aGZ0jGAdktXLjflq18QAbo5+gspICdhRmfG1lEAA+4OzYX0f/eHUr/fzed+i5N7ZTEyMvDrRRV0vSQx+enw/Ckn8l9Ldxc5vXhFvn14KwAIkcU34ZYZ3rEpY5ExyazCIEnVZNWAIWaSVYib1gctRvIEeGWVIwBioCzgGXrdtHu/bXcgO56spiKinKZ0la5i2DtAXax+FjTfT80h109yMr6cFnN9C+ww1ydyvW7UUeLz83m/NIr6W7to8mllYUNOlYEZaA5fMj74ohoUGAJgGQFUirQ0tYAnYZNT+QPrx3aQ6+WAQQudcuN9Gx+Bt0bw2t3nSQDxdBiljeU1iQ58bI4GRDXWMbLXl7J/2VDf/u/8c6WrvlsGsAatHCrDpvdBzVHJZJVtLIS5JOTITlhSHPhjkszc0QLFEPQVh5Rg3LD30mVWkFIQ/vJSy8gZSy7Ksvkg4qw/m7qaWdNm0/TOu3HuJ+5LvZUHHk0IrM/NZJhObWDnoRGtWjq/iE+lur9lGjGP71Au1FtJtI++mFsY174cRVEpaAQaZdy9fEEfI9/SpuwhJQ5Dlr5FlfM0i0eRgGN4HgRqqOBEnVSGCRlqHwHUTHwcR4d08Pd5XcC6WcSPXFm2dYxo8bVUXzZ4yiaxbPonMXTKCiwozGla5obe+iN1bspidf3kKrNh2i3QfqeN+1g6aFWbV14tMQ4IWo9u2HhayEiQtAOuzhK8sLFRupxgBJnrNGnvlVp2iND2TxMEyGjLAA892IYUcRHFb5deRJCQvQyBCVZ5+jYCxYx2N5z/yZI+n6S+bQmfPH8caVQXoAGtXbq/fRo0s20eqNh2j/kYZAB7Wbz9TEsWjnJUV5fG7Mad+G+AZ5aPfmD1Lm/FaW5lNzW1dihCXgyXOEsACrwgXU8ThhFeQFCMsPu5QMsSzz6xCWqFANpPKca3YpAcGYUNmrKor59vk3XT6XLjh9EnfPnEFqAhbpr7y7iw/7Nmw7Qscb2rSLlAXM5IVwwytSIsMhLK+GZUhHyJBOjUQjXq2rd6v67gi9JATkk+U3WsOyeAAnc7hFHg+eBh0Nq929EoG4U8CUkimtXhjyrCUs73MHnh9/R+dYn5KIL4+Vw4aK+axspk0cSh+4/jS64oLpVMLylkFqAET17Bvb6KHn1tNKplHhw5LzHceijbpQk5am7Yi2KeCTIScsizwp8+LArGV58uSL20tYQsMypGWLrCmLv+Wm6hPIf8aeCDokFj5ywlLcrpcqQk0FbspbRA5IAZN/RsJSIFJxFo0gCr64+OmKqCwromqmdWGoeOOlc6iqsoiyWR4yJhHhAZoFhlrH61vo4ec30kPPr+emCnghw2Ldqj2I+nTbmDo2QgzyFG2jmBEWxLeyIVhMeZJChEXLCd6BK+q0KtwhYaxfLk3ImnzhN5Eq/nROfvDL9ok4hOUZEuJWxXPppZrStM0TG+MX56sJi4PJgjhDXTtBtukKSOKzSyAsGBB2dXdTXm4uLTpjEievU2aO5PNc6BQZ8up/wMAYC/cxP7Vq40F6dMlGeuWdXUxTcIZ8+OJcUJBDjb0jCNs6YvF8UfHTRAtBBOUUs/aCfDvt2yRDhLOU0b60bT46AL+C0eU3V5QyDYvlR2r7KBdkheg5LBlEp3HfEGo4YXwOi2tYkjksyw5ojmWIwSsikt9SRljqOSyNLOOzO9c0ElyIGJFaqiovosaWdqdC3fzCtfS0iUPomgtn0dmnjqfhQ8o4seETcYa8+g7o7G3tXVTf2EaHmAb15qq99ORLm2nzrmMB2z3MR6I+ZFMe0QjWuQx29aqP0/tChtNMLQxpue1Q3tajYZocqSzDV8IORvR4fg1ibNeMsL7ikWjxQFrgK2EOOwyT7lYFYgOLWCwtNWHhfvH4GllWherEMcd0YkQRlhcsLcSA1fxpc8bQOadOoJmTh/GdfWCQipdBBskBbAWP1DbTgSONtHH7EXpjxR5avn4/1da10gnUuaTz2hOWF/pWAdICaYq/1ZCHRc1hKfLt3GvR1gW0+YhARVwOYcVg1mCbXpCw8NNws0a4o2GZvxLaF4gN9LH4pDurRPWQELBISZtnJ8wuv4Kw2JBQVaFuWpjXAlmdMms0nTZ7NE0ZN5jv8APtK2MiETvQiQ4da2Qk1UDbdtdyglq54SD/jU4fgK/O4ycsc7+KV9sKTrozxCkrAIMcPWFBw0L7tskLg0WefYQloLkRQt23gSwB+ZDQIsOazJrv1sfo/UrYriMsLxLJr0lZBrIYYRXqCcsLNy1ukDqyiqZNGEpTJwyhSWMHcQNVXMMEfsaVcxAYKtXWt9Ceg/W0e38dbd9bS1vYUA8HDDwjlth2dR4fYQGQH0NaDLYEJiUswHi/XT56YZDnbfnYMg9OAiIaFsLw/IY0TWmoCSu2ihSQE5ZAbLK8EDkySwjGCBiOIg2p2uyHIZzLwdn56QUqT5ff4JDQlBcGT36heWHYOGF0NT8mMvLC9vsgsLEjKvkw2K7BpxcwtMLHDGzmsIcR0o59tbRj73Hu2XMnOzDcky5A7oW+zPhHpYIc1r79S27iAdLSt2qbOnQs3TGCkMxh8TZq09YBQxzL9oS2HyQsLyBH/9wckvSyRpzxr2y4bpMRizhMjp6wgNgz6YdNbh04MQOE5YcxTYsUtTKCWpdyDiuOtFB/aLSY4xpSXcrP2IZ/0tjBNJkR2cQxg9J6k9h61tZ2MM1pOxvibd9Xw4iqno7WNNPR2iY+R4VhoJgj6kWcdQ5XLhGzHYu6soJZjq6PagnLC+v8WsbTyBNzWOYRhCEtXxqcsPgfLACVaiYvfTis3PWE5YVFZhVvB1MuI9AszfHC+NwCmnia/Hrvw19qwgI0aXihyDMuFxfmUwVLA+ngGDa4jMZj+MiPajaMrGTXU2sYieHb8YYWPpTrPZjWhC97dQ2t3OK8vrGVWtBxffykhFW9R+IEhoTaOo8FuB+ZNsvx99G4DEeN+TXng0MhJzLp7piD6CdKEGbx7CytXsLyQk9aIkyeQK+G1Wwa4+vl9AJ5MTQIzd0cvXNYOsICtM8NINyiYAGlLKfq9IQlYEhHpKElSSe/WNeIBdhFhblUxF4qReytPKSqhBMY1juOGFpO49hQcjC7NpSRWxHrlAMFmBgcPtZIB9lRc9whqP2H6/n5KNOYUI/4hI85yVZ0CqnbIDy1ofyAGOtcO4dllGULtRzRN73KhXwOC2GGtmr17BaQyPFOuqMeEnGY2QuWjpSwBMzEFSwQTljeCrV6+xjCcT/kiL8VUIVECAvzDopYIg1jXgU08SzyC8LihqNWKnOwnAMw5lvIAZy40K5AZNxLbG42DWNDyTpWb7g2uLKYkVgZVVeWUFVZEV99D42sqsL5G2shUdeIi06MA7sT4TeWIKG88XbFVk9YZ4cDv2FKgLbhaETOUcc0I5xr61pckmpmcU8wjaqbyljdHalt4fZQuD8ySe7Cor6MHUbUl0UZYocah7A0c1gWeVLD/l49YQEIj65zKazyK2T54irKLvorYQSiDuJdYK0lLEBPWkB0eK+G5R0SKh4qCEO48X65BPmQUCPLOr+AIY5UBr4SRjQsm1ScdCQNRsA6z+rwodUlfM4HMiCGN6ioMzvwP1xxf/cC97h/eiFrXMgmQnB2//ScnesA2l41I8iaulbnggpOpoyQ59ADCzmOhgWzHcMIwjJPekAGCkMvC4ajKDP1CMIiL9b5tZOlIiwBY10owrPdpqIEVM/AhGUUECYOBXC/sUAQrkuHAXLEoQBCRKg6FqAJtc4voE9Fnmf8LQ78X5x1QKgmTyLPUenIgHBxKMBkYNdhTORiXzmQPXYNcrQcR9OBxtTu0Z6wEBjaU9ThDfccXPNicrq6T3BHh9DGoDkhPXn2DXnGTeJGuQAOUc5KWMhwgHALWdbyVMB9+nYYUSh0aSDMe0hgnV9dGIM+u71AXejrA2HiAJyzu2uCN0AOQVp25CWBKBBxBCCuycIk0OYjWpo6pjfUF8s6vwD+lsXxQZNnUXl6SSJUEUvI16QTDUM8C3kIEaGBWLjPewSAa/7DBE0ckYYyPdwd/S8ArwwjEMcQD3I4qdjIk0GkIY5o8P7IDqvs9kITWQhy5cqB6yLMF4cHsf9p749AWQ9RQLhThp5tXsyFqicrLxTxvFqLVhbCLNKyLBQ9xHN78iZDos8uEMhz8G99TYh86mPZl41NHAaNLG0JWte5F6Z4ieVZDEdw1naWZJUhl+P+HRe8JasWhP5pp1gAlhlSyvHWukaWMR8W9cDhhHsIS9yAs/5mO+KSyPHfh99aWRIZMhjl6CDus0hLpKNMS1zHWRXHBZfj/h2FyBtHLkVc8Z6DsXqhza+AQYaAQo64KpXiv0fkR5kn73VVHABhunAXkrQi5WtxP6DNrwDCDXGs5Mjgv0efVmyKhW1cP8R9FveL51bky1sfpjrRbKSHG9U3Cza3Y3K9LN3DOLCQAWjk+CXIYwH+mAoYnxswyWFhyjxHruEvWYxoGGKIdLT5RpilHPG3BEKKPNQDY168ZxWsUnLSUuY38k8LbX4FEMdCjpUsE7xpBeWJvmnfRxUQ+RWHFLguDg2MeYEEdV1oCMsPdULmAhGweBijLEO4mHjWyBEhppSMMazyawGR5wBwLXKIv9QQofpYdnk2pAYZ3pGKAsaUestQF9MohcEkw4Xh2UVHUXUYJ7/u2QqaeNYy4oc9aQGIYxHPKMsgh9/PjjienxGWEK662R8mj4cCEYcefnkSJCLDey/+5r8VcRnUIQL6+zlEOt60oyBkKMLFfVZy8H9ld2IQIeoYHBbpRKCIh8taOQ54NOdPNYyyhBRVuIBFPEOeRenqSpnDKr8CinhChiY/Zoh79TLs+ieAOIZ4CeWXQdyueXannTv/BHwalk0mDJNsHCwJ4wMZwsWDaOWY0mDwTvoqACniUMMcg8P43Ca4+VXKiVw3p4QY4lDAmF+EW9S5qCuNPIQYpDgw5skE5Ndc76b8AqKzeDtNAMb8IjyGMkwIuF8cctiRVgzlp5SH6+IAVPEYDHkS5S8ZEooExOGF95o/LAKRtpnRhTxdHAbIUMrxypDE4fe6ZwuYY3Fh7qGAyK84ooDf/mteeMKk9ws41/F/VYxoaGL25tX9OwBxTRYmgTLPDngy7qGEyJP4OwribnH44Q+XxfHAmF8nPEJakvgiv+IIQFyThfmglBErIEOeruib6j4q7pWFSWDMrwjXyIQM7+EDyl8xhyXY1fRWQJgunElgGo6etLzQxFPO8wDet4FGhqIg/EAMcywDhGan1PBEKpYpSfMdud9OiqY+eT7dMG0ZIcwiNYtyNkLUubIMBWzT0sRDOonm2VvnYSnD3joPlqF3FYu+j3rzq4lnXYYiTxIYyjBbnoC4ZpM4gHjyuKIg1EwuYEhL3KvNrwB+a+RBhjYvDgxSGAxpiLMxLYSLQwKjLOde5/86iFBJLJlcbb4RpgtnUOY3Am2ouNdCjiNJHDKI67o4DIa0nFJWwJtfKyCeIa4hP2aIe4Np+ftjwn1UgMuIU45IX5EPR8MyRHISEIcOpnAkYVMohrSM+RVIjhy9FBEqYihiIg1xaGEKZ9DKiRCXXpIIVcQS8o15NsgBDDIQIg5AGdOYF4EkxDHm2fkn/pZCyDDIggQjjDJsARl6OfbEpYnDk2H/M8oR4Yp4QgaXQ/T/AV25lXYoxoq5AAAAAElFTkSuQmCC;" vertex="1" parent="TyNaCP28_q_hWQBu7Goa-10">
          <mxGeometry x="30" width="29.32" height="30" as="geometry" />
        </mxCell>
        <mxCell id="TyNaCP28_q_hWQBu7Goa-17" value="" style="shape=image;verticalLabelPosition=bottom;labelBackgroundColor=default;verticalAlign=top;aspect=fixed;imageAspect=0;image=data:image/png,iVBORw0KGgoAAAANSUhEUgAAAHQAAAArCAYAAACpQqwFAAAAAXNSR0IArs4c6QAAAARnQU1BAACxjwv8YQUAAAAJcEhZcwAAEnQAABJ0Ad5mH3gAAA5GSURBVHhe7VsJcJTlGX723zt3SAgBDCAYkIABIpdAAEcLJJxahyLQjgJWwajF0ep4tM4Uh46FcqkVKHXQ2njgyCWhVpTLaIRwhSNiCYSrEBI22U02e2/f9939MYZwLLsqMvvMfPP///d9/7H7vM97fP+uplfvXD+iuGGgBLdR3CCICKEav0ZaFD89fnSFajRR4n9IRCSG+oJ2UaszQa/XwxOfAKPRCJ9eJ/2KywWHwwGD1Qqv14sEr0P6NYiG70gjYoQmJCRAl34TYmJiYDeapN8VFKPB55NtbGMj6uvr4TxzAo20HyU08giLUJvWKIr0dusuhFo1HlEg/AECVcL8tMdgd8vz41xATU0NDN+WS7/Z55ZtFOEjrBjKauzWrVtAlXY7PB6P9DNxiqJ8r6mx00Xu1+12o3Xr1ujatSt0uoBbjiIyuCaFNihGmM1m4PYcIchkVCRmVtvsQl6yywa/3480d73MrzQnC6F2xSD9vO8jNxxP12FytbtKRdlGf1Sp4eKaFKrVatG5c2ch02AwoEuXLsERCDHsVlmB7dq1k21cXFxwNKBelVQ+n+d27NgxOBpFuAhJoWosbMjqhaSkJDT6G8XlHj19FnV1dRhvPYC0tDRMj7WJUhP8DiG43g7Jcp/HzbItjc+Q6zBYqemKCSdPnkRK5bfB3iiuFSErlF1tq1athJiMjAxYLBbU1tYKgenp6cjOzkYa9fM8nsOEqed16NBBXLOKpkplQ2DlRxEeQiLUqjXB0OYmWEFpagLtm2Jw+kwVMj0WZOsdeMRUjdG1+6lOIdLMMfBoFHgVLfQ6P7yeRjxesxMv+Stg8nlg9LqFTIZF60djrBG65DSJz9GVp2tHSIRyvGN1ciKTkpIi6mSVceNjVqnt/HlYzp2TMT7mMQaTx1lwbGysqLRpvzqWmpoazXrDREiETnrgAYy57z4oHhcSzZTV1tfDQwT0dFQjx2eFu9EPl90H3fkzSHBY5RwmTqvR0o0UaBvdMFFlk6Vx4GaH5cK4jp7C5bBjzP2TMeWRmfBryEioXQkK1b3crjdw/c1Nfb5LPWfzcbWFg5AITU5OloxVVZHT6ZQtK4yTH46TrEpeDVLdKR+zojlOymoSnctxVR3nrarW+Ph4UfrVgOft3FksrWfPnsHe6wOcDzz77LNYv349iouLsWHDBrz44ovSr4I/q/r83EpKirFu3To8//zzkptcK0IilElj16hodfB4fWjnrEd7VwP6d81CwQMzYJ5TiMRXPkRS7mTsdKbBoCHynB5sb9Ub7QpegXn+h9LmDu6FkW4LdH5Ss7qqxG6Xrun2eOX4ctBovMjPH0HGwgYDjB+XF7ZlRwIKfOhwUzv88+1l+NXE0dK3d+9e+H1eTBifh8LCN9G+/XcGqz5/aWkZvv66lNyVD/feMxqF/1qBwYP6BGeFhpAIZfAXrzZWFsfEiRMnslli6tSpKCoqgnnUKKlBOctlFY8eTR+O6tYZM2bgnXfeQcf8fPTq1UsMRL1m0+3VYMyYMcE9YMSIEVIPXw944YUXqPZOwUcfrcG4ceMwc+ZMjB8/Hhs3biIPF4+CgoLgzO8we/ZsPPbYYzJv7tx59J2a8PLLL0u+EipCJpTh83qg0ypo47ShRzxltDd3hdXpw4Z163FgXxmgSwC69qZ46kKcKQ6+rtkUE80oWv8xdnxVQlfQou0t3ZBImS43jjdsnarrvRK6d89EZmYGWfYBrF69kVy5EXfemRscJcOg6/W9PQd7dm3FG6/Pwx9eeBLF2z/B5PsnyVirpBjMffmP2LplI7Zt/Tfm/Ok5LFo4F7tLt6J/3+zgVYAeWTfj1SWvXJjH+9x3KWRktEW/fj3R6PDjrwteJY9DmvXr4PIoWLp8JX1GYMjgoRcZLs/h5vHp8P6qtdi8eRsSE+Mwdmwezb2yx2qKkAjleMgxUFUW79tsNllUSCBrOn36NJ5++mleSpI+zoo5dlqtVmhMJhw9ehSLFi1iKUrtygQ2JZGvfzW16NixY2X7ySefSGM0VWxTDBzYHxMmTEBVVRUaGhrkHgsXLsSoUXfh2LFjWLVqFTp16oShQwcHzwige/fuWLFiBe64YyD279+PsrIyDBo0UPp4rCVkZWXJtry8XO7VFHyvoUPvRl5e3hUNd9u2bbLt27evbENBSITa62rhtjeQxfmknWzdAV/Y/ahY8y4VqWdhUlzQuG3AzvVI2LUBxgQzXBTb3KuWAlWHYIADCo03HKnAtp2lqCX11ujN8vqNm5+u7bCcD97tYrC6DHod8keN4Hd2+M+nW/BVyS5YztfijoEDkNY6NaB2FSwEavf88teYcO9UrF27FgMGDEB29q1kXMcwbXoBFi1ejgcffIi+5MApDI7HT84ugNGgw+uvLcWsR5+S9sbf/i59s3/3aIsxOymZPBPdr7bOSk9xcfiob3BJuxKqzlaLmi/6PFeBkAhduXIl3n77bakjWWG8TsvuY9OmTfh06VIcoCytpLAQ5WT1HNM4m+U3MWydh5ctk/Ed77+P5cuX4xzVqgy2VnXem2++KWOXQ25uLrmjeOzYsQPnqeblc/n+nFzkU2xuCZWVlcE9SOxmfPnllxfeDqkeRwU/e07ObbL/wQcfyJbx7rtkuIScnOwfNGaHkks0R0iEmu022I4dgUkfA6ulHhYnlSM6A8qNMShucKDd9n8gc/d7SDc5kKqj0kXs1I8scy1a1ZUjbfMydNv7AdbrW+GzxJtEl1qqN2M9GsS4AdvxIzDa64J3uxgcT5577veiggED++HVxX+Wlj96lPQ98vC07yuHjLts34HgAU/xIzEhXmy+uubSnoDXqfk7rbM6SFH2YC8rzA6rzSnGw3Oao9ZCtTddnO/RkrL42a4mG09rkyqfp+pcNV0lNHJDIpTBNaYai06dOhXsDbyB4TqTa1FWsJrh8ntSVhH3ce3F4wy2Qm48xtbOL7xZMZezTs76kpNjg0eUYAwZJI0zbYbRqFyxJuV4zmjTpo1sW0IgvoM+j+nCtRm8H09JII/xnObg2MngFxYmyhmagvu43uT4yN/d5TBs2DDZlpZSKRMiQiI0EOmodvzmMDo3OqBV9JScatBAWWu9X4HX74Wbsta9iZlIm/Q4jvQcifq7foOkIfko98XBSWQ10rfhoLlOOgdkrAbFgHa152Gq+G/AqoN1aUvIy/sFEQ5s2bwDOX2GoHfOUGl9+uRSOPhQxsaNa9ntMtjad+/ZKzY/fNhQJMSbRDEpKYlyrgoX1c67dx2kMVA9eQ+NeaXxPvftouya5zRHZeUp7NnzDWJjtCh49Lf0/Xjl+nq9F9OnT5F7FBdvFSNuClW5OsWDSRMnIDd3EBleA9atKyLjCe2FRcgKZbD6jh8/LqpTFaU+JFtmRUUFVlG86d+/v6jv3bfekoyXwfPUmMWq5sYxtvmHbAlqJqtmtk2h9l2pJi0pKcG+ffuRnp6G9ymez5s3T2rj5uBs3OXyYNasWViyZAkWL14s+9zHx5fCnDlzSL1WTJ48iWrRj/Daa69hzZo1uPvu4bCQS+brNAc/A9+P5z/zzJPk1ZxSz7LXChXXRGiSx0FB6AwMh8qR5aYsVjGjwaOFn8y30eXEqDQd/vdxISUgwzE2fwpuUeqlsU1Lc1P5o43BrRSTtKyYhjrE+C6f/fHPVTIzu5Ax+fH5lm3iK1Sw8g4cPITK42cRGxeL4cOHS7+PBM/1nQqex31PPPEMioq2SCLWp08fbPrscxypOC5zuMzia5cdOIRp02ZR8rQbvbJvQ+9e2WQMezFjRgH27T/4vfur4L4jRysxZepDWL3mUzH4nBxe8dERWUWYdP80nDj5HUlsw9z69+9N2Xc/WYH7aPUG3D95OrZtD93dMq7pJyjqqy2LPhAXO7ePk/XHv2h2i/psRDCrZNUJlyQPY+Kt8is/ViPHyfHOARLLfIcPS5yN9wbWhK8ENaFoSlJTqOOqm2I3yWg+v3OnDhLbq86dkeOMDu1FrVryNiNH5qHGEqghObwINMEthQpGS2Q2hZoQqfdXE5vm7lN93ua41Oe7GoT1qz+V2Fu9VejXrx8eTq2RhXgoOnHFZpNRXKnTFfitEK9pMuEzyuNw5swZODQB13g1b1YiBU5I3itcKUuTpbt2iKENGjQIcXFmcr2rMX/+/AsE/BxxTS63OZgkzl45TnJdySpkYlmFnBWrb1t4jDNF9S3NTwE2sKeeegqbN29Gjx49xD2zcc2fvxALFiwIzvr5IiyFaokgXv6b2BpSLvTRVgp5cYbA8qBCV5aFA6pV+dhF9sOkF55LkbcQe1yB1P7HVOiNjrAVyhZfXV1N6foecWfswlihDI6Z3MdkMtHcz3N5XVRccxQRR1iEeilOukmBXzjN+NqXQLWoAXWU7Vo9ijROJjQk02pKYGt9Opzz6VEDI3Y79DjojxNlRtUZWYSt0KYrPhwnWXncWJWsUB7jmCkul8ZZpeo5UUQeYRHKMVQhIhO89TDaa1CriUG1l1Xqh12jw8lGhRQZizqvBlYfqdarkxbvbZAW/XVf5BG2QrnebNu2rRTonC2yGtVVnxMnTki9x4rlZIhXl7gu5UUCXveNqjTyCJtQRi3lQBVV53HQBthTOmFfxWl4zcnYUGPCTm0HVDl8qKimEqZ1V3x+rA42Spw49kYReWjT0zu+FNwPGWwNHBv99jqpN1M0TlnnzWqfKuXK5rIjMq9vZob8YuCUzSPvQSssdomnLgTWd3/Gdfx1h7Dq0OZI0iuycMDZL798Jkcr/Slmrayb1rs88urNRfGUEc1wI4+IEqr+cZcJZaiEmv2BlSG3JrCW6UFgrTJKaOQRkRiqolHRS3NRhstNrTP5f6HcmFBuan8UkUdECY3ip0eU0BsKwP8BNBuQ0egwVJEAAAAASUVORK5CYII=;" vertex="1" parent="TyNaCP28_q_hWQBu7Goa-10">
          <mxGeometry x="95" y="40" width="116" height="43" as="geometry" />
        </mxCell>
        <mxCell id="TyNaCP28_q_hWQBu7Goa-19" value="" style="shape=ext;double=1;rounded=1;whiteSpace=wrap;html=1;shadow=0;glass=0;sketch=0;strokeColor=#CCE5FF;strokeWidth=2;fontSize=17;fontColor=#33FFFF;fillColor=#6666FF;" vertex="1" parent="TyNaCP28_q_hWQBu7Goa-10">
          <mxGeometry x="85" y="530" width="260" height="210" as="geometry" />
        </mxCell>
        <mxCell id="TyNaCP28_q_hWQBu7Goa-21" value="" style="sketch=0;points=[[0,0,0],[0.25,0,0],[0.5,0,0],[0.75,0,0],[1,0,0],[0,1,0],[0.25,1,0],[0.5,1,0],[0.75,1,0],[1,1,0],[0,0.25,0],[0,0.5,0],[0,0.75,0],[1,0.25,0],[1,0.5,0],[1,0.75,0]];gradientDirection=north;outlineConnect=0;fontColor=#232F3E;gradientColor=#505863;fillColor=#1E262E;strokeColor=#ffffff;dashed=0;verticalLabelPosition=bottom;verticalAlign=top;align=center;html=1;fontSize=12;fontStyle=0;aspect=fixed;shape=mxgraph.aws4.resourceIcon;resIcon=mxgraph.aws4.general;rounded=1;shadow=0;glass=0;strokeWidth=2;" vertex="1" parent="TyNaCP28_q_hWQBu7Goa-10">
          <mxGeometry x="114" y="550" width="50" height="50" as="geometry" />
        </mxCell>
        <mxCell id="TyNaCP28_q_hWQBu7Goa-22" value="" style="sketch=0;points=[[0,0,0],[0.25,0,0],[0.5,0,0],[0.75,0,0],[1,0,0],[0,1,0],[0.25,1,0],[0.5,1,0],[0.75,1,0],[1,1,0],[0,0.25,0],[0,0.5,0],[0,0.75,0],[1,0.25,0],[1,0.5,0],[1,0.75,0]];gradientDirection=north;outlineConnect=0;fontColor=#232F3E;gradientColor=#505863;fillColor=#1E262E;strokeColor=#ffffff;dashed=0;verticalLabelPosition=bottom;verticalAlign=top;align=center;html=1;fontSize=12;fontStyle=0;aspect=fixed;shape=mxgraph.aws4.resourceIcon;resIcon=mxgraph.aws4.general;rounded=1;shadow=0;glass=0;strokeWidth=2;" vertex="1" parent="TyNaCP28_q_hWQBu7Goa-10">
          <mxGeometry x="114" y="624" width="50" height="50" as="geometry" />
        </mxCell>
        <mxCell id="TyNaCP28_q_hWQBu7Goa-29" value="" style="shape=ext;double=1;rounded=1;whiteSpace=wrap;html=1;shadow=0;glass=0;sketch=0;strokeColor=#CCE5FF;strokeWidth=2;fontSize=17;fontColor=#33FFFF;fillColor=#6666FF;" vertex="1" parent="TyNaCP28_q_hWQBu7Goa-10">
          <mxGeometry x="426" y="530" width="260" height="210" as="geometry" />
        </mxCell>
        <mxCell id="TyNaCP28_q_hWQBu7Goa-32" value="" style="sketch=0;points=[[0,0,0],[0.25,0,0],[0.5,0,0],[0.75,0,0],[1,0,0],[0,1,0],[0.25,1,0],[0.5,1,0],[0.75,1,0],[1,1,0],[0,0.25,0],[0,0.5,0],[0,0.75,0],[1,0.25,0],[1,0.5,0],[1,0.75,0]];gradientDirection=north;outlineConnect=0;fontColor=#232F3E;gradientColor=#505863;fillColor=#1E262E;strokeColor=#ffffff;dashed=0;verticalLabelPosition=bottom;verticalAlign=top;align=center;html=1;fontSize=12;fontStyle=0;aspect=fixed;shape=mxgraph.aws4.resourceIcon;resIcon=mxgraph.aws4.general;rounded=1;shadow=0;glass=0;strokeWidth=2;" vertex="1" parent="TyNaCP28_q_hWQBu7Goa-10">
          <mxGeometry x="461" y="550" width="50" height="50" as="geometry" />
        </mxCell>
        <mxCell id="TyNaCP28_q_hWQBu7Goa-34" value="" style="sketch=0;points=[[0,0,0],[0.25,0,0],[0.5,0,0],[0.75,0,0],[1,0,0],[0,1,0],[0.25,1,0],[0.5,1,0],[0.75,1,0],[1,1,0],[0,0.25,0],[0,0.5,0],[0,0.75,0],[1,0.25,0],[1,0.5,0],[1,0.75,0]];gradientDirection=north;outlineConnect=0;fontColor=#232F3E;gradientColor=#505863;fillColor=#1E262E;strokeColor=#ffffff;dashed=0;verticalLabelPosition=bottom;verticalAlign=top;align=center;html=1;fontSize=12;fontStyle=0;aspect=fixed;shape=mxgraph.aws4.resourceIcon;resIcon=mxgraph.aws4.general;rounded=1;shadow=0;glass=0;strokeWidth=2;" vertex="1" parent="TyNaCP28_q_hWQBu7Goa-10">
          <mxGeometry x="461" y="624" width="50" height="50" as="geometry" />
        </mxCell>
        <mxCell id="TyNaCP28_q_hWQBu7Goa-33" value="" style="sketch=0;points=[[0,0,0],[0.25,0,0],[0.5,0,0],[0.75,0,0],[1,0,0],[0,1,0],[0.25,1,0],[0.5,1,0],[0.75,1,0],[1,1,0],[0,0.25,0],[0,0.5,0],[0,0.75,0],[1,0.25,0],[1,0.5,0],[1,0.75,0]];gradientDirection=north;outlineConnect=0;fontColor=#232F3E;gradientColor=#505863;fillColor=#1E262E;strokeColor=#ffffff;dashed=0;verticalLabelPosition=bottom;verticalAlign=top;align=center;html=1;fontSize=12;fontStyle=0;aspect=fixed;shape=mxgraph.aws4.resourceIcon;resIcon=mxgraph.aws4.general;rounded=1;shadow=0;glass=0;strokeWidth=2;" vertex="1" parent="TyNaCP28_q_hWQBu7Goa-10">
          <mxGeometry x="531" y="550" width="50" height="50" as="geometry" />
        </mxCell>
        <mxCell id="TyNaCP28_q_hWQBu7Goa-35" value="" style="sketch=0;points=[[0,0,0],[0.25,0,0],[0.5,0,0],[0.75,0,0],[1,0,0],[0,1,0],[0.25,1,0],[0.5,1,0],[0.75,1,0],[1,1,0],[0,0.25,0],[0,0.5,0],[0,0.75,0],[1,0.25,0],[1,0.5,0],[1,0.75,0]];gradientDirection=north;outlineConnect=0;fontColor=#232F3E;gradientColor=#505863;fillColor=#1E262E;strokeColor=#ffffff;dashed=0;verticalLabelPosition=bottom;verticalAlign=top;align=center;html=1;fontSize=12;fontStyle=0;aspect=fixed;shape=mxgraph.aws4.resourceIcon;resIcon=mxgraph.aws4.general;rounded=1;shadow=0;glass=0;strokeWidth=2;" vertex="1" parent="TyNaCP28_q_hWQBu7Goa-10">
          <mxGeometry x="531" y="624" width="50" height="50" as="geometry" />
        </mxCell>
        <mxCell id="TyNaCP28_q_hWQBu7Goa-53" value="" style="edgeStyle=orthogonalEdgeStyle;rounded=0;orthogonalLoop=1;jettySize=auto;html=1;strokeColor=#FFFFFF;fontSize=17;fontColor=default;" edge="1" parent="TyNaCP28_q_hWQBu7Goa-10" source="TyNaCP28_q_hWQBu7Goa-36">
          <mxGeometry relative="1" as="geometry">
            <mxPoint x="920" y="530" as="targetPoint" />
            <Array as="points">
              <mxPoint x="400" y="460" />
              <mxPoint x="920" y="460" />
            </Array>
          </mxGeometry>
        </mxCell>
        <mxCell id="TyNaCP28_q_hWQBu7Goa-36" value="" style="shape=ext;double=1;rounded=1;whiteSpace=wrap;html=1;shadow=0;glass=0;sketch=0;strokeColor=#CCE5FF;strokeWidth=2;fontSize=17;fontColor=#33FFFF;fillColor=#6666FF;" vertex="1" parent="TyNaCP28_q_hWQBu7Goa-10">
          <mxGeometry x="95" y="83" width="635" height="360" as="geometry" />
        </mxCell>
        <mxCell id="TyNaCP28_q_hWQBu7Goa-38" value="" style="edgeStyle=segmentEdgeStyle;endArrow=classic;html=1;curved=0;rounded=0;endSize=8;startSize=8;fontSize=17;fontColor=#33FFFF;strokeColor=#FFFFFF;entryX=0.5;entryY=0;entryDx=0;entryDy=0;" edge="1" parent="TyNaCP28_q_hWQBu7Goa-10" target="TyNaCP28_q_hWQBu7Goa-29">
          <mxGeometry width="50" height="50" relative="1" as="geometry">
            <mxPoint x="401" y="470" as="sourcePoint" />
            <mxPoint x="581" y="350" as="targetPoint" />
          </mxGeometry>
        </mxCell>
        <mxCell id="TyNaCP28_q_hWQBu7Goa-39" value="" style="sketch=0;points=[[0,0,0],[0.25,0,0],[0.5,0,0],[0.75,0,0],[1,0,0],[0,1,0],[0.25,1,0],[0.5,1,0],[0.75,1,0],[1,1,0],[0,0.25,0],[0,0.5,0],[0,0.75,0],[1,0.25,0],[1,0.5,0],[1,0.75,0]];gradientDirection=north;outlineConnect=0;fontColor=#232F3E;gradientColor=#505863;fillColor=#1E262E;strokeColor=#ffffff;dashed=0;verticalLabelPosition=bottom;verticalAlign=top;align=center;html=1;fontSize=12;fontStyle=0;aspect=fixed;shape=mxgraph.aws4.resourceIcon;resIcon=mxgraph.aws4.general;rounded=1;shadow=0;glass=0;strokeWidth=2;" vertex="1" parent="TyNaCP28_q_hWQBu7Goa-10">
          <mxGeometry x="180" y="550" width="50" height="50" as="geometry" />
        </mxCell>
        <mxCell id="TyNaCP28_q_hWQBu7Goa-40" value="" style="sketch=0;points=[[0,0,0],[0.25,0,0],[0.5,0,0],[0.75,0,0],[1,0,0],[0,1,0],[0.25,1,0],[0.5,1,0],[0.75,1,0],[1,1,0],[0,0.25,0],[0,0.5,0],[0,0.75,0],[1,0.25,0],[1,0.5,0],[1,0.75,0]];gradientDirection=north;outlineConnect=0;fontColor=#232F3E;gradientColor=#505863;fillColor=#1E262E;strokeColor=#ffffff;dashed=0;verticalLabelPosition=bottom;verticalAlign=top;align=center;html=1;fontSize=12;fontStyle=0;aspect=fixed;shape=mxgraph.aws4.resourceIcon;resIcon=mxgraph.aws4.general;rounded=1;shadow=0;glass=0;strokeWidth=2;" vertex="1" parent="TyNaCP28_q_hWQBu7Goa-10">
          <mxGeometry x="180" y="624" width="50" height="50" as="geometry" />
        </mxCell>
        <mxCell id="TyNaCP28_q_hWQBu7Goa-41" value="" style="edgeStyle=segmentEdgeStyle;endArrow=classic;html=1;curved=0;rounded=0;endSize=8;startSize=8;fontSize=17;fontColor=#33FFFF;strokeColor=#FFFFFF;entryX=0.588;entryY=-0.005;entryDx=0;entryDy=0;entryPerimeter=0;exitX=0.512;exitY=1.003;exitDx=0;exitDy=0;exitPerimeter=0;" edge="1" parent="TyNaCP28_q_hWQBu7Goa-10" source="TyNaCP28_q_hWQBu7Goa-36" target="TyNaCP28_q_hWQBu7Goa-19">
          <mxGeometry width="50" height="50" relative="1" as="geometry">
            <mxPoint x="561" y="470" as="sourcePoint" />
            <mxPoint x="573" y="540" as="targetPoint" />
            <Array as="points">
              <mxPoint x="403" y="470" />
              <mxPoint x="238" y="470" />
            </Array>
          </mxGeometry>
        </mxCell>
        <mxCell id="TyNaCP28_q_hWQBu7Goa-44" value="" style="shape=ext;double=1;rounded=1;whiteSpace=wrap;html=1;shadow=0;glass=0;sketch=0;strokeColor=#CCE5FF;strokeWidth=2;fontSize=17;fontColor=#33FFFF;fillColor=#6666FF;" vertex="1" parent="TyNaCP28_q_hWQBu7Goa-10">
          <mxGeometry x="791" y="530" width="260" height="210" as="geometry" />
        </mxCell>
        <mxCell id="TyNaCP28_q_hWQBu7Goa-45" value="" style="sketch=0;points=[[0,0,0],[0.25,0,0],[0.5,0,0],[0.75,0,0],[1,0,0],[0,1,0],[0.25,1,0],[0.5,1,0],[0.75,1,0],[1,1,0],[0,0.25,0],[0,0.5,0],[0,0.75,0],[1,0.25,0],[1,0.5,0],[1,0.75,0]];outlineConnect=0;fontColor=#232F3E;gradientColor=#4D72F3;gradientDirection=north;fillColor=#3334B9;strokeColor=#ffffff;dashed=0;verticalLabelPosition=bottom;verticalAlign=top;align=center;html=1;fontSize=12;fontStyle=0;aspect=fixed;shape=mxgraph.aws4.resourceIcon;resIcon=mxgraph.aws4.database;" vertex="1" parent="TyNaCP28_q_hWQBu7Goa-10">
          <mxGeometry x="852" y="570" width="138" height="138" as="geometry" />
        </mxCell>
        <mxCell id="TyNaCP28_q_hWQBu7Goa-49" value="" style="shape=image;verticalLabelPosition=bottom;labelBackgroundColor=default;verticalAlign=top;aspect=fixed;imageAspect=0;image=data:image/png,iVBORw0KGgoAAAANSUhEUgAAAJQAAAAgCAYAAAD0Z1G3AAAAAXNSR0IArs4c6QAAAARnQU1BAACxjwv8YQUAAAAJcEhZcwAAEnQAABJ0Ad5mH3gAAAQlSURBVHhe7ZlvTvJAEMbnfU8BwUOoieEM+IFwBj5AuATEXoLgB85g/CBnICbqIST0Fvo8yw5CLbWFafyT+SUVumx3Z2efnZ2t/waDtzdxHCP+x0/HMcEF5ZjignJMcUE5prigHFNcUI4pLijHFBeUY4q/2PyCVk9k3Ik3qUgyEVnF21Ops+3vojZBtVoiV12Ri3ORRiwLwHEprtvpL3JeW2TWx2eZSce4R2MRDDuX9CUz9ipt/wJq2fJ6I6w8OLX5BOcNRYbxShIR+FMaewr7Y0ARU4x1zoGCl/nH+FnWgNLGs6CjP4m5oHo3Ih04bQ4HTpf7K25FZ2MVLp7rW4kjiBlB4keyRGRSoV1ju/uLmAqKOUEH0YerElo6yN1d/GIMxcytprZtA9vSqW0vEbVJo7n53GLQ9k/ANIcaIZRzQhmdigSVpY2oco0HdSdknvFwjzbg4b3EFeVDrHLW77MjTMIcEY997dVTUB/a3tQF6QLtYiLDPX5LYi5T1H9A85zYfxnURi4uRmpF7aQtEy6snLZbKBtcf6QGu3lXWX8EmM8NMCexnRf0Oa1pMSt2EQrGB7sxqNdQUA5GlT4e1FxrjkEzz+gjB2OesYIDhlQFQXkb/XDrSFCPHerWwXoL9B2cHNuis1lXn29c4A/vkcuxKifoq/4tCUKJYng4NLGoM4bA0oeNPQlspz3daExZfxA9HCTaDvqeQXx1YieoszCeMFO6sL8ETgpbJJynzyxVGOAyO6MQi0aN1eNGFJ+2jgJS5G5h9aKNCSahcv8ZeJLtYQJHEOUMV171c4hjhsjNi0LhGDjBByM4fqCQNKqtsDqjOZ8p8geMoZg45lCF7bACCnuwuy7sBKUDxwSVtbd9Gb9keIQTSBWxHMMp/XN7H2A7YZUnCJJH/jyR7J7yeFHIKt4iglgRTWaIMmGhVqQVbQ9RKdoqGBdP2ndlDDgSO0HBSBXUVcUVkJ241Tp+qUjzGM+DY/rnq4EJRMScZAklWc4Rc6IxBLBGHrfd3ipyFsekglZbedKuE9NT3j33cdCBM4o0xZXH37cnHuQ2u/V1daVHCqss391/LtiqmGAvbjfbmdqyrpKYgtdoe91RPoupoLaJMSLFmDlFRlUaxvme6iwo6qO+Jp2c2S4TV5Tf5+0hiuZsWVCo3baR3xTmC6f0XxMqoObVxl9d3NPEC9wXkvEH5wIpVtjyejvJHU+J2XmxpJZ/vfA008WxV4+rCpPCZ+Qbj5ktYnvsjRw8JhO0kaCNkODuEF5VoN8blIduUY/J9hp5EgW8y/bIHinqP7yozYxjUZSHYLJucvKevGcOtd2MR321g1FrwHHhfo7I0y/rD9iy+9rg0+uQGvB/DjummG55juOCckxxQTmmuKAcU1xQjikuKMcUF5RjigvKMcUF5Rgi8g475JPQEiFU1QAAAABJRU5ErkJggg==;" vertex="1" parent="TyNaCP28_q_hWQBu7Goa-10">
          <mxGeometry x="120" y="100" width="148" height="32" as="geometry" />
        </mxCell>
        <mxCell id="TyNaCP28_q_hWQBu7Goa-50" value="" style="shape=image;verticalLabelPosition=bottom;labelBackgroundColor=default;verticalAlign=top;aspect=fixed;imageAspect=0;image=data:image/png,iVBORw0KGgoAAAANSUhEUgAAAFcAAAAlCAYAAAA3InWmAAAAAXNSR0IArs4c6QAAAARnQU1BAACxjwv8YQUAAAAJcEhZcwAAEnQAABJ0Ad5mH3gAAAK5SURBVGhD7ZlBbuJAEEVr5hRY5BAkG87AJuIMXjjyJUD4EogsOANiEZ8BISUcIha+ReZ/uxuZHpMwwTUkSj3JsttUWu7f1b+6lV9J8vYmhgq/3d1QwMRVxMRVxMRVxMRVxMRVxMRVxMRVxMRV5Nuc0PpjkcnINcBuKTLfuMYX5TJxhyKL2D2D5YNION5hKhIPXANcKsp4JjLqieSZyKpwL/+BcJI+2885XGYLEOkBgi53dTPGwPv144HNvI7ZlSIZ7tfOtmLlvse1NenEc1/3+Fh+LTIqQWa0sYe4P43OCtozMjSHgD0suXGYvj+UTsS9wfWKazWtl9toUtnxh9CPZwv4trtmaA+bE4PnFFbjf09PrIqz4/4znW/F5igQdIA2/23CwhTDRh7hf5Vv58h6FL64MTEpngeueDFmDfu5RTukisOdnp6hYHL1LDBR16ZzcQWVd4oB0n8npwYI9Vjxd09VeMUGhYa2Qu7wO6s6BSshuq/mBYrhS+jdiK3iXlxfWEIlY/Dy2vbUvbgEIjCDOMBZyxId3rmHgC0EIr0IVoOLlMjW9+i7uCpbYQlJggb6yc7cYu3PiPksOuICZlnGpY5BtwlMKGKT4gMhSbjr8JPA/TOtYwrfn2MVFIqinUsn4kaBSB7uKbkHpsC0Ac/mub73bo992Wchs5XbOxJOQOT6iVhFwam4r0A3mYsBu7H+BQ8R3ksPIKurd/i7e1+9oPI9JoHVcI3fi231eLS1ow/7SRrgZEgbuMEEVltsxvm+AGOPdh4niBR9udPj73tHW26V1liyzdUaHo1LqPSIyTjEYOApPJQ7BiqdowDu4dfcZeTw1S2XfxgH2M/TGnPYYg3++NyERXOKvrrG/rWuiFpBM0xcVUxcRUxcRUxcRUxcRUxcRUxcRUxcRUxcRUxcRUxcRUxcNUT+ABpKztqz1z/TAAAAAElFTkSuQmCC;" vertex="1" parent="TyNaCP28_q_hWQBu7Goa-10">
          <mxGeometry x="153" y="690" width="87" height="37" as="geometry" />
        </mxCell>
        <mxCell id="TyNaCP28_q_hWQBu7Goa-51" value="" style="shape=image;verticalLabelPosition=bottom;labelBackgroundColor=default;verticalAlign=top;aspect=fixed;imageAspect=0;image=data:image/png,iVBORw0KGgoAAAANSUhEUgAAAGUAAAAoCAYAAADnujR9AAAAAXNSR0IArs4c6QAAAARnQU1BAACxjwv8YQUAAAAJcEhZcwAAEnQAABJ0Ad5mH3gAAAMkSURBVHhe7ZpNbuJAEIVr5hQgcgiSjc/ALBBn8ALEJUBwCQQLzoBYhDMgpIRDxMK3yLxnupFpbII0sV0Z1SdZ/is6dr3qqnIrv4bDz08xVPHb7Q1FmCgKMVEUYqIoxERRiImiEBNFISaKQkwUhZgoCjFRFGKiKMREUYiJopAfvXTfGYhMeu4EHNcii707+cF8vyiRyDJ2x2A9Egn9FI1F4q47Af/qzMFMpNcS2c1FNom7+BUdkfFQpIvfedKjyGoh8ugQVfH96QvOHUGINV6QxHAY3v+KPV6cNsdUZI597dFNQfoi2+n5OUYQc4dnaSFQJgiYpqmspnyc4HQKg0gcIs0UcYIjGgFTYZGfETjYrDBTeAxhMNkbpdJC/4YXzyIQeX8QThdtQJimYiSkMlGesH1g2yBFcML0Jo9FIOvNbIm65LYZzqO8oEw9SIn+/rhkFj5sFwJl+NxNUktLvEDOZhQW1Zc8LNgx0t2KeZ51aXfO83FO0DGOWZxZ1GmzRZp8zhVrT2aHPWvWHI0EZ+vyXr3Ag3GY4+v/WOiLwFtO4Ri+dWkhhdfZQeWdst+c0x95wX22wHR0CrF8l5WgSXgP8w5sM7t3NxZCP6UNLpal0QiFvwWbbd1NRwH1iELwsoxYOmZWkEqiF3cQcIBjSauNlIiNpJgd9+g4u2x2IHUN0foKxpmXtcwQ6g+ea4diX3S7buoTBTCq50xJcFaRMITOz5N8IQAJuzgvHr9/mOKmqGsLzLqkxONMdSlsH/7GqZjKRGkHzvUkcA6/YSgM05Vn/3bet56v646Pes4OttkkFK7txmmzuwBldjfgD7EZEAiiaSWgupkCRzkf3cCPR18rLsAp2TX8ru+rOpzWh3jsEpjrk0N2eNVis854cbvxOV09QfjsE4l2fixA20snh/0MM4R1hPEQwY7bgN0fNm/WBJUvs9xbQmGU8qs6nzXCJZibpQ9467I8Aofu0BicUI/Yte1QNw5MU6Ed4DivW2jPm8EzhrCRmGKcprD/JVZIrYXeeAwTRSEmikJMFIWYKAoxURRioijERFGIiaIQE0UhJoo6RP4CpJjwNAzrsjgAAAAASUVORK5CYII=;" vertex="1" parent="TyNaCP28_q_hWQBu7Goa-10">
          <mxGeometry x="505.5" y="687" width="101" height="40" as="geometry" />
        </mxCell>
        <mxCell id="TyNaCP28_q_hWQBu7Goa-93" value="" style="edgeStyle=orthogonalEdgeStyle;rounded=0;orthogonalLoop=1;jettySize=auto;html=1;strokeColor=#FFFFFF;fontSize=17;fontColor=#000000;" edge="1" parent="TyNaCP28_q_hWQBu7Goa-10" source="TyNaCP28_q_hWQBu7Goa-78" target="TyNaCP28_q_hWQBu7Goa-92">
          <mxGeometry relative="1" as="geometry" />
        </mxCell>
        <mxCell id="TyNaCP28_q_hWQBu7Goa-78" value="" style="shape=image;verticalLabelPosition=bottom;labelBackgroundColor=default;verticalAlign=top;aspect=fixed;imageAspect=0;image=data:image/png,iVBORw0KGgoAAAANSUhEUgAAAKgAAADLCAYAAAD6K9hAAAALa0lEQVR4nO3dP2zb2B0H8K/atDgcWurkAseija5wYwdqoEHxUkAGhBpFB+oG5YDCENDB6EJvdZZsGW/z4nQzl0OGA4ygw2k4c3QhwBwdD0JOiJ26Ddtr1QJWzRZF0T/QDSQlWtYfSnqSfra/HyBDTOrxl+hrvsdH8Slhmq0WiIT62rwLIBqEASXRGFASjQEl0RhQEo0BJdEYUBKNASXRGFASjQEl0RhQEo0BJdEYUBLtzjQatazENJoloUxzeh+IUxZQhvL2ir73qsM6cUAZTIoK86AqqBONQRlO6seyEkryMXZAGU6KY9KcjNzFxz3gNAfOJEecPFhWYuw8KL+KZzBvl+j7PSis44Y0McpDc4MKGOng7iYs2wpfCcPcRbp7l2oCdr3z94zRQqF7JxJJWU4wQkBVHtR3Cre67IdQ30G5tAXtyj42qpXXyPXcRpKpykusiyT14QSAJSQXdpDJAGg8xkHttMc+y1hIjdk8zdWgXIxy4TTRNJOK8eZi4QR5HWg4G6h5EzdHgqjIx9CLpH5pV3HwCwBJLCFd2se5VYSzt4lkj/FolOdu4uDIQqPh/13P7GCt4A8BvNoq9hwn2LADY+UVjsJ9dRPG2hPg7TaOHAsNBD8rRY7n2ageFFFvAEAemfxzFLJLwcZTuNUN2PWgfeSRMZ6jkD5B1SqiPVzO7MDAi/Z+emYfawWjPUQZVH94nFp1A054HN2EsbaLdLuBQTXKY5qtnhmKe9Ek5MMiBgrlHeiwYFeeoe+J1N3Enm0htdKCabZQNkw06o9x7PqbtewhzPIO9HD/5C5KJX8/NCzYB58jmd1FyWyhnM/7P6vawc42qntF1LGDstlC2cii6SzDCre727DrWRhmeOx1NO1tuDBQCNsDgCaA3GGkviL22m0Mrh84Ra2yDKeehVH29zFSFuy9TbhxaryBxgpo/+SfwvNs1GqbqFZWYVXC/9gYtC2UDBNoPO68od3SuzDNztW8lnzQCWO31P32WUdLP0Km+3AfrPuvbb72fyHcz1AHoN/70D+bJR8hpQOofxwZelg4c0+DNrewEmlUS2aB4PWd4+7CyETaGFa/uw2nAej5J+020rl9ZHQLZ27cGuWZpLcd2MWPdhfARtUqoqmbSN17gMWVJ8ill0a7+k7vomwAe3YRlYUTlLK9d/M8G2+PP253gyquo7yLGgCg4SzDcgBdN5G6t4/ymgFNA6A9QgYW6vYy6sgjk3+KXGF36L8vvWgC9Vqs+sMaUslIl60ZKJT8N9irDanxmonTzY88Ud+/Qb+rm5SW3kU5X8Oes4wK9nGva7tbXYXdzMJYO4S5GJ1PjSF1v2+gLs79sPSfbzVQME+wGIxD604Rdaf3HO4gg+oPa+hneI1y9RuLDjPHMegpLs57b9GyhzAyQMMpwmlGNribsOtAPrho8M84eSwkJygjCG1ywR9DNi96TXcBXu0ZXCwhXTiEaZ7AyOcBWDjqmh5rvPn80hjarzGLpDa8/rCG+lnvIc6wGm+i+V4kNV/hos+mdDD9FOW/oQ7O3/pj3eNzQIeDN28nf8O07FNkEEx3uZ32vNozuB4AvIBdtYPwLSH9wToy6OqOAaDxAsfh671nOHAcf0wZo/6wBtSLqNTsTtA9G9XaaYwab56Bd5J6nZKV3Gt3L3dt/bus7jtJNqoVf4olnL6Bu4kD20IjswNj4QVsJ9pNmjDKD3C09xiN8Ef6Dsorr7B3aWgQdNWXpnD8KaCV3JZ/weLZqEXGjf72fZQKxqV/k57fx73zcL/uaaDB9ZcLW9CuTDPlkVl5jkI6aGNQjcKNk6f5BPQmCn/pMvsww9DSJePkScg8KFFvDCiJxoCSaFN57Pi2ufTZ1XoRVh3Q8ycoCb5Hfl0woAqkCy2YhXlXcTOxiyfRGFASjQEl0RhQEo0BJdEYUBKNASXRGFASjQEl0RhQEo0BJdEYUBKNASXRGFASTc3H7RSt9xkuaPCm7nQecgMA5KHr61hZ8x8Ou7QGU0DPn6CU3B6vjuQzVKIP1l2qz7689lKfdmk6FD40N8l6n8GaRA1/Qa7oiiSed4qL4w3/efLyIbJapC2riPqVwIxbRyeIPX95aqvYO3/KB+ImMOeH5sZd7zMMpwnDPESha7kcTfMXSyjn1/3FD6ZWR7iAGVC3u9eUsnH8JguD4Zw55WPQUdf79GobcBpAxhjcbWrZrZG61bHWHdW2sBasGBJdZc+tfoaFNXbr86A0oOF6n9nSPjJw4OwNW93OxrHjADCxqPDdH72OjnDZnfDs69U2cba4Gxla0CxN6So+5nqf3ms0AUB/gEmWV5q4ji7pwn6wxMwyDvDk2i3UdZNMb5opznqfA52iVkm0v7Gs/WeEoI1fh4FcsCBtw9mOv8YpKTfdedD0rr+6cb2ISs+LlUCj1yJiS8iWWjDNziJiGaMFc5xv/IhbR8CtruI4+TxYNXm0sy+pNfWJen+9zzwazjIqtZOujfeDxVuDFYR7WkJSwQq1A+toO4VbXcXZYjCb0DUepdlTGNAx1vuMdKVXp3ZmWYfPrW4E4ez8rDMe5beQzIPaM+iI630CYWiCrtRaRbVmw4sEwXM3cVQHoPdbqLaGi+7gjFGHV1uF3VxH7soFkYGCYQLhbABDOlNq7iSNvd5nR+/bnHnomXWs5D5EWossI+NdvTV59VZn3DrCGwWdY/a+Y9VxHZfgloDrg5JoXB+UbhwGlERjQEk0BpREY0BJNAaURGNASTQGlERjQEk0BpREY0BJNAaURGNASTQGlERjQEk0BpREY0BJNAaURGNASTQGlERjQEk0BpREY0BJNAaURGNASTQGlERjQEk0BpREY0BJNAaURGNASTQGlERjQEk0BpREY0BJNAaURGNASbQ7Khv73///iab3Eu5ffqOy2alIf/fnSGkPcefr35p3KTSA0oD+/stP8YcvP1XZ5NQ0vZf4wfd+gaX05rxLoQGUdvF//ts432o8P9et3ttI6Rn0P//tfElmSnuosmmlmt5LAJfrJZmUBjTqvW/n8MO7v5xW82P73R8/aQeU5ONVPInGgJJoDCiJNrUxaLemd4yjL341q8O1rfzo10hpuZkfl9TgGZREY0BJtJl18QCw+H15004k28wCmtJyHAvSyNjFk2gMKIk202mmeeHQ4vqa6UXSvOZB6fpiF0+iMaAk2ky7eHa3NKqZzoMSjYpdPInGgJJoM50HncejFintIYcX19hML5LO/vTJLA8HQPbDezQcu3gSjQEl0WY6zfTTH1dndTi6IXgGJdEYUBKNASXR+NgxicYzKInGgJJofOyYRONjxyQau3gSjQEl0RhQEo0BJdEYUBKNASXRGFASjQEl0RhQEo0BJdEYUBKNASXRGFASjQEl0RhQEo0BJdEYUBKNASXRGFASjQEl0RhQEo0BJdEYUBKNASXRGFASjQEl0RhQEo0BJdEYUBKNASXRGFASjQEl0RhQEo0BJdEYUBKNASXRGFASjQEl0ab2NTR//8cxjr7YmlbzdEsoDei776Txr3+7AICm91Jl01Px7jvpeZdAQyjt4u/qj1Q2N3XXrd7baOQzqGUlYJqtntv07/wMicQd/PX8txMXNm3vL/wE7y+szbuMW8OyEmO9bmBATbM1UsPf/MZ7uKt/hLv6R2MVQ7dLvxNdFK/iSbSxAjru6Zpup0nyMjSg/U7DDCnF0S8ncbp3gF08TZGKk1isgMZNO1FoUDhHyVPCNFux91Z1ULrZVOZE2Z2ksCgG9fYa1qWPk42RxqBxDmBZCV5A3TLTfM9H6uKjGEKKa5JedeyreHblFMekOZlomokhpX5Ms6UkHxPPg6oqhG4OlXlQdhUfLYrj09tlmieoqXyinmdUUoW3Okk0BpREY0BJNAaURGNASTQGlERjQEm0rwAlqdnXZmcuQwAAAABJRU5ErkJggg==;" vertex="1" parent="TyNaCP28_q_hWQBu7Goa-10">
          <mxGeometry x="623.84" y="120" width="91.04" height="110" as="geometry" />
        </mxCell>
        <mxCell id="TyNaCP28_q_hWQBu7Goa-81" style="edgeStyle=orthogonalEdgeStyle;rounded=0;orthogonalLoop=1;jettySize=auto;html=1;exitX=0.5;exitY=0;exitDx=0;exitDy=0;entryX=0.5;entryY=1;entryDx=0;entryDy=0;strokeColor=#FFFFFF;fontSize=17;fontColor=#000000;" edge="1" parent="TyNaCP28_q_hWQBu7Goa-10" source="TyNaCP28_q_hWQBu7Goa-79" target="TyNaCP28_q_hWQBu7Goa-78">
          <mxGeometry relative="1" as="geometry" />
        </mxCell>
        <mxCell id="TyNaCP28_q_hWQBu7Goa-79" value="" style="shape=image;verticalLabelPosition=bottom;labelBackgroundColor=default;verticalAlign=top;aspect=fixed;imageAspect=0;image=data:image/png,iVBORw0KGgoAAAANSUhEUgAAALgAAADNCAYAAAAL3Lq1AAAMW0lEQVR4nO3dTWgbiRkG4FdtWpallVYu7JQ2k+LaDmrQQetLQQFRU3oY7UFZKIugh6WX8a3Oxbccc8vF7s1zWfawYEIP0SGeo4vAc3R8EFkRK03rabdVC1Y9LaX0B+1hZvT/G400o0/vA4HYMxp9wq9G38xIn2K63myCSKivhV0A0Twx4CQaA06iMeAkGgNOojHgJBoDTqIx4CQaA06iMeAkGgNOojHgJBoDTqIx4CQaA06iMeAk2q2wC/AZRizsEmiBdH0xn7MJNeAM9erq/NvPM+yhBJzBpk5+HuYR9IX34Aw3DWMYscDzsdCAM9w0iSBzspAWZdKCF3XgQeGaJA+GEQskD5E4i8Jgr5bOv/eosAcR8ti856KMegBTFW/vwjAN/5bQ9COovauUYzCr7Z9TWhO53pUokgLLSY+5Bjz4omuwy1tuiJUDFAt7iPetY6JceoXMwGUUZfMI+dwOMufzjNxEYu0AqRSA+kOcVmoD1tnCWvItN0+hGpWLtz3wXPhpwiD67fXcJbIKULc+QcUJoCiKjKCPx+ZykDns2RZE8TcAEtiEWjjBtZGHdbyLxIB+vJNj7+L03EC97v6spA6wk3NbGKdyH8eW5S04gLb9Euf+uooObWcfuHqCc8tAHd7vCh3355gon+ZRrQNAFqnsZ8ilN72FNdjlT2BWve0ji5T2GXLqJcpGHq3DhdQBNDxtraekTrCT01ot1qj6/fuplD+B5d+PokPbOYLa2sCoGqNH15sDM/Q2B51L/GYrDbniARQYMEuHGLojt3dxbBpIbjeh600UNR316kNc2O7iePoMevEAir9+4giFgrse6gbM0+dIpI9Q0JsoZrPu78qmt7KJ8nEeVRygqDdR1NJoWFsw/OX2E5jVNDTdv++P0TCfwIaGnL89AGgAyJx11JfHcWsbo+sHaqiUtmBV09CK7jpa0oB5vAt7khqFW1jAhz/zanAcE5XKLsql+zBK/h9mAvE9FDQdqD9sB6KXegRdb59NiSfutcPcK3m3tdeLqw+Q6r27Ox+7t228cp9Q9jNUASgbH7p708QDJBUA1ccdrZOBN3bN2+Yetjs2Gk+kAe/27fs9gpbq2Ma4+u0nsOqAkt1vbUPNnCClGHhjT1pj9ATVqgTeokx3MGCibOTRUHQkN+5hfXsfGXVzurMf6hGKGnBs5lFau0QhPXg1xzFxdfG49TIexHGoc1MBANStLRgWoCg6khsnKO5oiMcBxB8gBQNVcwtVZJHKPkImdzT28anrOlCtTFS/X0My0dFyxDXkCm5AnMqYGpfMtG3KQi70DC/IfameVVw9QjFbwbG1hRJOsNGz3C7fh9lIQ9s5g77eeT59Asm7QwN5c+2Gbfj5dg05/RLrXh9etfKoWoPP4Y8yqn6/hmHG1xhdw3rxaSxZD17DzfXgJfH0GbQUULfysBodC+xdmFUg6x10uXu8LNYSM5ThhT6x5vbQjZtBpysBp3IIG5tQc2fQ9Uto2SwAA+c9pzfrr593HUO4NaaRiI+v36+h+mZwizauRumWLOAAGi9xM2SR6p0+7OQGwsL1ldvrX1wDCiy8vpr9Dx5PP0IK3ulKu709p3II2wGApzDLphfeTah3PkYKPe0EANSf4sK/vXOIU8tye+oJ6vdrQDWPUsVsP1EcE+VKbYIaZQv8Suagl5RADhjs7pfm4S+5vVcyTZRL7iky//Qb7F2cmgbqqQNoa09hWp0v8zq04j2cHz9E3f+VcoDi9kscd7U2XqvRdQrOPYW3ndlzD/gcE5WOvtldfoJCTut6TEr2BBvX/nq9p/FG11/M7SHed5owi9T2Z8ip3jZG1Rhxs+ZpeQIukf+kTZ1A90NPXWbN0/K1KERTYMBJNAacRIvEBx5WUdd716t5GFVAyV6iEOH3iCwjBjwkaq4JPRd2FfKxRSHRGHASjQEn0RhwEo0BJ9EYcBKNASfRGHASjQEn0RhwEo0BJ9EYcBItMm+26p0wNXiw5uD1U1oTucQhSp0fMxvI/ZgZ/HfyKVkoAOr19uQpRen+OVs8Q7qnEKdyH6fXj7qmTwHo+1jd0Mcyy3pdt+mZYEV9ovWRNacd0tFjDkxv9Fl/AP23obbfelqD4wA3N89x/uYuCjn0TZ/1nyzdb1etoVJ6gkShd8SDN8tl6FtbvUlT9cFPjunXG1CfU4N94Y+Em34MxTKR9ZG1eHvyU/V81Di2Z6gOW9ZnE/H4JlR1z/uwr4bcRKOVN5HuCzfgVB6jiv5RD/28sQ9jTbpeh7g7ikJLAe7krClvv0KiFXAAgD5mPHINlZt7feMhevWNZghEDVd45N53/SmuQh674M48mXHGi3ARDDiwnnGHYdatJ/1zCu3nwJ0Pp9+ofTj7LD77OZDQcGcjC8CCdRHiAEvHxMVrIKWNbm9WXWQOMl013DSARHwP26mHMKsGziv7UDt6XfsGuKMCV2O2VDVjPW2MDk2frTr7zUskckBcfYSUlUe1+gx2TltY/+vPF3RlkdXOkJbafAckkntwAFBbe/GOIffOIW4Sk301SUpzRwm3/mkPZivIOcSbtX0vzBrWvf63dwzbPCnZS/exFC+hpQDLjMEYNTqaohvw9gFnuxVwrl4i8bZ7LHW2Pa1z9RRVa6v1ZaX+B4bHH2zOgXeQ6c4rHzE6miIccABq7sSbu/cYFcfEFR6MDak/bDJYJi5etwfZu/+82kI82GzPJXw2+Uz1FRPpgAMaMlnvgO44j+tESOPN7GdobOz3PLk6agvrYNN5hQYAKPfAEymDRSzgl7juuRTZ2kspB8j07b4tXA8ZNds1LtjxvkWifB+lqXvmGirnFWzc6T/t2PrGh2oe5bG70Boc+xDlUmzMuiPWu75s/98xUT71Lopt8ysTh4nOlUyn+1J711VFexelm33vZ7P7C5wAd3hl5tXEl+rbz5MB20LnVdSe5Z1DMgdcRleUbMdl/iEGTqodsl7hLi4G1Ne+Px3bwi/Vc7osiSbrUj1RwBhwEo0BJ9EYcBKNASfRGHASjQEn0RhwEo0BJ9EYcBKNASfRGHASjQEn0RhwEo0BJ9EYcBKNASfRGHASjQEn0RhwEo0BJ9EYcBKNASfRGHASjQEn0RhwEo0BJ9EYcBKNASfRGHASjQEn0RhwEo0BJ9EYcBKNASfRGHASjQEn0RhwEo0BJ9FuhV3A//7/TzScF7D/8puwSxlL/e7PkYx/gFtf/1bYpdCEQg/477/8HH/48vOwy5hIw3mBH3zvF9hUd8MuhSYUeovy57+ZYZcwlWWrd9WFvgf/z3+vW/9Pxj8IsZLRGs4LAN31UvSFHvBO7307gx/e/mXYZfT53R8/bQWclkvoLQrRPDHgJBoDTqJFqgfv1XAucP7FrxZ+v9s/+jWS8czC75eCxz04icaAk2iRblEAYP370TttSMsj0gFPxjPshWkmbFFINAacRIt0i9JwLkK7b7ZGMkQ64ABCOw9OMrBFIdEYcBIt8i0K2wWaRaQDzgM9mhVbFBKNASfRIt2iNJyLUD4qlox/wPZIiEgHHADe/OnThd9nlD/8TNNhi0KiMeAkWqRblGQ8g5/+uBx2GbTEuAcn0RhwEo0BJ9Ei3YNzbATNintwEo0BJ9Ei3aIAHBtBs4l0wDk2gmbFFoVEY8BJNAacRGPASTQGnERjwEk0BpxEY8BJNAacRGPASTQGnERjwEk0BpxEY8BJNAacRGPASTQGnERjwEk0BpxEY8BJNAacRGPASTQGnERjwEk0BpxEY8BJNAacRGPASTQGnERjwEk0BpxEY8BJNAacRGPASTQGnERjwEk0BpxEY8BJtEh9jeDf/3GB8y/2wi6DBAk94O++o+Jf/7YBAA3nRcjVjPfuO2rYJdAUQm9RbisPwi5hKstW76pbyB7cMGLQ9ebAZcp3foZY7Bb+ev3bRZQyk/fXfoL313bCLmNlGEZs5m0EHnBdb05V2De/8R5uKx/htvJR0KWQQMN2lMOE3qIQzdPCAh7Eyw2tjqDyMpeAD3sZYchpEsNyMm17ArBFoYgJeic4t4C/zbONVtuocL9tnmK63pxrEudRNMkzr5yEeiXTf1AM+uoa15LMmo259+CTFGgYMR6ArphF/c3n3qJ0YohpUkG9qi/0LApbEZpEkDlZ+GlChpyG0fVm4PkI5Tz4PB4ILbd55SHUsyidD4r9+WpZ1A4u9A88+LhHp3ngpXoSjQEn0RhwEo0BJ9EYcBKNASfRvgIMz+kzC/GV/QAAAABJRU5ErkJggg==;" vertex="1" parent="TyNaCP28_q_hWQBu7Goa-10">
          <mxGeometry x="600" y="290" width="98.73" height="110" as="geometry" />
        </mxCell>
        <mxCell id="TyNaCP28_q_hWQBu7Goa-80" value="" style="shape=image;verticalLabelPosition=bottom;labelBackgroundColor=default;verticalAlign=top;aspect=fixed;imageAspect=0;image=data:image/png,iVBORw0KGgoAAAANSUhEUgAAALAAAADiCAYAAADu8U2iAAANPElEQVR4nO3dTWjj6B0G8MfttixLq9QprEo7npImGdzBh2wuBQ+YhtKDsgfPQhkMPQy9KLcml9zmuLe5JL1Fl2UOCyb0MD5MdEwxRMdMDiIrJk6njdpt3ULcqKWUfpAeZCWOx9/Wh//284OBmUh59Wr8WPrrlfU6pevX1yAS6itJd4BoHAwwicYAk2gMMInGAJNoDDCJxgCTaAwwicYAk2gMMInGAJNoDDCJxgCTaAwwicYAk2gMMInGAJNoDDCJxgCTaAwwicYAk2gMMInGAJNoDDCJxgCTaAwwicYAk2gMMIn2XlwbMoxUXJuiCaDr8cwZGWmAGdrZ1fraRxnmSALM4FKrIA9RBDn0GpjhpW4MIxV6PkINMMNLgwgzJ6GUEIN2KK7CnpI1SB4MIxVKHmIZhWBwZ0vr690rzGGEODXud2T06uBQnXM3YJhG8JvQ9D1k2leppmA6t//OatcotK9EEym0nLQZK8Dhd6oGt7rsh1TdQam4CeWddUxUK2+w0nEZTbIoQjzyRVw076glzM3vIJsFUN/CoV3rsM4y5tMjNk+J6pWLUS/sQh9GC6PeXSicIa8CdespbC+ETtHECPt6aKSLuG7vljA6dwVgDkvIFA9waazDKm9grkM93MpzN3B4bKBe9/+tZnewVvBLDM9+hLJlNRfsQFs9xXGwrqpDW9sGLp7j2DJQR/NnxZbteSaqh+tw6gCQRzb/AoXcUnNhDW71KUyn2T7yyGovUMicoWqs46Zcz+5Aw/7Nemr2AGsF7aYE6tX/YDt29SmsYDuqDm1tD5mbBnr1cfLo+nXHDI1yUTfBH+bRUCjtQIUBs7KLrgdidwNl00B69Rq6fo2SpqPubOHE9RcruSPopR2owfpzeygW/fVQN2AevsJcbg9F/RqlfN7/WdVsrmyiWl6Hgx2U9GuUtBwa1jKMYLn7HKaTg6YH236ChvkcLjQUgvYAoAFg5ailf+so37TRu/9ADXZlGZaTg1by19HSBszyBtxB+jjlQgtw93dODZ5nwrY3UK08glEJ/uMHoGyiqOlAfev2BW+X2YOu345GKHMPb8PaLv3g5qilZB4j2765+0/832288d8w7ks4ANTFj/2j4dxjpFUAzqctpY2Bt26t2eYmVlsaVeZyQPP3b7e7By3b0ka//rvPYdUBNb9900Zm5QBZ1cBbd9A+Tp6wSomhS4jhim0TVWMdDVVHevEhFla3sZJZGm70ILOHkgaUzXVU5s9QzHVezfNMXJx8enOaDeM6z7uyAQB1axmGBaiqjvTiAUprGhQFgPIYWRhwzGU4yCObf4aVwl7f/css6IBjD9T/oA/puZaSQNFQKPoB8Ow+fRRm2DIilBsZ3Tfon0rHpWT2UMrbKFvLqOAAi23L3eojmI0ctLUj6Aut48kDSD/oGrirSz9M3cebNRT0Myw062DHWodjdR7D7qVX/4M+dNO/j5OrWy08jAmrgWu4uuy8RMkdQcsCdWsdVqNlgbsB0wHyzYsa/4iVx/zcGN1ohnpu3q9hG1edhvMAz96FiyVkCkfQ9TNo+TwAA8dtw3/181d3ani/jznMKf37H/TBedu5hOrXx2k3YQEG0DjFVZdFmebwWiv/BbdweeHX2ieXgAoL5xfjv6BK7hmyaA7nubftefYuXA8A9mFWzWY4l5C5/wRZtJ3uAaC+j5Pg971dHFqWX9MO0P+gD3DWUbHN2zeCZ6Jq1wbo43Qb+k5cp0N+KAW5e/fU2f2U2H4nzkS14g8hBcNTcDdwaBqoZ3egze/DtFpPwzq00kMcl7dQD36k7qC0eoryndKjWQrcGaLyh7hWVzb9CyrPhN1St/rLD1AsaHf2Sc0fYPEyWK99mKt3/0uFTSjvDKPlkV19gUKm2UavPk64cfM0OQGeRsGbMnsAPQg13TFuniavhCAaAgNMojHAJFpsj9XPmjufXXbWYTiAmj9DcYI/oyARAxyRTOEaeiHpXkw/lhAkGgNMojHAJBoDTKIxwCQaA0yiMcAkGgNMojHAk8zbRcVI+c8ReoDn7k70c25JYIAnmHsBrOpn0BZtmOUUDt8+QE7AZ3zjxFvJEyyT2/T/kjuC3uVh1lmXWIA9+xEOL5/dmeDDX7CLankLTpffuzPph9vhAc4Oc6rdmdwkWK3DB2uCJ4PPHev2aQ1/ZajpDn3tty/t60Xafg2u/RzH57cTpAD+U8qLq9vIZabzQ0QJBdjEiWUB+eV3XxBlEwV9EwvNT3PdPloUzIKzhbJz6j/uk9mDrm/7E3/U88iXjjqeYpXcEfSc2Zwtp9NTw8EjO0BWe4G1wu2j/55n4uRwHU7jDYBOT1X02Je42nc3UDENIH+AtWLwWH8NnvsKJ8dbsEwDVvYApT5vMIkSqYE9+1M4ePdp3d78p3+1LNDpyd+bp3yH1jLzjX6EQtu8FYqioVA8Q36x8+P3/fcl4va93WZ4z1DMtQZ0CUpm029bBeCsd5ksUbYEAlzDBZ75/6n1fVwMeVWdWdABAPXLs1B649lPYdWBrNZrLocl5HKdjo799yXa9muwD7dQh47Vrp8zXkJuzZ9aq249H3xWJCHiD7D7CpjTcH8xD8CCdTLcHF7BTDXq/HIInWmenqFjYZRJQfruS8Tte69wXgegPkTPaTCUj7GoAoCNqykbhos9wO7bU8xlWuc7eDnwUcFz/TkV0POIMwTvDRpA/wB00Xdfom4/0GN2oWkXb4C9Xbyd326eSjUsdK1nbzlm6ubrmcrmPpDdQWnIqZu6ujr1RwNGCcAg+xJX+8FkhDMo1lEI72IfjrUFp226r/r5K3i5zl8ZEOmcX82ZIOuNN/Aw3BX6QPsSV/t1fzaj/u2PeqE7uWI8Aps4Ob+dS9f/c+CfGke4mAuF8sCfBXLo7Q+4L3G136+2HbRWFii+ALsv0Vjcbjv1a1jJj3YxF46W7R/2mEQbNdjVluUD78tktO+ebKGOPPJr0/fFODEFuAb72Mbi/XcvvG4mlXbWUQ11jKcGz91FtZJqa/fu0UrJvWgOU22hXNmA692txz3PbN6EOG3+3nD7Enf7rRP8wTNhVx/BdPyvPpjGz1HEMjda1Ui1fF9EyzxhHW4Fq1kdcIy7t1rR5S5bp1vJ7dQdlNaAw9bJ/PDurWTP3cXJ8T6cemvRmYeq5rC4uo37mSUoMNu++6LPvrRsI7H2s08meqI/Tu4nTg22fdblxsXs4eR+4pwBly9R6fXFNTQwBjh2GnKFPaymExp5mTIMcNzcDVSMFMzGE9yf0LpUEn6gPW6ZPRT1vaR7MTV4BCbRGGASjQEm0RhgEo0BJtEYYBKNASbRGGASjQEm0RhgEo0BJtEYYBKNASbRGGASjQEm0RhgEo0BJtEYYBKNASbRGGASjQEm0RhgEo0BJtEYYBKNASbRGGASjQEm0RhgEo0BJtEYYBKNASbRGGASjQEm0RhgEo0BJtEYYBIt8i95+e///oGG9xrun38d9abGlvnOz5BWPsJ7X/1G0l2hAUUe4N99+Tl+/+XnUW8mFA3vNb7/3Z9jKbORdFdoQJGXEH/6axLfQj86af2ddZEfgf/9n8ubv6eVj6Le3Mga3msAd/tLky/WLzr81jdX8IN7v4hzkwP57R8+uwkwycJRCBKNASbRGGASLdEv+254Jzj+4pexb3f1h79CWlmJfbsUPh6BSTQGmERLtIQAgIXvTd6wGsmRaIDTygprURoLSwgSjQEm0RIfRksKS5fpkPhFXFLjwDQdWEKQaAwwiZZ4CcHTOY0j8XFgonGwhCDRGGASLfFx4CQe5UkrH7F8mRKJX8S9/eNnsW9zkh8upeGwhCDRGGASLfFhtJ/8qJpkF0g4HoFJNAaYRGOASbTEx4H5WD2Ng0dgEo0BJtESvxPHx+ppHImPA7MWpXGwhCDRGGASjQEm0RhgEo0BJtEYYBKNASbRGGASjQEm0RhgEo0BJtEYYBKNASbRGGASjQEm0RhgEo0BJtEYYBKNASbRGGASjQEm0RhgEo0BJtEYYBKNASbRGGASjQEm0RhgEo0BJtEYYBKNASbRGGASjQEm0RhgEo0BJtEYYBKNASbRGGASLdav2frb309w/MVmnJukKRd5gD94P4N//ssFADS811FvbmwfvJ9Jugs0hMhLiHvq46g3ESpp/Z11oRyBDSMFXb/uuEz99k+RSr2Hv1z+JoxNRerD+R/jw/m1pLsxMwwjNXYbQwdY16+H2vDXv/Yt3FM/wT31k2E3RTOo24GwG45CkGihBTiM0wHNjrDyMlKAux3mGWIaRLecDFs+ACwhKGZhH+RGDvAo7xaabb3CO2qeUrp+PVYSo+gUTZ+ochLpnbig0wzy7OpXMoybjbFr4EE6YBgpXuDNmLhe87FLiFYMKQ0qrLNyqKMQLBVoEGHmJPRhNIaYutH169DzEck4cBQdJdmiykOkoxCtnWZ9PFviOoDF9kQGj8gUBd5KJtEYYBKNASbRGGASjQEm0RhgEo0BJtEYYBKNASbRGGASjQEm0RhgEo0BJtEYYBKNASbR/g9Ghv6hrfLAcwAAAABJRU5ErkJggg==;" vertex="1" parent="TyNaCP28_q_hWQBu7Goa-10">
          <mxGeometry x="393.65" y="216.56" width="88.34" height="113.44" as="geometry" />
        </mxCell>
        <mxCell id="TyNaCP28_q_hWQBu7Goa-82" value="" style="shape=image;verticalLabelPosition=bottom;labelBackgroundColor=default;verticalAlign=top;aspect=fixed;imageAspect=0;image=data:image/png,iVBORw0KGgoAAAANSUhEUgAAAK4AAADeCAYAAACkLjsvAAANQUlEQVR4nO3dP2zb6BkG8MdtWhwOrXRygWPRRle4tgM10ODzUoABhBpFB/oG5YAiENAh6EJvtZdsN97mxe5mLocMBxhBh2qIOboQYI6KByFHxErThu21bAGrZoui6B+oA0mLkimZkqg/r/38prNFk6+iR+TLj/x4C7reboNImK/MugCiUTC4JBKDSyIxuCQSg0siMbgkEoNLIjG4JBKDSyIxuCQSg0siMbgkEoNLIjG4JBKDSyIxuCQSg0siMbgkEoNLIjG4JNKdaWzEMBamsRmaE7o++fm3Ewsuw3p7RT/7SYU49eAysBQV5iHtAKfa4zK01I9hLKSaj9SCy9BSEmnlZOxWIWkh02jYafaS5MEwFsbOw8RHFRjY2yX6eQ8K8bjhXRjn2WGDChuqKGcLhmmEfwlNP0C+d5HaAky783NBa6PUuxDNpdRyEjFycNMvpgmntuqHU9lDpbyNzJVlTNSqr7AW+xrNs7TzMtLJ2SS+QcAKsot7KBQAuDs4bjRjllnFYm7E1dNMDcrFKCdsqQ6HpdHPLpXOoCqAaz1Gw0uhKJobaZ7vDH1y1u/bkUZRFwCyWEG+fIRzYxPW4RayMf1ulOds4bhuwHX9n5XCHjZKfivhNR7g0LKCF/agrb9EPVxW0aFtPAHe7qJuGXAR/K4c2Z5nona8CdsFABUF9SlKxZXgxSac2mOYdrB+qChoT1HKn6FmbOKyHS/sQcOzy+WUwhE2StplqzOo/nA7jdpjWOF2FB3axgHylysYVOP80fV2bIaGPVmb05tsNJQqe1BgwKzuo++O19nCoWkgt96GrrdR0XS49g5OHf/lTPEEemUPSrh89gDlsr8cXAPm8XNkiwco621UVNX/Xc0MFjZRO9yEjT1U9DYqWhEtaxVG+LqzC9MuQtPDbT9Cy9yFAw2lcH0A0AKwdhKpbxOHl+sYXD/QRKO6CssuQqv4y2g5A+bhFpwkNd5gqQS3/zelCc8z0WhsoVZ9AKMa/oMnkNlGWdMBd6fzQffKH0DXO6MLmez9Tkh75e5d7qUy+Yco9G7ug0f+37Ze+V8U59ewASjLH/l7v+xD5BQA9qeRFsbAG6cZrHMb65GVZrJFIPj7znYPoBUi67iufmcXlgso6pPLdeTXjlBQDLxxktY4f9I4Og/VKgzXRJuoGZtoKTpyy/extP4Ea/mV4UYD8geoaMChuYnq4hnKxfjFPM/E29NPLw+naZy/eRcNAIBrrcKwAEXRkVs+QmVDQyYDIPMQBRiwzVXYUFFQP8Fa6eDa95df0gG7kaj+sIZcNnLoz2golf0P3mtcU6Mww7QLY1+A6L8h/5A5rkz+ABW1gUNrFVUcYbnndaf2AGarCG3jBPpSdDw4gdy9vkG7OPdD1H+8WENJP8NS0Ofa1iZsK34MepBB9Yc19HN9jfOrX6+b1Bz1uE1cnMe/kimeQCsArrUJqxV5wdmCaQNqcLLi76FULGbHKCMIc3bR71FbF3HDcoDX2IeDFeRLJ9D1M2iqCsBAvWcYz339vKtH92ssIpu5vv6wBvtNfKt0XY032RwFF0DrJS76vJQPhsmi/A/awvlbv5c+PQcUWHj9dvwPMlP8BAUEw3JOZ31eYx+OBwDPYNbMIJQryH/wCAX0HNYBwH2G0/DvvX0cW5bfsyaoP6wB9iaqDbPzBfBM1BrNBDXeXENdOYvbtacyNud0HyL7H/p6r5yZqFX9oaBwmAnOFo5NA25hD9riM5hW9HCrQ6vcR/1wB274K2UPlfWXOOxqMYJDftdQkz9Utb627Z8oeSYakb7Uf/0I5ZLW9Z4U9QjL5+FyvcNVg+uvlLaRuTIcpqKw/hSlfLCOQTXOuXHyNB/BvYnCL2PhCHoYZuoyTp7mq1UgSojBJZEYXBJpKtPTb5uue4ftTRg2oKhnKM/xPQTSMLgTkC+1oZdmXcXNxlaBRGJwSSQGl0RicEkkBpdEYnBJpMkOh3n7qB3uwO7z8tX5VaEmnMYu6q87c7EA/0bp5fUnKOZjxkO9fdSOdy5vNgmXXw9uGbwcW1VUKABctzNXTFG6f1YrJyhGigpv9H5tW4isPvjbR1jf8G9q6Zrj1vteI7VEa65Gb/iJNfw9vrfBVG6yCUPTuesrOtGw54NxtlA1DUA9wkYxnFTYhOc8x2k9CGbhCJXIhEM4W6i+eRiZhNiE5+zi2DSQ09oo5a8+jyEMWfeFgSYa1V1kLydMBnO+XH8iZHQGh+c1cXH62L+ftivoZjBZMnxf0fd69UsR/ffp1NKE5wEXF89Rf3Ovc8fZDSPwJhv/BmytAHTdfO3tB6E9Q7kYCSZWkMlvo1QO7sm1NyPPXWiiUW9gea13+QNshBMWoaGU6CEiKyheCa0OTT9BqWfaUSbjv4eK+si/KTzRe016r/CKv/789o0N7bhm2uPml3QAgHt+BqCJxvEOXOhY73tpdAXFDX/WrmvtBhMvz3DuWjiPuQM9UzwZeUqL13gMywUK2uDDdKa4negw3v1e4125CZ36mmlww8mAyuIq4D3HaxeAch8DZ95kPsKyAgANXHgAsIpFBbDNBVRr+3C8NKaxmDi1/DZmKaXmsuu9JuXsz/Vs3Vma2b0KnuNPY0G4hw0/oAETGOOtoLiuwzINuPYOTHsHgAql8EnXgzeGK+4VWsD1X6Kkq+t9r33Y5kLPiawOTU+hgBtoqsHt/mBUKJfTUwBcvPTPrluv4GHIwOUPoFceRqawWP6DN+z4k6HxhL1vz6+vPKjPgGl0pgMpvSeUMa5MWXLM5M+huGWmGtyB06iDh2G4rj9h8vqsFbtPioLnDZTCEYW6Ade1YB3v44NRn+4YW8sKiuU2ipEAx78vf1QhG4xeuIneU4+8xmGwPubnAkTmXvAgjLB37ePaXtgfUSiHIxBu/5nD19cSPDGmz3ayCZ480j1TN77/DqeZU3LzE1xoWFNVAP5esl92ndMduFChbgR7UW8ftT6BADBinxrWAtjmEI+N6rOuUiUcCVntG14azhwFF8gUnwZ7yR0cVre6nhUAz0Sj9gCm7V8MiPatLesxatFl0YQTDmetj9Ym+A8h8R/yYRoPUGuY8CLfJs/ZQj24Ehf/AJLIkSN8DhqC8NbM2C9m14M9vOC5a7UHDHuMyV45i72kef0Jk+fs47T+DLYbvXyqQik8inlmgP/cgdct6+rl4Y2DmO2Y3Y8BDfTrv+Mv94a1fIR8pjNKEH/Jt3NlsPf1grqHlnV7L/nyuQokksBLvkTjYXBJJAaXRGJwSSQGl0RicEkkBpdEYnBJJAaXRGJwSSQGl0RicEkkBpdEYnBJJAaXRGJwSSQGl0RicEkkBpdEYnBJJAaXRGJwSSQGl0RicEkkBpdEYnBJJAaXRGJwSSQGl0RicEkkBpdEYnBJJAaXRGJwSSQGl0RicEkkBpdEYnBJJAaXRGJwSSQGl0RicEkkBpdEYnBJJAaXRLozyZX/93//QMt7AefPv5rkZlKR//ZPkct8iDtf/casS6EEJhrc3335OX7/5eeT3ERqWt4LfO87P8NKfmvWpVACE20V/vRXc5KrT520em+zie5x//2f88v/zmU+nOSmxtLyXgDorpfm20SDG/XeN9fw/bs/n9bmEvvtHz67DC7JwVEFEonBJZEYXBJpaj1ur5Z3ivoXv5j6dtd/8EvkMmtT3y6li3tcEonBJZFm1ioAwNJ35294jGSYWXBzmTX2mjQytgokEoNLIs10OGxW2KLIN9OTs1mN45J8bBVIJAaXRJppq8DDNo1qpuO4RKNiq0AiMbgk0kzHcWcxZSaX+ZBtyg0w05OzN3/8bOrbnOdJm5QcWwUSicElkWY6HPbjH9ZmtXkSjntcEonBJZEYXBKJ09NJJO5xSSQGl0Ti9HQSidPTSSS2CiQSg0siMbgkEoNLIjG4JBKDSyIxuCQSg0siMbgkEoNLIjG4JBKDSyIxuCQSg0siMbgkEoNLIjG4JBKDSyIxuCQSg0siMbgkEoNLIjG4JBKDSyIxuCQSg0siMbgkEoNLIjG4JBKDSyIxuCQSg0siMbgkEoNLIjG4JBKDSyIxuCQSg0siTe1/F/W3v5+i/sX2tDZHN9xEg/vuO3n8818OAKDlvZjkplLx7jv5WZdACU20VbirPJzk6lMnrd7bbOw9rmEsQNfbsa8p3/oJFhbu4C/nvxl3MxP3/uKP8P7ixqzLuDUMY2Gsvx8quLreHmqDX//ae7irfIy7ysdDF0a3T78dYByOKpBIqQR33N0+3S5p5GXo4PbbnTO8lES/nAzTJgBsFWiK0ty5jRTcYb8dRINCO0qeFnS9PXIK0y6GbqZJ5GRiV87CYhng2+u61mCcbIzV4ybZsGEs8MTtlpnGZz5WqxDFcFJSaRyFUxtVYEtASaSVk1SHwxhe6kfX26nmI/Vx3LQLJPkmkYeJjSpEi2X/e7tMY8c1lRkQ3ANT2njJl0RicEkkBpdEYnBJJAaXRGJwSSQGl0RicEkkBpdEYnBJJAaXRGJwSSQGl0RicEkkBpdEYnBJJAaXRGJwSSQGl0T6P4asVocKrxeJAAAAAElFTkSuQmCC;" vertex="1" parent="TyNaCP28_q_hWQBu7Goa-10">
          <mxGeometry x="395.77" y="330" width="86.22" height="110" as="geometry" />
        </mxCell>
        <mxCell id="TyNaCP28_q_hWQBu7Goa-84" value="" style="edgeStyle=entityRelationEdgeStyle;rounded=0;orthogonalLoop=1;jettySize=auto;html=1;startArrow=none;endArrow=none;segment=10;curved=1;sourcePerimeterSpacing=0;targetPerimeterSpacing=0;strokeColor=#FFFFFF;fontSize=17;fontColor=#000000;" edge="1" parent="TyNaCP28_q_hWQBu7Goa-10" source="TyNaCP28_q_hWQBu7Goa-79" target="TyNaCP28_q_hWQBu7Goa-82">
          <mxGeometry relative="1" as="geometry">
            <mxPoint x="531" y="250" as="sourcePoint" />
          </mxGeometry>
        </mxCell>
        <mxCell id="TyNaCP28_q_hWQBu7Goa-85" value="" style="edgeStyle=entityRelationEdgeStyle;rounded=0;orthogonalLoop=1;jettySize=auto;html=1;startArrow=none;endArrow=none;segment=10;curved=1;sourcePerimeterSpacing=0;targetPerimeterSpacing=0;strokeColor=#FFFFFF;fontSize=17;fontColor=#000000;" edge="1" parent="TyNaCP28_q_hWQBu7Goa-10" source="TyNaCP28_q_hWQBu7Goa-79" target="TyNaCP28_q_hWQBu7Goa-82">
          <mxGeometry relative="1" as="geometry">
            <mxPoint x="531" y="250" as="sourcePoint" />
          </mxGeometry>
        </mxCell>
        <mxCell id="TyNaCP28_q_hWQBu7Goa-100" style="edgeStyle=entityRelationEdgeStyle;rounded=0;orthogonalLoop=1;jettySize=auto;html=1;startArrow=none;endArrow=none;segment=10;curved=1;sourcePerimeterSpacing=0;targetPerimeterSpacing=0;strokeColor=#FFFFFF;fontSize=17;fontColor=#000000;" edge="1" parent="TyNaCP28_q_hWQBu7Goa-10" source="TyNaCP28_q_hWQBu7Goa-79" target="TyNaCP28_q_hWQBu7Goa-97">
          <mxGeometry relative="1" as="geometry">
            <mxPoint x="531" y="250" as="sourcePoint" />
          </mxGeometry>
        </mxCell>
        <mxCell id="TyNaCP28_q_hWQBu7Goa-86" value="" style="edgeStyle=entityRelationEdgeStyle;rounded=0;orthogonalLoop=1;jettySize=auto;html=1;startArrow=none;endArrow=none;segment=10;curved=1;sourcePerimeterSpacing=0;targetPerimeterSpacing=0;strokeColor=#FFFFFF;fontSize=17;fontColor=#000000;" edge="1" parent="TyNaCP28_q_hWQBu7Goa-10" source="TyNaCP28_q_hWQBu7Goa-80" target="TyNaCP28_q_hWQBu7Goa-79">
          <mxGeometry relative="1" as="geometry">
            <mxPoint x="523" y="282" as="sourcePoint" />
            <mxPoint x="531" y="250" as="targetPoint" />
          </mxGeometry>
        </mxCell>
        <mxCell id="TyNaCP28_q_hWQBu7Goa-92" value="" style="sketch=0;outlineConnect=0;fontColor=#232F3E;gradientColor=none;fillColor=#4D27AA;strokeColor=none;dashed=0;verticalLabelPosition=bottom;verticalAlign=top;align=center;html=1;fontSize=12;fontStyle=0;aspect=fixed;pointerEvents=1;shape=mxgraph.aws4.network_load_balancer;rounded=1;shadow=0;glass=0;labelBackgroundColor=#6666FF;strokeWidth=2;" vertex="1" parent="TyNaCP28_q_hWQBu7Goa-10">
          <mxGeometry x="762" y="130" width="90" height="90" as="geometry" />
        </mxCell>
        <mxCell id="TyNaCP28_q_hWQBu7Goa-97" value="" style="shape=image;verticalLabelPosition=bottom;labelBackgroundColor=default;verticalAlign=top;aspect=fixed;imageAspect=0;image=data:image/png,iVBORw0KGgoAAAANSUhEUgAAALcAAADTCAYAAADDC4LTAAAMk0lEQVR4nO3dTWjj+BkG8MfttCxLK9cprEo7npImGdzBh2wuBQ+YhtKDsofMQhkMPQy9KLdmLnOb49zmkuktuixzWDChh81homOKITpmcjCzYpPptFG7rVqIG7WU0g/cgyR/xXb8IVnWm+cHCzuxIr3Bj+VXf0dvMrrebIJIoK8kXQBRXBhuEovhJrEYbhKL4SaxGG4Si+EmsRhuEovhJrEYbhKL4SaxGG4Si+EmsRhuEovhJrEYbhLrVtIFGEYm6RJohnR9dvfGJBJuBvrm6nzu4w76TMPNUFOnMA9xhXxmPTeDTYMYRiaWfMwk3Aw2jSLqnMTaloxa7CwvMig5o+TBMDKR5SHR1RKG+mbpfL6HBT2qgGfimlsyrPixCne2YJhG+J3Q9F3kezepZWDa7X8XtCbKvRvRXIosJ33EEu7oCz6DU1vxA6zuoLK5DeXKNiZq+19gte9jNM/iCnjkF5TxFLqM7MIOCgUA7mMc1s/6bLOChdyEu6dEDcvFNBeZM1sKjKKHWiyfoqQCrvUIdS+ComhuxHH9FekF5aBXWRSFXwLIYhn5zQNcGBuwqlvI9um/O3nOFg6PDbiu/2+1sIP1st+2ePX7qFpW8MAOtLU3OA63VXVo60+A8+c4tgy4CL622XE8z0TtcAO2CwAlFEovUS4uBw+ewak9gmkH+0cJBe0lyvlT1IwNtC4PCjvQsNfaTi0cYL2stdqqYfWHx6nXHsEKj6Pq0NZ3kW/tYFiN80fXm30zNOkFZgp/cUpDubIDFQbM/RcYeAJ3tlA1DeTWmtD1JiqaDtd+jBPHf1gpHkGv7EANt8/uYnPT3w6uAfPwFbLFXWzqTVRKJf9rNTPY2EStugEbO6joTVS0IhrWCozwcec5TLsITQ+P/RAN8zkcaCiH+wOABoDVo476NlBt7WN4/cAZ6vsrsOwitIq/jZYzYFa34IxS4w0Qe7gHv+LO4Hkm6vUt1Pbvw9gPn5QRKNvY1HTAfdwOQ6/8LnS9vWqiZO+1g9wrd7d1tlPyD1DoPdydh/73Nr7wX0zOZ7ABqEsf+WfR7APkVAD2s452ycA75yzY5zbWOnaqZItA8P3t4+5CK3Ts47r6neewXEAtPWntI796gIJq4J0zao3zJ8r2JLK2ZLzG30TN2EBD1ZFbuofFtSdYzS+Pt8qR30VFA6rmBvYXTrFZ7L+Z55k4P3nWeuuO4prTu6wDAFxrBYYFqKqO3NIBKusaFAWA8gAFGLDNFdgooVB6itXy7rU/X35RB+z6SPWHNeSyHW2GoqG86YfDq19TY8pM0prE+iHO4GL8t+dpKfldVEp1VK0V7OMASz2PO7X7MBtFaOtH0Bc718tHkLs7MIyXF37QBq+nayjrp1gM+m7b2oBt9V+jH2ZY/WENg1xf4/wa1HuPKyU99xkuL/o/ohSPoBUA19qA1eh4wNmCaQOl4ALLP9OVsJCdoowg8NkFv2duXPZbkgS8+gs4WEa+fARdP4VWKgEwcNyzhOm+fdV1zeDXWERWub7+sAb7Xf+27Loab4KUhBtA4w0uBzyUD5YIO/lhsHBx7vf2JxeACgtvz6d/spXiUxQQLEk67f159RdwPADYg1kzg+AuI3/nIQroaSEAwN3DSfj93gscWpbfQ49Qf1gD7A3s1832i8QzUaufjVCjfJF9QtnvbSSSiwOn++148Nts7yeUJmr7/jJYuMQGZwuHpgG3sANtYQ+m1fnWrkOr3MNx9THc8EvqDiprb1DtameC9qJrmc1fpltb3fYv7jwT9Y4+2X/8AJtlretnUksHWLoIt+tdqhtef6W8DeXKUmAJhbWXKOeDfQyrcc5Fkaf5D7dE4Qu2cAA9DDx1iSJP6WlLiMbEcJNYDDeJlfhoh5um63fP7Q0YNqCWTrE5x7/zkVYM94zly03o5aSruBnYlpBYDDeJxXCTWAw3icVwk1gMN4nFcJNYDDeJxXCTWAw3icVwk1ip/92S8O7wt7bVvoMGAFCCqj7E2rp/50nXEJ4eqqpjrXOYzaBj1e/j8OJp1+AcAFfuFuqv/w3Co+1zugGgA48hXIrP3Geo72dQrT7DxeJLrAcDcHS9iUrl1L9p2N1r3XepFI+g6wfBTBI9GJhzCq1QgusaMKv3r5nnYeLEsoCFlasBye9C18P7OEsoVdq16HoTeuUAhcI9XL03+fp9agUAAwYQ5ctN/2dS/cE7g26/G3gM4VIa7mDakqtD049Q7pl5oij+neeV0kP/TvKB/O38AA2/edirP4ONq3esj0TRUC5fnT57/T6nHwA6Vd0pl8pwe/VHsFygoA2fA6IUt0eaE5Jf1AEA7sXpgC3OcI6n/pnZ3cN5JCkZfZ+TDwCNo+70SGG4g7dZ6FiMaNhMOL1JXVjpv4HzCshquLNUAmDBOhlv3p5T69PyjLjPcABocfMABViwqmOMnZuy7rRLX7i9L9AAALVfDzvB7hx/XgigY23A3TDOuzfI5jtnhXw2JGAWrGqm9Re6DCMD0y5eaY/G2ycw8gDQqY4hS+pXS7qFvXjPl6/8NQYDptFe3VALB6gMWknwXuDdwhP4N89oWCwAtm3guP4E+b4vhhJKlSMUO3bm1Lam3GdA2cam9gaG+RjV2t3hYyEmPYYg6Q2360+g6g7kMoqbTRQ7Qt5/ecxfWssGy4Pulf20eed7sK3HsHtWEd23r+AVR/sTJfnybnT7HHUAaAR1p1362hLlbjDpNBjV29cysiOMc+0eSdZvJcLEydv2nG3/v2A5ceILtOn36Q8ALcG1VrBf73cRHEfd6ZO+cEPDajC83TbHuLgasK9yMIDeD0pPwJ3P0Fh60rPiEh5/wgu0sfY5wQDQuOpOoRSGO3xi/cmppnEftboJr+Ns5DlbOLYBqIOmutZxGW4fDrJHEPDWAMsz1I/rWLpztT9tDaO3N1C78uqycDFoYuck+xxzAOjkdcuT6lmB/T96L0EtPMTa6kfIK+0nuP/H7+2PtYd9PN8106/PR+2qWoLr9n5v74Wl2fP3cMbb52gDQMc8xhzPS+EgTBKLgzCJhmC4SSyGm8RiuEkshpvEYrhJLIabxGK4SSyGm8RiuEkshpvEYrhJLIabxGK4SSyGm8RiuEkshpvEYrhJLIabxGK4SSyGm8RiuEkshpvEYrhJLIabxGK4SSyGm8RiuEkshpvEYrhJLIabxGK4SSyGm8RiuEkshpvEYrhJLIabxGK4SSyGm8RiuEmsW0kd+L//+wca3ms4f/51UiWMLP+dnyGnfIhbX/1G0qXQGBIL9+++/BS///LTpA4/lob3Gt//7s+xnN9KuhQaQ2JtyZ/+aiZ16ImkrV5K8Mz97/9ctP4/p3yYVBnXanivAXTXS+mQWLg7feubq/jB7V8kXcYVv/3DJ61wU/pwtYTEYrhJLIabxJqLnrtXwzvB8ee/nPlx1374K+SU1Zkfl+LBMzeJxXCTWHPZlgDA4vfmb2mQ0mUuw51TVtn70tTYlpBYDDeJNZdtScM7SezYbIfkmMtwA0hsnZvkYFtCYjHcJNbctiVsEWhacxluXtRRFNiWkFgMN4k1l21JwztJ5PaunPIhWyJB5jLcAPDuj5/M/JjzfKMyjY9tCYnFcJNYc9mW5JRV/ORHtaTLoJTjmZvEYrhJLIabxJrLnpujHSgKPHOTWAw3iTWXbQnA0Q40vbkMN0c7UBTYlpBYDDeJxXCTWAw3icVwk1gMN4nFcJNYDDeJxXCTWAw3icVwk1gMN4nFcJNYDDeJxXCTWAw3icVwk1gMN4nFcJNYDDeJxXCTWAw3icVwk1gMN4nFcJNYDDeJxXCTWAw3icVwk1gMN4nFcJNYDDeJxXCTWAw3icVwk1gMN4nFcJNYDDeJNRd/qu9vfz/B8efbSZdBwiQW7vffy+Of/3IAAA3vdVJljOz99/JJl0BjSqwtua0+SOrQE0lbvRTzmdswMtD1Zt/H1G//FJnMLfzl4jdxlhCJDxZ+jA8W1pMu48YwjEwk+4ks3LreHKuor3/tW7itfozb6sdRlUCCDTpJDsPVEhIr9nBH9RZDN0OUeYk03IPeOhhwGsWgnEzSkgBsS2hOxHECjDzck77K6OYaFuxp8pTR9WYsaYyrYJIlzpwk8gll+AMx5DfXdW1IFNmIrecepTjDyPBi84aZ5XMeW1vSiQGmUUX5bj6T1RK2HzSKqHMys6VABpwG0fVmLPmY6Tp3XD8EpVeceUhktaTzB2I/frPM8uSW+J04PJNTXPjxO4nFcJNYDDeJxXCTWAw3icVwk1gMN4nFcJNYDDeJxXCTWAw3icVwk1j/BxqvheNRc4WFAAAAAElFTkSuQmCC;" vertex="1" parent="TyNaCP28_q_hWQBu7Goa-10">
          <mxGeometry x="390" y="100" width="99.05" height="114.21" as="geometry" />
        </mxCell>
        <mxCell id="TyNaCP28_q_hWQBu7Goa-98" value="" style="shape=image;verticalLabelPosition=bottom;labelBackgroundColor=default;verticalAlign=top;aspect=fixed;imageAspect=0;image=data:image/png,iVBORw0KGgoAAAANSUhEUgAAAMIAAADMCAYAAAAh63xBAAAN40lEQVR4nO3dT2gjaX7G8a+zk7Asu9LaC1vLZtSh0/agNDp4fFlQg4gJOZTnoF4IgyCHJpfyLfalb3OcW1/s3FyXZQ4LptnD+NCuoxdB6+jxQfSKsXo76Uo2UQJWXAkh5A/eQ6mk0n/Zlqpet58PDIxb5aq3rPdRve+r0k9LjnN1hcg99wdpN0DEBAqCCAqCCKAgiAAKggigIIgACoIIoCCIAAqCCKAgiAAKggigIIgACoIIoCCIAPBRkgdz3aUkDycpc5y7c4f/woOgzn9/xZ9700OxsCAoABIX9QdTA7GQOYJCIOO47pKR/WPuQTDxJMU8pvWTuQ2NZj0xUy+NMl+z9AfXXTKmPyS2amTKCUsy4s/3pFCYEoaleVSxmHSi1zpJfxvXc6PfxHYOyA1uUl3Ca/R+zttXlAY3EiPNrZ8swK2DMP+Ta+JX18LObu1RKe+QGdrGo3r0LesjHxOTmRqGW02WF3NSq2RX9sjngdYuJ/XmiG3WWFm+4e4lVZP6RZoT6IUsn84j2Q9L5xQtaNWeUQ/m0CgxRtrDoFFuPFkel955nOQlkGWVXPmYC3eL2uE22RHzhbjA3+bk1KXVCn+28ntslsKhU1B/wmGt1nlgD3vjDafRtpaDvfkc3r/gtObSovNv5djxAo/qyRaNFkCRfPErSoXVzoNN/OozvEZn/xTJ219Ryp1TdbfoTmfye9i87G5n5Y/ZLNndod2k9kfHqVefUYuOYznYmwfkujuY1EbzOM7VyD6U1uTZ8JvubEqVPSxcvKN9xl4Y/G0OPZfljSsc54qK7dBq7HLmhw9nCq9xKntY0fbZA8rlcDtaLt7JK7KFA8rOFZViMfy3qtfZ2KN6uEWDPSrOFRW7QLu2hhs97r/AaxSwnejYn9P2XuBjU4r2B9AG1l/H2rfFYXcfk9sPTepHa9QaBexKuI297OIdbuPP0kaZaq5BGJ/kJkHgUa9vUz16gnsUPYEzyOxQth1o7fY6zqDcAY7TWz3KZB/3Ov2g5U+6r6KZ3FPyg4d78Hn4u+1vw+D5X9MArEefha/O2acsW0Djy9iQzeWd3+zsc4eN2E4z2QJ0fr933APsfGwf09rvv6DWAqv4vLuP3PoxecvlnT9rG81j0hDpRkOj601qPKruFm3LYfnRYx5uPGc9t3q91Z7cARUbDr0tjlbOKRdGbxYEHu/PvuwOH+Yxnw4u6wC0amu4NbAsh+VHx1Q2bTIZIPOUPC4Nb40GRfLFL1gvHUw9v9xDBxr1mdoftWE5GxvqZGxK5bAjBfUpbbxj0hgeze0NtfEND4cIt5XJHVAp1jmsrXHEMY8GHverT/DaBezN1zgP4+9HzGD5k7Ed9/Ii7JTj36+wKTnnPOzMExq1LRq10e+BTDKp/VEbxpneRnONmyskzcA5QpPLi9GPZAqvsfPQqm1Ra8ce8LfxGlDsTB7DV9AiK9lbNKMTjuxKOMZvX45axoWgvo/PKrnSaxznHLtYBFxOB5Z9W29f9c1xwjYWyGamtz9qQ+Pd6KHhtDbKdAYGAWi/4XLMQ7nOsmpc2HFqXLwP5yJnF2BR4+3723eMTOEL8nSWcf3e/oL6Pn4A8BKv6nU6+Sq5B5+TZ2AYA9B6yVn0+8E+J7VaOOafof1RG2hscVT3eoEKPKr15gxtlGlu9M7yqEvZXMZ0fv+QYPylfvCdZY/qUbh0GC1L4m9z4rm08nvYKy/xavHhhYNdeczp4S6t6J+sPSobbzjsG1J1hjh9S5Ph0ubG+k44cQ086rFxffj4MeWS3XdOVvGYRxfRdoPLm5PbXyntkBlaPi2S3/iKUq6zj0ltNNzC+tM1mBWED1EU7vwxThQO6WNCfzJzaCSSMAVBBAVBBEi4nMt90/fZicYWbgOs4jllg+8Buq8UhAXKla5wSmm3QmahoZEICoIIoCCIAAqCCKAgiAAKggigIIgACoIIoCCIAAqCCKAgiAAKggiw6Jvugn2qh7s0xjw8thrd4HaWw0a8qtuQJn79Badve5Xiot97tPGcQq53t+dg1bvRRYYZuX3evqKU3eco/hHPkcKPeBLdfWoVsYBWq1cNz7LiP49h7VEpf8b7ozVqAwe0iueUH7yauS3ZEX/f/jthO0XEujsrUqy8ptCtpLdP9WS3+1FQmOV5uTsS+ahmdDty7zPI8TKJ8dInXqdMYvRv8e0Gnpjuzrc58lwoHrNZiEooNgn8V5yddp64/DGVWHlFgl5nnlwCJWrP8LGjc+p1piZBAJeXrzh99wnlEkMVu6NQDXfAF2TLB+S67RpVDmbwb3OdttgD5z2h3Eywz9FZ7Heiv/G7p7ESlU0C/wUnnsvyHErI3OOPaoblT+w8jCp9Mnq7EVUpgv1OCM4pF2IdnVUyuR1K5U7Fi8ZWf1XtTK8aXeN0UinJr8dezUa1NZNZJZfb6XQim9JMZetXKUR1VjOfzKUo2XBbOmbZ/9A2TeqndR6tD/59D9iMyll+AFKdI+QeOgC0Ls5vsF2T+kn46rYx9oMuqxQ2w5qnrdqLgTKTzpTS803ql4+HSscMGirbkqLFtOWci1aNixH1dTKF13euoNg4qQYhKmVoraxdf7vgFW9bgPWYiXW8Mp/xyAKocznw0v9wfVxIAP8VPPhs6jkM8ffNqTc6l7assWJBw1viqLqPH3yYRcRS+4Ra4IdFrpj4ij7DdhPKNY7X5LIN2cwOG/ldvIbLaf05udj+/Ut4kIP3U/bU8JYGhk8OtnPtBg1w8dxrlKxcaFtWKWw41DyXVmMXr7ELFLHyX/SVtb/rEg1C/xNVxOoWrxrU3xGswckuwOWbcLWk/S0BN39Ccut7WI3dsErcg86EONjnMrtDjumvfkOTbd+bvdL3WJMmy0m3hbBad+VprIBYLSxr3xizgHEHJTo0ytthbf/wv9eUR4YAwo7Q+26BFgxvF5VOb40vD9mvU2d0UHfiXKN2FtYWDd6/IXvTsW/Ovlbx34WaZ1s61bcd55yK7WBZADVqJxMWG+4Qo99Q66/5OfDq3F3dGB7795lhLpErHXeO8yX1wOM9T6d2oKjwrgnm3paJc7ZwxagcrcjN/EJkNqOD0PvGnLD2f38YbNaLRaa9Kvlnu7QoUtyctJQZ29fhFhfZD7U0YzjxDb/YZMwm/tcQX30K9qmOXd5m+mLFHWFoEGKv8tE35tAJQ7VXDTpT+KrzqrTL4dF2XyVoAo969QleI/xOs/5x7DkXA2/Hdq8+1h7rQ5eD0cuHMFCKPeh8M1D1yfAVLAHT2xJOfAEa3hOqfrO/VL2/zdHp46Hzb9eeUY3/bWni159Ra0F+48P4it/FvrMcjLodYfQEa/QtFr1J4+Dj8Ylh4O9zdvqSRt8tC0Ws/OfDFaEH2tT3Lq+/zdHl887PIyan+WOc9W9nvq2h159GT3T7zmHC+Y+6PQJrj8omnFy7LeE385ydfEm7VYv97riVoLAK99t2bfj2lc2DuUyUTXhnWdWwJXUm9CdDh0YiyVIQRFAQRAAFQQRQEEQABUEEUBBEAAVBBFAQRAAFQQRQEEQABUEEUBBEAAVBBFAQRAAFQQRQEEQABUEEUBBEAAVBBFAQRAAFQQRQEEQABUEEUBBEAAVBBFAQRAAFQQRQEEQABUEEUBBEAAVBBFAQRAAFQQRQEEQABUEEUBBEAAVBBFAQRAD4KImD/N///yft4Bv8f/lVEoe7ldxP/orlzKd89J3vp90USVAiQfj73/2Sf/jdL5M41K21g2/4k5/+Nau57bSbIglKZGj0z//mJXGYublr7ZXbS+SK8D//e9H9/+XMp0kc8kbawTdAf3vlfkgkCHE//ME6f/rx3yR92Kl++4+/6AZB7h+tGomgIIgACoIIkMIcYVA7OOP0N3+b+HE3/uzvWM6sJ35cMZOuCCIoCCKAAUMjgId/bN5yqtwvqQdhObOusbqkTkMjERQEEcCAoVE7OEvt2BqSSST1IACpvY8gEtHQSAQFQQQwZGikYYqkLfUgaMIqJtDQSAQFQQQwYGjUDs5S+YjkcuZTDcukK/UgALz7p18kfkyTiwhI8jQ0EkFBEAEMGBotZ9b5i59V026G3HO6IoigIIgACoIIYMAcQeVcxAS6IoigIIgABgyNQOVcJH2pB0HlXMQEGhqJoCCIAAqCCKAgiAAKggigIIgACoIIoCCIAAqCCKAgiAAKggigIIgACoIIoCCIAAqCCKAgiAAKggigIIgACoIIoCCIAAqCCKAgiAAKggigIIgACoIIoCCIAAqCCKAgiAAKggigIIgACoIIoCCIAAqCCKAgiAAKggigIIgACoIIoCCIACl8vey//8cZp7/ZSfqwIhMlEoTvfTfHf/23D0A7+CaJQ97K976bS7sJkrBEhkYfW0+TOMzc3LX2yu3N7Yrguks4ztXIx6wf/SVLSx/xrxe/ntfhFubHK3/Oj1c2027GveG6S2k3AbhhEBzn6lon8Ed/+EM+tn7Ox9bPb3I4uWfGvaAuklaNRJhzEEy5zMndYFJ/uXEQxl2+TDo5Mde4fpLGsAg0NJIUmPhieasgpJVeubsmhSDN/rTkOFe3PrqpJydmMbmfLPyd5ejk0z5RSc+0oZAJfWMuc4RZTsR1l4wcG8ri3KXnfC5Do7i7cuKSPhOuBJG5rxqZdHJiLtP6yUKWT007STGH41wZ2T8W9j6CqScs6TG5Pyx81Sh+8po/3C8md/xBiX5C7S79YeR+0S0WIigIIoCCIAIoCCKAgiACKAgigIIgAsDvAYNT4CxKUeX6AAAAAElFTkSuQmCC;" vertex="1" parent="TyNaCP28_q_hWQBu7Goa-10">
          <mxGeometry x="280" y="100" width="104.6" height="110" as="geometry" />
        </mxCell>
        <mxCell id="TyNaCP28_q_hWQBu7Goa-99" value="" style="edgeStyle=none;orthogonalLoop=1;jettySize=auto;html=1;rounded=0;strokeColor=#FFFFFF;fontSize=17;fontColor=#000000;" edge="1" parent="TyNaCP28_q_hWQBu7Goa-10">
          <mxGeometry width="80" relative="1" as="geometry">
            <mxPoint x="370" y="155" as="sourcePoint" />
            <mxPoint x="400" y="154.5" as="targetPoint" />
            <Array as="points" />
          </mxGeometry>
        </mxCell>
        <mxCell id="TyNaCP28_q_hWQBu7Goa-102" value="" style="shape=image;verticalLabelPosition=bottom;labelBackgroundColor=default;verticalAlign=top;aspect=fixed;imageAspect=0;image=data:image/png,iVBORw0KGgoAAAANSUhEUgAAAGUAAAA+CAYAAAAyNdX7AAAGwElEQVR4nO2bMU/jWBRGD6utHYXGlZFQyMhauYgojWSJ0tmCqUbppjNlaOimnI4GStxNF1FBsbhEshSXIwprZe0ERYorN0T4D2QL24kTEuyEBLyLj0SBybvvkc959/p9N1uGMRpRUih+e+8FlDynFKWAlKIUkFKUAlKKUkBKUQpIKUoBKUUpIKUoBeT3914AQOge0HGc8e+yPkKTihfzrcgnSniB3TnBW/BnUT7nUGsjrLgIQeliKD3cmzpOoLJdWTHQhmO+Ffm2L6GNZozQ5ehXWR9hGCMM4xe6rBJ4J3TMY/wNLvQj8cqcsoekdWOxTH66vXWs6cOzlkQv7RoABI+/1hHuw7OWRB8+uQCI2/X4Sg/f/spPzyGIr4jyOfuNNlKSeEIL++47XuAAKrL6je1nkaM4lpckbBVZ/4Em7S1YSJ6YEPrH3P00CYLJ2iY5cck5N8CrPymhf8Gd4wAG+8oeECVXa/iFwyTvqFHesTpJ3rGwO028ANTWCMPo0qhc8xDMBPfPsDwF3YhyWEv/wtA6W5C78sY8pmOZVPeTmAaBd8J9EnSpOTfDSqJ41hamGf10rCuQz2kZl0gA/hlOAPJ+cuftISk/UEUAk74PofsdDxDVHyjxJ0eQTqmJ82Yz6fu9+DVt9uX5a8odU7rEMCblsVD5g+fT5ptzU6y0fb1U8/t9c87VPXZqKk7gMHzq8fQYbQ3VSsaWIH1GxsSz6njxdtTQLueW3rljxoShxeD+O068TVVXmHNTbOyJfvg0XYkJFSVjxB6V6uw1HS0uu8HBc5pLlt7zYoJvH9C5u6bS6GLoxprnfD1rF2VciT38RZi6nhQD1coelW0VmBWux9MQwOHxKR7jXuDHZXeSmxaV3nlj4h9jeaAeXiIJybomD5fLzLkp1v9JkU6j/BGccB/vy4QW944D4jkNCYSdL4hA4JzhxsqF7lecOClHOeuYAVdYthWLu4e08wWZ+VtU3pjukws4PA56hKHF/SOIODwMkjc9/5ybYitXN0t4wU3nhOlCRkVtdcdJdZrnZaUof+NQ0yd7c3iBfXeCFwCigbp/SqVfxxoaqLXP7Cg6QmjhpvZ9AFG+5UjTF64zMyYW9k1UpYnyLYeaDv4xd5ZJIJ/TanyayjWZc26AfKKUvCnl0X0BKUUpIKUoBaQUpYCUohSQUpQC8m4e/ZSHLp7TOlrdTv6/sfInJXQPuBk/+S6PoMw7dyJ6UDW3uPnALuaKosTHJtv1td/d4eCKQDSo7bzdsUY0cXQzmDfH+GF0Buauese9kpVESbyL2UPHdSAoXYyjywXHN5vDH8Ch8Qu96mJ1trh7/PTma0hYIaf0GPANVWziBFcMwvbrF1/99O75RFLaAAhaF0N737UsL4r/F1TaY9PKubdQxod1FrbZnPSHyefoXI0PJpMDwEUCpJO/qP7iSEm2sB6u/XVySCga6PHRO2R57tnj8/cURAeZkf//Ay21vnX6+ktvX37/byoSCMo3ZADvOmUA6WjGiJYaeRsMgUY35YU36djWwtjzk3/cUOcp6K3IN9er5sTvz/Lcs8Yv01PAOS1jREtXGDp1zOR/WbOvv5wo4QX97dPIi0dnd0G/V+IyirU/x3eaIF1G/WHe91wJdOxfxJ6/qJ6OY0mNW2Qx8vszPfes8Tl6CvCvI/+/9mf0mspnquLs/7I+X3+p7SscXOE5J6SsBiBO+Er2c4a0a4DnLrXAtGM5RtDRjqYdh0Wee9Z4387uKQiJYgROHdMBUTSo1m5pHeoIAiCs19dfQhSL+wcF3egipa7ZZhNvXQl/DklDxEv49gHWUEE/7GLsHmNakzc6z3iIbeRUDog+7c5UjMUNI5GvvxvnFc9p4jkGetLhsyT5ty//mmHtdGYSnYYaNRg4989zxXyfXqGyhHiJ9+71F+SiDM89a/zqPQWp167Z188pSg/3pzv3gS7xxvGa2LOZLbhK+fRR056ozgr7MpOCosmNmzpBCC1stxe/eYs996zxuXoK4hiB8xXXn7zRoXuBH8K6ff1cdrBtbqXK3FuMpAT2p7cKiEvZyhmmZSKqt9Qek30+XUYmX1FIj1SRZfDSCWs812xJqyLvJyVnhueutRFeHA/5egrSJfFMybxsL0EGm/HoE7HSAhYCC9+vI71hX/AqfKyj+/Af+v0zbl54VioCH0sUoY2mnVIbXhf6C04fSpTQPcA06zxUP69Uqr4Va88pvr2FNfPlyOlzrJIsyma8AvKhtq//CqUoBaQUpYCUohSQUpQCUopSQEpRCkgpSgEpRSkgpSgFpBSlgJSiFJBSlALyL9vtE0rfozzoAAAAAElFTkSuQmCC;" vertex="1" parent="TyNaCP28_q_hWQBu7Goa-10">
          <mxGeometry x="250" y="600" width="65.16" height="40" as="geometry" />
        </mxCell>
        <mxCell id="TyNaCP28_q_hWQBu7Goa-103" value="" style="shape=image;verticalLabelPosition=bottom;labelBackgroundColor=default;verticalAlign=top;aspect=fixed;imageAspect=0;image=data:image/png,iVBORw0KGgoAAAANSUhEUgAAAGUAAAA+CAYAAAAyNdX7AAAGwElEQVR4nO2bMU/jWBRGD6utHYXGlZFQyMhauYgojWSJ0tmCqUbppjNlaOimnI4GStxNF1FBsbhEshSXIwprZe0ERYorN0T4D2QL24kTEuyEBLyLj0SBybvvkc959/p9N1uGMRpRUih+e+8FlDynFKWAlKIUkFKUAlKKUkBKUQpIKUoBKUUpIKUoBeT3914AQOge0HGc8e+yPkKTihfzrcgnSniB3TnBW/BnUT7nUGsjrLgIQeliKD3cmzpOoLJdWTHQhmO+Ffm2L6GNZozQ5ehXWR9hGCMM4xe6rBJ4J3TMY/wNLvQj8cqcsoekdWOxTH66vXWs6cOzlkQv7RoABI+/1hHuw7OWRB8+uQCI2/X4Sg/f/spPzyGIr4jyOfuNNlKSeEIL++47XuAAKrL6je1nkaM4lpckbBVZ/4Em7S1YSJ6YEPrH3P00CYLJ2iY5cck5N8CrPymhf8Gd4wAG+8oeECVXa/iFwyTvqFHesTpJ3rGwO028ANTWCMPo0qhc8xDMBPfPsDwF3YhyWEv/wtA6W5C78sY8pmOZVPeTmAaBd8J9EnSpOTfDSqJ41hamGf10rCuQz2kZl0gA/hlOAPJ+cuftISk/UEUAk74PofsdDxDVHyjxJ0eQTqmJ82Yz6fu9+DVt9uX5a8odU7rEMCblsVD5g+fT5ptzU6y0fb1U8/t9c87VPXZqKk7gMHzq8fQYbQ3VSsaWIH1GxsSz6njxdtTQLueW3rljxoShxeD+O068TVVXmHNTbOyJfvg0XYkJFSVjxB6V6uw1HS0uu8HBc5pLlt7zYoJvH9C5u6bS6GLoxprnfD1rF2VciT38RZi6nhQD1coelW0VmBWux9MQwOHxKR7jXuDHZXeSmxaV3nlj4h9jeaAeXiIJybomD5fLzLkp1v9JkU6j/BGccB/vy4QW944D4jkNCYSdL4hA4JzhxsqF7lecOClHOeuYAVdYthWLu4e08wWZ+VtU3pjukws4PA56hKHF/SOIODwMkjc9/5ybYitXN0t4wU3nhOlCRkVtdcdJdZrnZaUof+NQ0yd7c3iBfXeCFwCigbp/SqVfxxoaqLXP7Cg6QmjhpvZ9AFG+5UjTF64zMyYW9k1UpYnyLYeaDv4xd5ZJIJ/TanyayjWZc26AfKKUvCnl0X0BKUUpIKUoBaQUpYCUohSQUpQC8m4e/ZSHLp7TOlrdTv6/sfInJXQPuBk/+S6PoMw7dyJ6UDW3uPnALuaKosTHJtv1td/d4eCKQDSo7bzdsUY0cXQzmDfH+GF0Buauese9kpVESbyL2UPHdSAoXYyjywXHN5vDH8Ch8Qu96mJ1trh7/PTma0hYIaf0GPANVWziBFcMwvbrF1/99O75RFLaAAhaF0N737UsL4r/F1TaY9PKubdQxod1FrbZnPSHyefoXI0PJpMDwEUCpJO/qP7iSEm2sB6u/XVySCga6PHRO2R57tnj8/cURAeZkf//Ay21vnX6+ktvX37/byoSCMo3ZADvOmUA6WjGiJYaeRsMgUY35YU36djWwtjzk3/cUOcp6K3IN9er5sTvz/Lcs8Yv01PAOS1jREtXGDp1zOR/WbOvv5wo4QX97dPIi0dnd0G/V+IyirU/x3eaIF1G/WHe91wJdOxfxJ6/qJ6OY0mNW2Qx8vszPfes8Tl6CvCvI/+/9mf0mspnquLs/7I+X3+p7SscXOE5J6SsBiBO+Er2c4a0a4DnLrXAtGM5RtDRjqYdh0Wee9Z4387uKQiJYgROHdMBUTSo1m5pHeoIAiCs19dfQhSL+wcF3egipa7ZZhNvXQl/DklDxEv49gHWUEE/7GLsHmNakzc6z3iIbeRUDog+7c5UjMUNI5GvvxvnFc9p4jkGetLhsyT5ty//mmHtdGYSnYYaNRg4989zxXyfXqGyhHiJ9+71F+SiDM89a/zqPQWp167Z188pSg/3pzv3gS7xxvGa2LOZLbhK+fRR056ozgr7MpOCosmNmzpBCC1stxe/eYs996zxuXoK4hiB8xXXn7zRoXuBH8K6ff1cdrBtbqXK3FuMpAT2p7cKiEvZyhmmZSKqt9Qek30+XUYmX1FIj1SRZfDSCWs812xJqyLvJyVnhueutRFeHA/5egrSJfFMybxsL0EGm/HoE7HSAhYCC9+vI71hX/AqfKyj+/Af+v0zbl54VioCH0sUoY2mnVIbXhf6C04fSpTQPcA06zxUP69Uqr4Va88pvr2FNfPlyOlzrJIsyma8AvKhtq//CqUoBaQUpYCUohSQUpQCUopSQEpRCkgpSgEpRSkgpSgFpBSlgJSiFJBSlALyL9vtE0rfozzoAAAAAElFTkSuQmCC;" vertex="1" parent="TyNaCP28_q_hWQBu7Goa-10">
          <mxGeometry x="600" y="600" width="65.16" height="40" as="geometry" />
        </mxCell>
        <mxCell id="TyNaCP28_q_hWQBu7Goa-105" value="" style="shape=image;verticalLabelPosition=bottom;labelBackgroundColor=default;verticalAlign=top;aspect=fixed;imageAspect=0;image=data:image/png,iVBORw0KGgoAAAANSUhEUgAAAHEAAAAjCAYAAACjOOUsAAAFe0lEQVRoge2aO2/iWBSAv6y2NiKNK0caBVbWyAWidCRLlM4UTDWiS2dKaNJNmW4aKOMuHZoqFBuXSJZwGaWwRtZCFCmu3IDwH2ALP4BJAoTMKoPXn0QR+/rec+7xeV3nwDDmc3L2mj/eW4Cct5MbMQPkRswAuREzQG7EDJAbMQPkRswAuREzQG7EDPDnewvwfyJ0T+g5Tvq3rM/RpLfPu9mIYRd70MYLFpdE0aBau0QS3i7Ab0XYxe618V64LcodalqLXdUWlCGGMsbtl3EClcPCroKust6IfpP+w2dq9TkaAGNC/xsDy+RhlkEjCi00o8UH+wDLW/aUMb59huW16Xk/0I1LfoED/TLW5MQx7q3LcUVfevNKCNIlNVX9aayFbXcJ/xsZfwNKSNoQXQYwuXXH7y3QCmuMOGISOExmT+8IynAplo9x+6d4/LVzmNkXpA8GAMFk9M6SrLImnJY5FMGxDpjKHaqVT0hC6cmo0D3DCYDgFDNJJvINhqaThKFbzyFJqaLcoVppIQngx2ELQFRvqE4usDwH5Bsamg5+k8GtSRAsnl3JSc/k6xSxQ6PeQggt7MFpPEZFVq/QlKd6bEM4c6OpD8vxlfX6RQ9Z2IMLvMCJ1//K4U6rv8waTyyhVOM3z2tj9cqY5gl921oJm4JyhSoSGc6YR7/YgG6/jDX9Qs2YYxgjdFWN52riA5I2x9DjNe6vQRtiNDqIgOA36VkmxWo0Z0M3CLw2d36ysoXda0N1FN+PngMQ1RFGvYWAhd07xaNDw5jT0BWmThnTtl69UaHfZeA4gEFVKW2lH8n6AaiNOYYxpFK45v65l+4NrO8TpUuMxg1ysjs4BN4pPfMEd1MC9L/hBCBXE88pISUGx+TBXx0uHp9HxYLQoq7p0drGogQXCh9TIwGE7gUeBh+kyKsEqRXnapViIfY0/xoPEI8/RTIUPlMUAe9is/yAZx1gmtGvZ30HuUMjKWq20C+SEUT1CiX2TEE651h8fr1d2dxiCDpafY6WVKa3JkHg4Ay6HNVfLrf9B/OZqyWOjlWcwGE6G4O0OayFocXj3QWOF/VXxZW7LrOQNHQJBQUw07mT8Bc4ZUwnao2Kxzc0ajrCFgl8XR+3jX6zSSxzYbfwvS2vOLGJKtN6fRS9bcEPoppnxGRNeJjOViu5aKO3w7dP6A2uKVSGadhN5zn6gojD/eNi/mRjk01LNlHWo5Bcr1+iKdsZcFter1+JQnHDkFfyshHDLva6Ulr8yLpeNa3k7v9eyaGJd2x8O/0mlgdqfKgQPbfUIAst6o0OOHGu7p9wOzVQGwvvKRxGrdDPG/0r2Ea/59cfM5sCPF/578JaT5w6Z9j+qgB+XI0uckEy+J9YmTG+28QtnMce2+YumSO0uHMcEDtUNnTL0WY4TB7HhKHF3YQnnhc+/qCoRwVDvT6kXr9Mcw+AoHxFBgLnDHdJj9Dt4r+1qZU26xdFCwicb2kOTqt5kpybFEG7c/Dyf7uNce0z7qdOWuJDlFeOa6ubhd+kb5lRmS2qyNUrKlIJIT3pSM4LVUT5KzUtOkBYbjHS+dURdaUEWNj9qLIT5RtqScthmQRyh4b2icd+Od2QhXwqxeoVWpJvV1qMZ1qAZcIu/V6b1SlV1MZwVd+lPVqnXzJn2gaJBmr1nMJDGWtqoB5/5kjR39xfrzHi70/odxlYP296xOJlyD77+xXDb9KzQG/MV7wqDLvc9dp4938TKrsfVu8Te2tE/8FEVEdPwqIgtKio3/Em2T8GTNjbj8KFQ5VgMnp66B5a3N2DWtHfQ6x3YW89UVCu0N0zBuYpiEtfVYpfqNaG2ftMtoa9LmxyIvY2nOYsyI2YAXIjZoDciBkgN2IGyI2YAf4FumaIWCXdlwIAAAAASUVORK5CYII=;" vertex="1" parent="TyNaCP28_q_hWQBu7Goa-10">
          <mxGeometry x="880.64" y="540" width="80.71" height="25" as="geometry" />
        </mxCell>
      </root>
    </mxGraphModel>
  </diagram>
</mxfile>
